SplineFontDB: 3.0
FontName: cmsy10
FullName: cmsy10
FamilyName: cmsy10
Weight: Book
Copyright: Copyright (C) 1994, Basil K. Malyshev. All Rights Reserved.012BaKoMa Fonts Collection, Level-B.
Version: 1.1/12-Nov-94
ItalicAngle: 0
UnderlinePosition: -123
UnderlineWidth: 20
Ascent: 1638
Descent: 410
sfntRevision: 0x00011999
LayerCount: 2
Layer: 0 1 "Back"  1
Layer: 1 1 "Fore"  0
XUID: [1021 99 1815243471 6145271]
FSType: 0
OS2Version: 1
OS2_WeightWidthSlopeOnly: 0
OS2_UseTypoMetrics: 1
CreationTime: -2082844800
ModificationTime: 1421634080
PfmFamily: 17
TTFWeight: 400
TTFWidth: 5
LineGap: 0
VLineGap: 0
Panose: 2 11 5 0 0 0 0 0 0 0
OS2TypoAscent: -192
OS2TypoAOffset: 1
OS2TypoDescent: -1556
OS2TypoDOffset: 1
OS2TypoLinegap: 0
OS2WinAscent: 0
OS2WinAOffset: 1
OS2WinDescent: 0
OS2WinDOffset: 1
HheadAscent: 0
HheadAOffset: 1
HheadDescent: 0
HheadDOffset: 1
OS2SubXSize: 410
OS2SubYSize: 369
OS2SubXOff: 0
OS2SubYOff: 0
OS2SupXSize: 410
OS2SupYSize: 369
OS2SupXOff: 0
OS2SupYOff: 723
OS2StrikeYSize: 102
OS2StrikeYPos: 530
OS2Vendor: 'PfEd'
OS2CodePages: 00000001.00000000
OS2UnicodeRanges: 00000000.00000000.00000000.00000000
MarkAttachClasses: 1
DEI: 91125
TtTable: prep
NPUSHB
 24
 5
 34
 5
 28
 14
 23
 3
 28
 77
 12
 13
 5
 82
 11
 77
 34
 64
 3
 77
 77
 36
 13
 81
 0
SCANTYPE
PUSHW_1
 828
SCANCTRL
SCVTCI
CALL
CALL
EndTTInstrs
TtTable: fpgm
NPUSHB
 22
 21
 20
 19
 18
 17
 16
 15
 14
 13
 12
 11
 10
 9
 8
 7
 6
 5
 4
 3
 2
 1
 0
FDEF
PUSHB_3
 0
 128
 0
RS
DUP
ROLL
DIV
ROLL
SWAP
WS
FLOOR
ODD
ENDF
FDEF
PUSHB_3
 42
 0
 0
RS
EQ
JROT
PUSHB_1
 0
CALL
IF
SLOOP
IP
EIF
PUSHB_1
 0
CALL
IF
SLOOP
ALIGNRP
EIF
PUSHB_1
 0
CALL
IF
PUSHB_1
 10
LOOPCALL
EIF
PUSHB_1
 1
RS
SRP0
PUSHB_1
 0
CALL
IF
SLOOP
ALIGNRP
EIF
PUSHB_1
 0
CALL
IF
PUSHB_1
 10
LOOPCALL
EIF
ENDF
FDEF
CALL
ENDF
FDEF
CALL
PUSHB_1
 2
LOOPCALL
ENDF
FDEF
PUSHB_1
 2
LOOPCALL
ENDF
FDEF
PUSHB_1
 1
DIV
PUSHB_1
 0
SWAP
WS
PUSHB_2
 1
 3
CINDEX
WS
DUP
GC[cur]
DUP
ROUND[Grey]
SUB
ABS
PUSHB_1
 3
CINDEX
GC[cur]
DUP
ROUND[Grey]
DUP
PUSHB_1
 4
RS

StartChar: .notdef
Encoding: 65536 -1 0
Width: 1536
Flags: W
LayerCount: 2
Fore
SplineSet
256 0 m 1,0,-1
 256 1280 l 1,1,-1
 1280 1280 l 1,2,-1
 1280 0 l 1,3,-1
 256 0 l 1,0,-1
1247 33 m 1,4,-1
 1247 1247 l 1,5,-1
 289 1247 l 1,6,-1
 289 33 l 1,7,-1
 1247 33 l 1,4,-1
EndSplineSet
EndChar

StartChar: exclam
Encoding: 33 33 4
Width: 2048
GlyphClass: 2
Flags: W
LayerCount: 2
Fore
SplineSet
154 471 m 2,0,1
 137 471 137 471 126 484 c 128,-1,2
 115 497 115 497 115 512 c 256,3,4
 115 527 115 527 126 540 c 128,-1,5
 137 553 137 553 154 553 c 2,6,-1
 1708 553 l 1,7,8
 1630 609 1630 609 1570 682.5 c 128,-1,9
 1510 756 1510 756 1470 840.5 c 128,-1,10
 1430 925 1430 925 1413 1020 c 1,11,12
 1413 1047 1413 1047 1434 1047 c 2,13,-1
 1475 1047 l 2,14,15
 1482 1047 1482 1047 1487.5 1041 c 128,-1,16
 1493 1035 1493 1035 1495 1028 c 0,17,18
 1512 940 1512 940 1548.5 864.5 c 128,-1,19
 1585 789 1585 789 1640 724 c 128,-1,20
 1695 659 1695 659 1763 612 c 128,-1,21
 1831 565 1831 565 1917 535 c 1,22,23
 1931 526 1931 526 1931 512 c 0,24,25
 1931 496 1931 496 1917 492 c 0,26,27
 1810 455 1810 455 1721 381.5 c 128,-1,28
 1632 308 1632 308 1574 208.5 c 128,-1,29
 1516 109 1516 109 1495 -4 c 0,30,31
 1493 -11 1493 -11 1487 -17 c 128,-1,32
 1481 -23 1481 -23 1475 -23 c 2,33,-1
 1434 -23 l 2,34,35
 1413 -23 1413 -23 1413 4 c 1,36,37
 1439 144 1439 144 1517 267.5 c 128,-1,38
 1595 391 1595 391 1708 471 c 1,39,-1
 154 471 l 2,0,1
EndSplineSet
EndChar

StartChar: quotedbl
Encoding: 34 34 5
Width: 1024
GlyphClass: 2
Flags: W
LayerCount: 2
Fore
SplineSet
471 -360 m 2,0,-1
 471 1139 l 1,1,2
 425 1063 425 1063 362.5 1005 c 128,-1,3
 300 947 300 947 223.5 906.5 c 128,-1,4
 147 866 147 866 63 848 c 1,5,6
 59 846 59 846 57 846 c 0,7,8
 35 846 35 846 35 864 c 2,9,-1
 35 909 l 2,10,11
 35 923 35 923 49 928 c 1,12,13
 164 954 164 954 258 1021.5 c 128,-1,14
 352 1089 352 1089 412 1186.5 c 128,-1,15
 472 1284 472 1284 489 1403 c 1,16,17
 493 1412 493 1412 499 1416.5 c 128,-1,18
 505 1421 505 1421 512 1421 c 256,19,20
 519 1421 519 1421 526 1415.5 c 128,-1,21
 533 1410 533 1410 535 1403 c 1,22,23
 559 1229 559 1229 680 1098 c 128,-1,24
 801 967 801 967 975 928 c 0,25,26
 981 926 981 926 985 919.5 c 128,-1,27
 989 913 989 913 989 909 c 2,28,-1
 989 864 l 2,29,30
 989 858 989 858 982 852 c 128,-1,31
 975 846 975 846 967 846 c 0,32,33
 965 846 965 846 961 848 c 1,34,35
 877 866 877 866 800.5 906.5 c 128,-1,36
 724 947 724 947 661.5 1005 c 128,-1,37
 599 1063 599 1063 553 1139 c 1,38,-1
 553 -360 l 2,39,40
 553 -376 553 -376 540 -386.5 c 128,-1,41
 527 -397 527 -397 512 -397 c 256,42,43
 497 -397 497 -397 484 -386.5 c 128,-1,44
 471 -376 471 -376 471 -360 c 2,0,-1
EndSplineSet
EndChar

StartChar: numbersign
Encoding: 35 35 6
Width: 1024
GlyphClass: 2
Flags: W
LayerCount: 2
Fore
SplineSet
489 -379 m 1,0,1
 472 -260 472 -260 412 -162.5 c 128,-1,2
 352 -65 352 -65 258 2.5 c 128,-1,3
 164 70 164 70 49 96 c 1,4,5
 35 101 35 101 35 115 c 2,6,-1
 35 160 l 2,7,8
 35 167 35 167 43 172.5 c 128,-1,9
 51 178 51 178 57 178 c 0,10,11
 59 178 59 178 63 176 c 1,12,13
 190 149 190 149 296.5 73 c 128,-1,14
 403 -3 403 -3 471 -115 c 1,15,-1
 471 1384 l 2,16,17
 471 1400 471 1400 484 1410.5 c 128,-1,18
 497 1421 497 1421 512 1421 c 256,19,20
 527 1421 527 1421 540 1410.5 c 128,-1,21
 553 1400 553 1400 553 1384 c 2,22,-1
 553 -115 l 1,23,24
 621 -3 621 -3 728.5 73 c 128,-1,25
 836 149 836 149 961 176 c 1,26,27
 965 178 965 178 967 178 c 0,28,29
 975 178 975 178 982 173 c 128,-1,30
 989 168 989 168 989 160 c 2,31,-1
 989 115 l 2,32,33
 989 111 989 111 985 104.5 c 128,-1,34
 981 98 981 98 975 96 c 0,35,36
 803 59 803 59 681 -73 c 128,-1,37
 559 -205 559 -205 535 -379 c 1,38,39
 530 -397 530 -397 512 -397 c 256,40,41
 494 -397 494 -397 489 -379 c 1,0,1
EndSplineSet
EndChar

StartChar: dollar
Encoding: 36 36 7
Width: 2048
GlyphClass: 2
Flags: W
LayerCount: 2
Fore
SplineSet
551 -4 m 1,0,1
 536 80 536 80 499.5 158 c 128,-1,2
 463 236 463 236 408 301 c 128,-1,3
 353 366 353 366 283 415 c 128,-1,4
 213 464 213 464 131 492 c 1,5,6
 115 495 115 495 115 512 c 0,7,8
 115 527 115 527 131 535 c 1,9,10
 214 564 214 564 283.5 611.5 c 128,-1,11
 353 659 353 659 408 724 c 128,-1,12
 463 789 463 789 499.5 867 c 128,-1,13
 536 945 536 945 551 1028 c 1,14,15
 556 1047 556 1047 571 1047 c 2,16,-1
 612 1047 l 2,17,18
 633 1047 633 1047 633 1020 c 1,19,20
 610 884 610 884 532.5 761 c 128,-1,21
 455 638 455 638 338 553 c 1,22,-1
 1708 553 l 1,23,24
 1630 609 1630 609 1570 682.5 c 128,-1,25
 1510 756 1510 756 1470 840.5 c 128,-1,26
 1430 925 1430 925 1413 1020 c 1,27,28
 1413 1047 1413 1047 1434 1047 c 2,29,-1
 1475 1047 l 2,30,31
 1482 1047 1482 1047 1487.5 1041 c 128,-1,32
 1493 1035 1493 1035 1495 1028 c 0,33,34
 1512 940 1512 940 1548.5 864.5 c 128,-1,35
 1585 789 1585 789 1640 724 c 128,-1,36
 1695 659 1695 659 1763 612 c 128,-1,37
 1831 565 1831 565 1917 535 c 1,38,39
 1931 526 1931 526 1931 512 c 0,40,41
 1931 496 1931 496 1917 492 c 0,42,43
 1810 455 1810 455 1721 381.5 c 128,-1,44
 1632 308 1632 308 1574 208.5 c 128,-1,45
 1516 109 1516 109 1495 -4 c 0,46,47
 1493 -11 1493 -11 1487 -17 c 128,-1,48
 1481 -23 1481 -23 1475 -23 c 2,49,-1
 1434 -23 l 2,50,51
 1413 -23 1413 -23 1413 4 c 1,52,53
 1439 144 1439 144 1517 267.5 c 128,-1,54
 1595 391 1595 391 1708 471 c 1,55,-1
 338 471 l 1,56,57
 453 389 453 389 531.5 264.5 c 128,-1,58
 610 140 610 140 633 4 c 1,59,60
 633 -23 633 -23 612 -23 c 2,61,-1
 571 -23 l 2,62,63
 556 -23 556 -23 551 -4 c 1,0,1
EndSplineSet
EndChar

StartChar: percent
Encoding: 37 37 8
Width: 2048
GlyphClass: 2
Flags: W
LayerCount: 2
Fore
SplineSet
156 -395 m 0,0,1
 139 -395 139 -395 127 -383 c 128,-1,2
 115 -371 115 -371 115 -354 c 0,3,4
 115 -338 115 -338 125 -328 c 2,5,-1
 1739 1286 l 1,6,7
 1671 1276 1671 1276 1616 1276 c 0,8,9
 1506 1276 1506 1276 1399 1310.5 c 128,-1,10
 1292 1345 1292 1345 1198 1409 c 1,11,12
 1190 1412 1190 1412 1190 1425 c 0,13,14
 1190 1432 1190 1432 1194 1440 c 1,15,-1
 1225 1468 l 1,16,17
 1228 1475 1228 1475 1239 1475 c 0,18,19
 1245 1475 1245 1475 1249 1470 c 1,20,21
 1422 1354 1422 1354 1618 1354 c 0,22,23
 1766 1354 1766 1354 1903 1421 c 1,24,-1
 1909 1421 l 2,25,26
 1919 1421 1919 1421 1925 1415 c 128,-1,27
 1931 1409 1931 1409 1931 1399 c 0,28,29
 1931 1395 1931 1395 1929 1391 c 0,30,31
 1864 1258 1864 1258 1864 1108 c 0,32,33
 1864 912 1864 912 1980 739 c 0,34,35
 1985 733 1985 733 1985 729 c 0,36,37
 1985 719 1985 719 1978 715 c 1,38,-1
 1950 684 l 1,39,40
 1942 680 1942 680 1935 680 c 0,41,42
 1922 680 1922 680 1919 688 c 1,43,44
 1855 782 1855 782 1820.5 889 c 128,-1,45
 1786 996 1786 996 1786 1106 c 0,46,47
 1786 1161 1786 1161 1796 1229 c 1,48,-1
 182 -385 l 2,49,50
 172 -395 172 -395 156 -395 c 0,0,1
EndSplineSet
EndChar

StartChar: ampersand
Encoding: 38 38 9
Width: 2048
GlyphClass: 2
Flags: W
LayerCount: 2
Fore
SplineSet
1190 -401 m 0,0,1
 1190 -388 1190 -388 1198 -385 c 1,2,3
 1292 -321 1292 -321 1399 -286.5 c 128,-1,4
 1506 -252 1506 -252 1616 -252 c 0,5,6
 1671 -252 1671 -252 1739 -262 c 1,7,-1
 125 1352 l 2,8,9
 115 1362 115 1362 115 1378 c 0,10,11
 115 1395 115 1395 126 1407 c 128,-1,12
 137 1419 137 1419 156 1419 c 0,13,14
 172 1419 172 1419 182 1409 c 2,15,-1
 1796 -205 l 1,16,17
 1786 -137 1786 -137 1786 -82 c 0,18,19
 1786 -7 1786 -7 1801.5 65 c 128,-1,20
 1817 137 1817 137 1846 204.5 c 128,-1,21
 1875 272 1875 272 1919 336 c 1,22,23
 1922 344 1922 344 1935 344 c 0,24,25
 1942 344 1942 344 1950 340 c 1,26,-1
 1978 309 l 1,27,28
 1985 306 1985 306 1985 295 c 0,29,30
 1985 289 1985 289 1980 285 c 1,31,32
 1864 112 1864 112 1864 -84 c 0,33,34
 1864 -234 1864 -234 1929 -367 c 0,35,36
 1931 -371 1931 -371 1931 -375 c 0,37,38
 1931 -384 1931 -384 1924.5 -390.5 c 128,-1,39
 1918 -397 1918 -397 1909 -397 c 2,40,-1
 1903 -397 l 1,41,42
 1766 -330 1766 -330 1618 -330 c 0,43,44
 1422 -330 1422 -330 1249 -446 c 1,45,46
 1245 -451 1245 -451 1239 -451 c 0,47,48
 1228 -451 1228 -451 1225 -444 c 1,49,-1
 1194 -416 l 1,50,51
 1190 -408 1190 -408 1190 -401 c 0,0,1
EndSplineSet
EndChar

StartChar: quotesingle
Encoding: 39 39 10
Width: 1591
GlyphClass: 2
Flags: W
LayerCount: 2
Fore
SplineSet
154 74 m 2,0,1
 137 74 137 74 126 86 c 128,-1,2
 115 98 115 98 115 115 c 0,3,4
 115 130 115 130 126 143 c 128,-1,5
 137 156 137 156 154 156 c 2,6,-1
 1440 156 l 2,7,8
 1455 156 1455 156 1466 143 c 128,-1,9
 1477 130 1477 130 1477 115 c 0,10,11
 1477 98 1477 98 1466 86 c 128,-1,12
 1455 74 1455 74 1440 74 c 2,13,-1
 154 74 l 2,0,1
143 512 m 0,14,15
 121 512 121 512 115 563 c 1,16,-1
 115 575 l 2,17,18
 115 724 115 724 212 837 c 128,-1,19
 309 950 309 950 455 950 c 0,20,21
 547 950 547 950 623 908.5 c 128,-1,22
 699 867 699 867 802.5 786.5 c 128,-1,23
 906 706 906 706 977.5 666.5 c 128,-1,24
 1049 627 1049 627 1137 627 c 0,25,26
 1249 627 1249 627 1334 708 c 128,-1,27
 1419 789 1419 789 1419 899 c 1,28,29
 1425 950 1425 950 1448 950 c 256,30,31
 1471 950 1471 950 1477 899 c 1,32,-1
 1477 887 l 2,33,34
 1477 789 1477 789 1433 703 c 128,-1,35
 1389 617 1389 617 1311.5 564.5 c 128,-1,36
 1234 512 1234 512 1137 512 c 0,37,38
 1045 512 1045 512 973 551.5 c 128,-1,39
 901 591 901 591 796 673 c 128,-1,40
 691 755 691 755 618 795.5 c 128,-1,41
 545 836 545 836 455 836 c 0,42,43
 381 836 381 836 316 799 c 128,-1,44
 251 762 251 762 211.5 699.5 c 128,-1,45
 172 637 172 637 172 563 c 1,46,47
 166 512 166 512 143 512 c 0,14,15
EndSplineSet
EndChar

StartChar: parenleft
Encoding: 40 40 11
Width: 2048
GlyphClass: 2
Flags: W
LayerCount: 2
Fore
SplineSet
131 492 m 0,0,1
 115 495 115 495 115 512 c 0,2,3
 115 527 115 527 131 535 c 1,4,5
 239 562 239 562 334.5 610 c 128,-1,6
 430 658 430 658 514 725.5 c 128,-1,7
 598 793 598 793 665.5 878 c 128,-1,8
 733 963 733 963 782 1063 c 1,9,10
 786 1075 786 1075 799 1075 c 2,11,-1
 840 1075 l 2,12,13
 848 1075 848 1075 854 1068 c 128,-1,14
 860 1061 860 1061 860 1053 c 0,15,16
 860 1019 860 1019 778.5 907.5 c 128,-1,17
 697 796 697 796 653 752 c 1,18,-1
 1894 752 l 2,19,20
 1910 752 1910 752 1920.5 739 c 128,-1,21
 1931 726 1931 726 1931 711 c 0,22,23
 1931 694 1931 694 1920.5 682 c 128,-1,24
 1910 670 1910 670 1894 670 c 2,25,-1
 563 670 l 1,26,27
 443 571 443 571 301 512 c 1,28,29
 443 453 443 453 563 354 c 1,30,-1
 1894 354 l 2,31,32
 1910 354 1910 354 1920.5 342 c 128,-1,33
 1931 330 1931 330 1931 313 c 0,34,35
 1931 298 1931 298 1920.5 285 c 128,-1,36
 1910 272 1910 272 1894 272 c 2,37,-1
 653 272 l 1,38,39
 691 235 691 235 775.5 121 c 128,-1,40
 860 7 860 7 860 -29 c 0,41,42
 860 -51 860 -51 840 -51 c 2,43,-1
 799 -51 l 2,44,45
 786 -51 786 -51 782 -39 c 1,46,47
 718 91 718 91 619.5 198.5 c 128,-1,48
 521 306 521 306 395.5 381.5 c 128,-1,49
 270 457 270 457 131 492 c 0,0,1
EndSplineSet
EndChar

StartChar: parenright
Encoding: 41 41 12
Width: 2048
GlyphClass: 2
Flags: W
LayerCount: 2
Fore
SplineSet
154 272 m 2,0,1
 137 272 137 272 126 285 c 128,-1,2
 115 298 115 298 115 313 c 0,3,4
 115 330 115 330 126 342 c 128,-1,5
 137 354 137 354 154 354 c 2,6,-1
 1483 354 l 1,7,8
 1603 453 1603 453 1745 512 c 1,9,10
 1603 571 1603 571 1483 670 c 1,11,-1
 154 670 l 2,12,13
 137 670 137 670 126 682 c 128,-1,14
 115 694 115 694 115 711 c 0,15,16
 115 726 115 726 126 739 c 128,-1,17
 137 752 137 752 154 752 c 2,18,-1
 1393 752 l 1,19,20
 1342 805 1342 805 1264 912 c 128,-1,21
 1186 1019 1186 1019 1186 1053 c 0,22,23
 1186 1062 1186 1062 1191.5 1068.5 c 128,-1,24
 1197 1075 1197 1075 1206 1075 c 2,25,-1
 1247 1075 l 2,26,27
 1260 1075 1260 1075 1264 1063 c 1,28,29
 1315 963 1315 963 1380.5 880 c 128,-1,30
 1446 797 1446 797 1532 727 c 128,-1,31
 1618 657 1618 657 1713 610 c 128,-1,32
 1808 563 1808 563 1917 535 c 1,33,34
 1931 526 1931 526 1931 512 c 0,35,36
 1931 496 1931 496 1917 492 c 0,37,38
 1704 438 1704 438 1533.5 299 c 128,-1,39
 1363 160 1363 160 1264 -39 c 1,40,41
 1260 -51 1260 -51 1247 -51 c 2,42,-1
 1206 -51 l 2,43,44
 1186 -51 1186 -51 1186 -29 c 0,45,46
 1186 -5 1186 -5 1226.5 57.5 c 128,-1,47
 1267 120 1267 120 1315.5 181.5 c 128,-1,48
 1364 243 1364 243 1393 272 c 1,49,-1
 154 272 l 2,0,1
EndSplineSet
EndChar

StartChar: asterisk
Encoding: 42 42 13
Width: 1251
GlyphClass: 2
Flags: W
LayerCount: 2
Fore
SplineSet
385 -360 m 2,0,-1
 385 883 l 1,1,2
 340 838 340 838 229.5 757 c 128,-1,3
 119 676 119 676 84 676 c 0,4,5
 77 676 77 676 69 682.5 c 128,-1,6
 61 689 61 689 61 694 c 2,7,-1
 61 739 l 2,8,9
 61 747 61 747 74 754 c 0,10,11
 270 852 270 852 409.5 1022 c 128,-1,12
 549 1192 549 1192 602 1403 c 0,13,14
 606 1421 606 1421 625 1421 c 0,15,16
 632 1421 632 1421 638.5 1416 c 128,-1,17
 645 1411 645 1411 647 1403 c 0,18,19
 683 1259 683 1259 757 1137.5 c 128,-1,20
 831 1016 831 1016 937.5 917.5 c 128,-1,21
 1044 819 1044 819 1176 754 c 0,22,23
 1188 748 1188 748 1188 739 c 2,24,-1
 1188 694 l 2,25,26
 1188 687 1188 687 1180 681.5 c 128,-1,27
 1172 676 1172 676 1165 676 c 0,28,29
 1130 676 1130 676 1022 756 c 128,-1,30
 914 836 914 836 864 883 c 1,31,-1
 864 -360 l 2,32,33
 864 -376 864 -376 852 -386.5 c 128,-1,34
 840 -397 840 -397 823 -397 c 0,35,36
 808 -397 808 -397 795 -386.5 c 128,-1,37
 782 -376 782 -376 782 -360 c 2,38,-1
 782 973 l 1,39,40
 683 1095 683 1095 625 1237 c 1,41,42
 569 1098 569 1098 467 973 c 1,43,-1
 467 -360 l 2,44,45
 467 -376 467 -376 454 -386.5 c 128,-1,46
 441 -397 441 -397 426 -397 c 256,47,48
 411 -397 411 -397 398 -386.5 c 128,-1,49
 385 -376 385 -376 385 -360 c 2,0,-1
EndSplineSet
EndChar

StartChar: plus
Encoding: 43 43 14
Width: 1251
GlyphClass: 2
Flags: W
LayerCount: 2
Fore
SplineSet
602 -379 m 0,0,1
 549 -167 549 -167 409.5 3 c 128,-1,2
 270 173 270 173 74 270 c 0,3,4
 61 276 61 276 61 285 c 2,5,-1
 61 330 l 2,6,7
 61 337 61 337 69 342.5 c 128,-1,8
 77 348 77 348 84 348 c 0,9,10
 119 348 119 348 233 264.5 c 128,-1,11
 347 181 347 181 385 141 c 1,12,-1
 385 1384 l 2,13,14
 385 1400 385 1400 398 1410.5 c 128,-1,15
 411 1421 411 1421 426 1421 c 256,16,17
 441 1421 441 1421 454 1410.5 c 128,-1,18
 467 1400 467 1400 467 1384 c 2,19,-1
 467 51 l 1,20,21
 568 -74 568 -74 625 -213 c 1,22,23
 682 -71 682 -71 782 51 c 1,24,-1
 782 1384 l 2,25,26
 782 1400 782 1400 795 1410.5 c 128,-1,27
 808 1421 808 1421 823 1421 c 0,28,29
 840 1421 840 1421 852 1410.5 c 128,-1,30
 864 1400 864 1400 864 1384 c 2,31,-1
 864 141 l 1,32,33
 905 182 905 182 1017.5 265 c 128,-1,34
 1130 348 1130 348 1165 348 c 0,35,36
 1172 348 1172 348 1180 343 c 128,-1,37
 1188 338 1188 338 1188 330 c 2,38,-1
 1188 285 l 2,39,40
 1188 276 1188 276 1176 270 c 0,41,42
 1044 205 1044 205 937.5 106.5 c 128,-1,43
 831 8 831 8 757 -113.5 c 128,-1,44
 683 -235 683 -235 647 -379 c 0,45,46
 643 -397 643 -397 625 -397 c 0,47,48
 606 -397 606 -397 602 -379 c 0,0,1
EndSplineSet
EndChar

StartChar: comma
Encoding: 44 44 15
Width: 2048
GlyphClass: 2
Flags: W
LayerCount: 2
Fore
SplineSet
86 492 m 1,0,1
 70 495 70 495 70 512 c 0,2,3
 70 527 70 527 86 535 c 1,4,5
 269 605 269 605 409.5 743 c 128,-1,6
 550 881 550 881 623 1061 c 0,7,8
 628 1075 628 1075 641 1075 c 2,9,-1
 682 1075 l 2,10,11
 689 1075 689 1075 695.5 1068.5 c 128,-1,12
 702 1062 702 1062 702 1053 c 0,13,14
 702 1017 702 1017 634.5 910 c 128,-1,15
 567 803 567 803 522 752 c 1,16,-1
 1524 752 l 1,17,18
 1475 811 1475 811 1409 914 c 128,-1,19
 1343 1017 1343 1017 1343 1053 c 0,20,21
 1343 1061 1343 1061 1350 1068 c 128,-1,22
 1357 1075 1357 1075 1364 1075 c 2,23,-1
 1405 1075 l 2,24,25
 1418 1075 1418 1075 1423 1061 c 0,26,27
 1473 939 1473 939 1552 837.5 c 128,-1,28
 1631 736 1631 736 1734 659.5 c 128,-1,29
 1837 583 1837 583 1962 535 c 1,30,31
 1976 526 1976 526 1976 512 c 0,32,33
 1976 496 1976 496 1962 492 c 1,34,35
 1780 422 1780 422 1639.5 284.5 c 128,-1,36
 1499 147 1499 147 1423 -37 c 0,37,38
 1418 -51 1418 -51 1405 -51 c 2,39,-1
 1364 -51 l 2,40,41
 1357 -51 1357 -51 1350 -43 c 128,-1,42
 1343 -35 1343 -35 1343 -29 c 0,43,44
 1343 9 1343 9 1412 115.5 c 128,-1,45
 1481 222 1481 222 1524 272 c 1,46,-1
 522 272 l 1,47,48
 562 228 562 228 632 118.5 c 128,-1,49
 702 9 702 9 702 -29 c 0,50,51
 702 -36 702 -36 695.5 -43.5 c 128,-1,52
 689 -51 689 -51 682 -51 c 2,53,-1
 641 -51 l 2,54,55
 628 -51 628 -51 623 -37 c 0,56,57
 549 145 549 145 408.5 283 c 128,-1,58
 268 421 268 421 86 492 c 1,0,1
225 512 m 1,59,60
 347 446 347 446 444 354 c 1,61,-1
 1602 354 l 1,62,63
 1699 446 1699 446 1821 512 c 1,64,65
 1699 578 1699 578 1602 670 c 1,66,-1
 444 670 l 1,67,68
 347 578 347 578 225 512 c 1,59,60
EndSplineSet
EndChar

StartChar: hyphen
Encoding: 45 45 16
Width: 2048
GlyphClass: 2
Flags: W
LayerCount: 2
Fore
SplineSet
111 680 m 0,0,1
 104 680 104 680 96 684 c 1,2,-1
 68 715 l 1,3,4
 61 718 61 718 61 729 c 0,5,6
 61 735 61 735 66 739 c 1,7,8
 182 912 182 912 182 1108 c 0,9,10
 182 1258 182 1258 117 1391 c 0,11,12
 115 1395 115 1395 115 1399 c 0,13,14
 115 1408 115 1408 121.5 1414.5 c 128,-1,15
 128 1421 128 1421 137 1421 c 2,16,-1
 145 1421 l 1,17,18
 279 1354 279 1354 428 1354 c 0,19,20
 624 1354 624 1354 797 1470 c 1,21,22
 801 1475 801 1475 807 1475 c 0,23,24
 818 1475 818 1475 821 1468 c 1,25,-1
 852 1440 l 2,26,27
 856 1436 856 1436 856 1425 c 0,28,29
 856 1412 856 1412 848 1409 c 1,30,31
 784 1365 784 1365 716.5 1336 c 128,-1,32
 649 1307 649 1307 577 1291.5 c 128,-1,33
 505 1276 505 1276 430 1276 c 0,34,35
 375 1276 375 1276 307 1286 c 1,36,-1
 1921 -328 l 2,37,38
 1931 -338 1931 -338 1931 -354 c 0,39,40
 1931 -372 1931 -372 1919 -383.5 c 128,-1,41
 1907 -395 1907 -395 1890 -395 c 0,42,43
 1874 -395 1874 -395 1864 -385 c 2,44,-1
 250 1229 l 1,45,46
 260 1161 260 1161 260 1106 c 0,47,48
 260 996 260 996 225.5 889 c 128,-1,49
 191 782 191 782 127 688 c 1,50,51
 124 680 124 680 111 680 c 0,0,1
EndSplineSet
EndChar

StartChar: period
Encoding: 46 46 17
Width: 2048
GlyphClass: 2
Flags: W
LayerCount: 2
Fore
SplineSet
115 -375 m 0,0,1
 115 -371 115 -371 117 -367 c 0,2,3
 182 -234 182 -234 182 -84 c 0,4,5
 182 112 182 112 66 285 c 0,6,7
 61 291 61 291 61 295 c 0,8,9
 61 306 61 306 68 309 c 1,10,-1
 96 340 l 1,11,12
 104 344 104 344 111 344 c 0,13,14
 124 344 124 344 127 336 c 1,15,16
 171 272 171 272 200 204.5 c 128,-1,17
 229 137 229 137 244.5 65 c 128,-1,18
 260 -7 260 -7 260 -82 c 0,19,20
 260 -137 260 -137 250 -205 c 1,21,-1
 1864 1409 l 2,22,23
 1874 1419 1874 1419 1890 1419 c 0,24,25
 1908 1419 1908 1419 1919.5 1408 c 128,-1,26
 1931 1397 1931 1397 1931 1378 c 0,27,28
 1931 1362 1931 1362 1921 1352 c 2,29,-1
 307 -262 l 1,30,31
 375 -252 375 -252 430 -252 c 0,32,33
 505 -252 505 -252 577 -267.5 c 128,-1,34
 649 -283 649 -283 716.5 -312 c 128,-1,35
 784 -341 784 -341 848 -385 c 1,36,37
 856 -388 856 -388 856 -401 c 0,38,39
 856 -408 856 -408 852 -416 c 1,40,-1
 821 -444 l 1,41,42
 818 -451 818 -451 807 -451 c 0,43,44
 801 -451 801 -451 797 -446 c 1,45,46
 624 -330 624 -330 428 -330 c 0,47,48
 279 -330 279 -330 145 -397 c 1,49,-1
 137 -397 l 2,50,51
 115 -397 115 -397 115 -375 c 0,0,1
EndSplineSet
EndChar

StartChar: slash
Encoding: 47 47 18
Width: 1591
GlyphClass: 2
Flags: W
LayerCount: 2
Fore
SplineSet
469 -23 m 0,0,1
 303 -23 303 -23 209 121.5 c 128,-1,2
 115 266 115 266 115 442 c 0,3,4
 115 552 115 552 156 659 c 128,-1,5
 197 766 197 766 279 835.5 c 128,-1,6
 361 905 361 905 475 905 c 0,7,8
 605 905 605 905 715 828 c 128,-1,9
 825 751 825 751 903 629 c 1,10,-1
 948 561 l 1,11,12
 1024 711 1024 711 1140 808 c 128,-1,13
 1256 905 1256 905 1407 905 c 0,14,15
 1446 905 1446 905 1477 897 c 1,16,-1
 1479 834 l 1,17,18
 1451 840 1451 840 1425 840 c 0,19,20
 1326 840 1326 840 1244.5 789 c 128,-1,21
 1163 738 1163 738 1101 656.5 c 128,-1,22
 1039 575 1039 575 999 481 c 1,23,-1
 1094 336 l 1,24,25
 1140 263 1140 263 1187 206 c 128,-1,26
 1234 149 1234 149 1295.5 109.5 c 128,-1,27
 1357 70 1357 70 1430 70 c 0,28,29
 1445 70 1445 70 1479 74 c 1,30,-1
 1479 -12 l 1,31,32
 1430 -23 1430 -23 1401 -23 c 0,33,34
 1273 -23 1273 -23 1161 55.5 c 128,-1,35
 1049 134 1049 134 973 254 c 1,36,-1
 928 322 l 1,37,38
 879 226 879 226 812.5 148.5 c 128,-1,39
 746 71 746 71 658.5 24 c 128,-1,40
 571 -23 571 -23 469 -23 c 0,0,1
451 43 m 0,41,42
 595 43 595 43 703 146.5 c 128,-1,43
 811 250 811 250 877 401 c 1,44,-1
 782 547 l 1,45,46
 710 664 710 664 629.5 738.5 c 128,-1,47
 549 813 549 813 446 813 c 0,48,49
 356 813 356 813 293.5 756.5 c 128,-1,50
 231 700 231 700 199.5 613.5 c 128,-1,51
 168 527 168 527 168 440 c 0,52,53
 168 351 168 351 198.5 258.5 c 128,-1,54
 229 166 229 166 293 104.5 c 128,-1,55
 357 43 357 43 451 43 c 0,41,42
EndSplineSet
EndChar

StartChar: zero
Encoding: 48 48 19
Width: 563
GlyphClass: 2
Flags: W
LayerCount: 2
Fore
SplineSet
72 111 m 0,0,1
 59 115 59 115 59 131 c 1,2,-1
 309 1061 l 1,3,4
 321 1099 321 1099 350 1122 c 128,-1,5
 379 1145 379 1145 416 1145 c 0,6,7
 464 1145 464 1145 500.5 1113.5 c 128,-1,8
 537 1082 537 1082 537 1034 c 0,9,10
 537 1013 537 1013 526 987 c 2,11,-1
 156 102 l 1,12,13
 149 88 149 88 137 88 c 0,14,15
 126 88 126 88 102.5 98 c 128,-1,16
 79 108 79 108 72 111 c 0,0,1
EndSplineSet
EndChar

StartChar: one
Encoding: 49 49 20
Width: 2048
GlyphClass: 2
Flags: W
LayerCount: 2
Fore
SplineSet
504 -23 m 0,0,1
 388 -23 388 -23 298.5 45 c 128,-1,2
 209 113 209 113 162 221 c 128,-1,3
 115 329 115 329 115 442 c 0,4,5
 115 529 115 529 142.5 612 c 128,-1,6
 170 695 170 695 222 761 c 128,-1,7
 274 827 274 827 347.5 866 c 128,-1,8
 421 905 421 905 510 905 c 0,9,10
 602 905 602 905 688 870 c 128,-1,11
 774 835 774 835 845.5 777 c 128,-1,12
 917 719 917 719 979 643 c 1,13,-1
 1040 561 l 1,14,15
 1101 658 1101 658 1175 734.5 c 128,-1,16
 1249 811 1249 811 1342.5 858 c 128,-1,17
 1436 905 1436 905 1542 905 c 0,18,19
 1631 905 1631 905 1704 865.5 c 128,-1,20
 1777 826 1777 826 1828 758 c 128,-1,21
 1879 690 1879 690 1905 607.5 c 128,-1,22
 1931 525 1931 525 1931 442 c 0,23,24
 1931 326 1931 326 1882.5 218.5 c 128,-1,25
 1834 111 1834 111 1744.5 44 c 128,-1,26
 1655 -23 1655 -23 1536 -23 c 0,27,28
 1402 -23 1402 -23 1281.5 49 c 128,-1,29
 1161 121 1161 121 1067 240 c 1,30,-1
 1006 322 l 1,31,32
 912 169 912 169 784.5 73 c 128,-1,33
 657 -23 657 -23 504 -23 c 0,0,1
483 49 m 0,34,35
 743 49 743 49 948 397 c 1,36,-1
 840 535 l 1,37,38
 746 659 746 659 665 729 c 128,-1,39
 584 799 584 799 477 799 c 0,40,41
 386 799 386 799 315.5 747.5 c 128,-1,42
 245 696 245 696 206.5 613 c 128,-1,43
 168 530 168 530 168 440 c 0,44,45
 168 371 168 371 189.5 301.5 c 128,-1,46
 211 232 211 232 252 175 c 128,-1,47
 293 118 293 118 351.5 83.5 c 128,-1,48
 410 49 410 49 483 49 c 0,34,35
1206 348 m 1,49,50
 1300 224 1300 224 1381 154 c 128,-1,51
 1462 84 1462 84 1569 84 c 0,52,53
 1637 84 1637 84 1694 114 c 128,-1,54
 1751 144 1751 144 1792.5 195 c 128,-1,55
 1834 246 1834 246 1856 310 c 128,-1,56
 1878 374 1878 374 1878 442 c 0,57,58
 1878 537 1878 537 1840 627.5 c 128,-1,59
 1802 718 1802 718 1730.5 776 c 128,-1,60
 1659 834 1659 834 1563 834 c 0,61,62
 1303 834 1303 834 1098 485 c 1,63,-1
 1206 348 l 1,49,50
EndSplineSet
EndChar

StartChar: two
Encoding: 50 50 21
Width: 1364
GlyphClass: 2
Flags: W
LayerCount: 2
Fore
SplineSet
434 129 m 0,0,1
 588 0 588 0 799 0 c 2,2,-1
 1157 0 l 2,3,4
 1173 0 1173 0 1183.5 -12 c 128,-1,5
 1194 -24 1194 -24 1194 -41 c 0,6,7
 1194 -56 1194 -56 1183.5 -69 c 128,-1,8
 1173 -82 1173 -82 1157 -82 c 2,9,-1
 793 -82 l 2,10,11
 630 -82 630 -82 486 -4 c 128,-1,12
 342 74 342 74 256 210.5 c 128,-1,13
 170 347 170 347 170 512 c 256,14,15
 170 677 170 677 256 813.5 c 128,-1,16
 342 950 342 950 486 1028 c 128,-1,17
 630 1106 630 1106 793 1106 c 2,18,-1
 1157 1106 l 2,19,20
 1173 1106 1173 1106 1183.5 1093 c 128,-1,21
 1194 1080 1194 1080 1194 1065 c 0,22,23
 1194 1048 1194 1048 1183.5 1036 c 128,-1,24
 1173 1024 1173 1024 1157 1024 c 2,25,-1
 799 1024 l 2,26,27
 699 1024 699 1024 604.5 991 c 128,-1,28
 510 958 510 958 434 895 c 0,29,30
 359 832 359 832 306.5 737.5 c 128,-1,31
 254 643 254 643 254 553 c 1,32,-1
 1157 553 l 2,33,34
 1173 553 1173 553 1183.5 540 c 128,-1,35
 1194 527 1194 527 1194 512 c 256,36,37
 1194 497 1194 497 1183.5 484 c 128,-1,38
 1173 471 1173 471 1157 471 c 2,39,-1
 254 471 l 1,40,41
 254 382 254 382 306.5 287 c 128,-1,42
 359 192 359 192 434 129 c 0,0,1
EndSplineSet
EndChar

StartChar: three
Encoding: 51 51 22
Width: 1364
GlyphClass: 2
Flags: W
LayerCount: 2
Fore
SplineSet
209 -82 m 2,0,1
 192 -82 192 -82 181 -69 c 128,-1,2
 170 -56 170 -56 170 -41 c 0,3,4
 170 -24 170 -24 181 -12 c 128,-1,5
 192 0 192 0 209 0 c 2,6,-1
 565 0 l 2,7,8
 665 0 665 0 760.5 33 c 128,-1,9
 856 66 856 66 930 129 c 0,10,11
 977 168 977 168 1018.5 225.5 c 128,-1,12
 1060 283 1060 283 1085 347.5 c 128,-1,13
 1110 412 1110 412 1110 471 c 1,14,-1
 209 471 l 2,15,16
 192 471 192 471 181 484 c 128,-1,17
 170 497 170 497 170 512 c 256,18,19
 170 527 170 527 181 540 c 128,-1,20
 192 553 192 553 209 553 c 2,21,-1
 1110 553 l 1,22,23
 1110 612 1110 612 1085 676.5 c 128,-1,24
 1060 741 1060 741 1018.5 798.5 c 128,-1,25
 977 856 977 856 930 895 c 0,26,27
 776 1024 776 1024 565 1024 c 2,28,-1
 209 1024 l 2,29,30
 192 1024 192 1024 181 1036 c 128,-1,31
 170 1048 170 1048 170 1065 c 0,32,33
 170 1080 170 1080 181 1093 c 128,-1,34
 192 1106 192 1106 209 1106 c 2,35,-1
 571 1106 l 2,36,37
 734 1106 734 1106 878 1028 c 128,-1,38
 1022 950 1022 950 1108 813.5 c 128,-1,39
 1194 677 1194 677 1194 512 c 256,40,41
 1194 347 1194 347 1108 210.5 c 128,-1,42
 1022 74 1022 74 878 -4 c 128,-1,43
 734 -82 734 -82 571 -82 c 2,44,-1
 209 -82 l 2,0,1
EndSplineSet
EndChar

StartChar: four
Encoding: 52 52 23
Width: 1819
GlyphClass: 2
Flags: W
LayerCount: 2
Fore
SplineSet
160 0 m 2,0,1
 143 0 143 0 132 12 c 128,-1,2
 121 24 121 24 121 41 c 0,3,4
 121 51 121 51 127 63 c 2,5,-1
 874 1448 l 1,6,7
 887 1466 887 1466 909 1466 c 0,8,9
 933 1466 933 1466 944 1448 c 1,10,-1
 1692 63 l 2,11,12
 1698 51 1698 51 1698 41 c 0,13,14
 1698 24 1698 24 1687 12 c 128,-1,15
 1676 0 1676 0 1661 0 c 2,16,-1
 160 0 l 2,0,1
229 82 m 1,17,-1
 1589 82 l 1,18,-1
 909 1339 l 1,19,-1
 229 82 l 1,17,-1
EndSplineSet
EndChar

StartChar: five
Encoding: 53 53 24
Width: 1819
GlyphClass: 2
Flags: W
LayerCount: 2
Fore
SplineSet
874 -424 m 1,0,-1
 127 963 l 1,1,2
 121 972 121 972 121 983 c 0,3,4
 121 1000 121 1000 132 1012 c 128,-1,5
 143 1024 143 1024 160 1024 c 2,6,-1
 1661 1024 l 2,7,8
 1676 1024 1676 1024 1687 1012 c 128,-1,9
 1698 1000 1698 1000 1698 983 c 0,10,11
 1698 972 1698 972 1692 963 c 1,12,-1
 944 -424 l 1,13,14
 933 -442 933 -442 909 -442 c 0,15,16
 887 -442 887 -442 874 -424 c 1,0,-1
909 -315 m 1,17,-1
 1589 942 l 1,18,-1
 229 942 l 1,19,-1
 909 -315 l 1,17,-1
EndSplineSet
EndChar

StartChar: six
Encoding: 54 54 25
Width: 0
GlyphClass: 2
Flags: W
LayerCount: 2
Fore
SplineSet
285 -401 m 0,0,1
 285 -391 285 -391 289 -387 c 1,2,-1
 1231 1448 l 2,3,4
 1236 1456 1236 1456 1246 1461 c 128,-1,5
 1256 1466 1256 1466 1266 1466 c 0,6,7
 1283 1466 1283 1466 1295 1454 c 128,-1,8
 1307 1442 1307 1442 1307 1425 c 0,9,10
 1307 1415 1307 1415 1305 1411 c 2,11,-1
 360 -424 l 1,12,13
 349 -442 349 -442 326 -442 c 0,14,15
 309 -442 309 -442 297 -430 c 128,-1,16
 285 -418 285 -418 285 -401 c 0,0,1
EndSplineSet
EndChar

StartChar: seven
Encoding: 55 55 26
Width: 0
GlyphClass: 2
Flags: W
LayerCount: 2
Fore
SplineSet
115 168 m 2,0,-1
 115 856 l 2,1,2
 115 872 115 872 126.5 883.5 c 128,-1,3
 138 895 138 895 156 895 c 0,4,5
 172 895 172 895 184.5 883.5 c 128,-1,6
 197 872 197 872 197 856 c 2,7,-1
 197 553 l 1,8,-1
 215 553 l 2,9,10
 232 553 232 553 243 540 c 128,-1,11
 254 527 254 527 254 512 c 256,12,13
 254 497 254 497 243 484 c 128,-1,14
 232 471 232 471 215 471 c 2,15,-1
 197 471 l 1,16,-1
 197 168 l 2,17,18
 197 152 197 152 183.5 140.5 c 128,-1,19
 170 129 170 129 156 129 c 0,20,21
 140 129 140 129 127.5 140.5 c 128,-1,22
 115 152 115 152 115 168 c 2,0,-1
EndSplineSet
EndChar

StartChar: eight
Encoding: 56 56 27
Width: 1137
GlyphClass: 2
Flags: W
LayerCount: 2
Fore
SplineSet
532 -20 m 1,0,-1
 4 1366 l 2,1,2
 0 1374 0 1374 0 1380 c 0,3,4
 0 1397 0 1397 11 1409 c 128,-1,5
 22 1421 22 1421 41 1421 c 0,6,7
 70 1421 70 1421 80 1397 c 2,8,-1
 258 924 l 1,9,-1
 881 924 l 1,10,-1
 1061 1397 l 1,11,12
 1068 1421 1068 1421 1098 1421 c 0,13,14
 1115 1421 1115 1421 1127 1409 c 128,-1,15
 1139 1397 1139 1397 1139 1380 c 0,16,17
 1139 1375 1139 1375 1138.5 1372 c 128,-1,18
 1138 1369 1138 1369 1137 1366 c 2,19,-1
 608 -20 l 2,20,21
 598 -45 598 -45 569 -45 c 256,22,23
 540 -45 540 -45 532 -20 c 1,0,-1
569 111 m 1,24,-1
 848 842 l 1,25,-1
 291 842 l 1,26,-1
 569 111 l 1,24,-1
EndSplineSet
EndChar

StartChar: nine
Encoding: 57 57 28
Width: 1137
GlyphClass: 2
Flags: W
LayerCount: 2
Fore
SplineSet
154 0 m 2,0,1
 137 0 137 0 126 12 c 128,-1,2
 115 24 115 24 115 41 c 0,3,4
 115 56 115 56 126 69 c 128,-1,5
 137 82 137 82 154 82 c 2,6,-1
 940 82 l 1,7,-1
 940 670 l 1,8,-1
 180 670 l 2,9,10
 165 670 165 670 154 682 c 128,-1,11
 143 694 143 694 143 711 c 0,12,13
 143 726 143 726 154 739 c 128,-1,14
 165 752 165 752 180 752 c 2,15,-1
 940 752 l 1,16,-1
 940 1339 l 1,17,-1
 154 1339 l 2,18,19
 137 1339 137 1339 126 1352 c 128,-1,20
 115 1365 115 1365 115 1380 c 0,21,22
 115 1397 115 1397 126 1409 c 128,-1,23
 137 1421 137 1421 154 1421 c 2,24,-1
 985 1421 l 2,25,26
 1000 1421 1000 1421 1011 1410 c 128,-1,27
 1022 1399 1022 1399 1022 1384 c 2,28,-1
 1022 39 l 2,29,30
 1022 23 1022 23 1010.5 11.5 c 128,-1,31
 999 0 999 0 985 0 c 2,32,-1
 154 0 l 2,0,1
EndSplineSet
EndChar

StartChar: colon
Encoding: 58 58 29
Width: 1364
GlyphClass: 2
Flags: W
LayerCount: 2
Fore
SplineSet
154 647 m 2,0,1
 137 647 137 647 126 660 c 128,-1,2
 115 673 115 673 115 688 c 0,3,4
 115 705 115 705 126 717 c 128,-1,5
 137 729 137 729 154 729 c 2,6,-1
 1212 729 l 2,7,8
 1227 729 1227 729 1238 718 c 128,-1,9
 1249 707 1249 707 1249 692 c 2,10,-1
 1249 219 l 2,11,12
 1249 204 1249 204 1237 193 c 128,-1,13
 1225 182 1225 182 1208 182 c 0,14,15
 1193 182 1193 182 1180 193 c 128,-1,16
 1167 204 1167 204 1167 219 c 2,17,-1
 1167 647 l 1,18,-1
 154 647 l 2,0,1
EndSplineSet
EndChar

StartChar: semicolon
Encoding: 59 59 30
Width: 1024
GlyphClass: 2
Flags: W
LayerCount: 2
Fore
SplineSet
227 -119 m 0,0,1
 227 -113 227 -113 229 -111 c 1,2,-1
 274 47 l 1,3,4
 163 148 163 148 127.5 321 c 128,-1,5
 92 494 92 494 92 705 c 0,6,7
 92 1007 92 1007 177 1236.5 c 128,-1,8
 262 1466 262 1466 512 1466 c 0,9,10
 598 1466 598 1466 676 1423 c 1,11,-1
 715 1550 l 1,12,13
 722 1581 722 1581 754 1581 c 0,14,15
 771 1581 771 1581 783 1569 c 128,-1,16
 795 1557 795 1557 795 1540 c 2,17,-1
 795 1532 l 1,18,-1
 748 1372 l 1,19,20
 824 1301 824 1301 865 1189.5 c 128,-1,21
 906 1078 906 1078 918 957.5 c 128,-1,22
 930 837 930 837 930 705 c 0,23,24
 930 528 930 528 900.5 361.5 c 128,-1,25
 871 195 871 195 778 75 c 128,-1,26
 685 -45 685 -45 512 -45 c 0,27,28
 420 -45 420 -45 344 -2 c 1,29,-1
 309 -129 l 1,30,31
 297 -160 297 -160 268 -160 c 0,32,33
 253 -160 253 -160 240 -147 c 128,-1,34
 227 -134 227 -134 227 -119 c 0,0,1
365 68 m 1,35,36
 431 8 431 8 512 8 c 0,37,38
 607 8 607 8 664 86.5 c 128,-1,39
 721 165 721 165 747 285 c 128,-1,40
 773 405 773 405 778.5 511.5 c 128,-1,41
 784 618 784 618 784 739 c 0,42,43
 784 917 784 917 773 1054 c 128,-1,44
 762 1191 762 1191 719 1278 c 1,45,-1
 365 68 l 1,35,36
303 150 m 1,46,-1
 657 1356 l 1,47,48
 590 1413 590 1413 512 1413 c 0,49,50
 416 1413 416 1413 359 1342.5 c 128,-1,51
 302 1272 302 1272 276.5 1168 c 128,-1,52
 251 1064 251 1064 244.5 960 c 128,-1,53
 238 856 238 856 238 739 c 0,54,55
 238 546 238 546 249 396.5 c 128,-1,56
 260 247 260 247 303 150 c 1,46,-1
EndSplineSet
EndChar

StartChar: less
Encoding: 60 60 31
Width: 1479
GlyphClass: 2
Flags: W
LayerCount: 2
Fore
SplineSet
119 158 m 0,0,1
 108 158 108 158 99 167 c 128,-1,2
 90 176 90 176 90 186 c 0,3,4
 90 199 90 199 100.5 205 c 128,-1,5
 111 211 111 211 133 217 c 1,6,7
 125 229 125 229 125 240 c 0,8,9
 125 244 125 244 129 252 c 1,10,-1
 147 268 l 2,11,12
 150 272 150 272 160 272 c 0,13,14
 167 272 167 272 171.5 267 c 128,-1,15
 176 262 176 262 180 253 c 128,-1,16
 184 244 184 244 186 240 c 1,17,18
 192 243 192 243 204 247.5 c 128,-1,19
 216 252 216 252 223 252 c 0,20,21
 234 252 234 252 243 243 c 128,-1,22
 252 234 252 234 252 223 c 0,23,24
 252 210 252 210 235.5 202.5 c 128,-1,25
 219 195 219 195 205 190 c 1,26,27
 276 8 276 8 397 8 c 0,28,29
 477 8 477 8 500.5 177.5 c 128,-1,30
 524 347 524 347 524 520 c 2,31,-1
 524 911 l 2,32,33
 524 1391 524 1391 342 1391 c 0,34,35
 271 1391 271 1391 227.5 1330 c 128,-1,36
 184 1269 184 1269 184 1198 c 0,37,38
 184 1163 184 1163 201.5 1141 c 128,-1,39
 219 1119 219 1119 279.5 1055 c 128,-1,40
 340 991 340 991 368.5 940.5 c 128,-1,41
 397 890 397 890 397 825 c 0,42,43
 397 498 397 498 231 498 c 0,44,45
 173 498 173 498 144 551 c 128,-1,46
 115 604 115 604 115 666 c 0,47,48
 115 688 115 688 133 688 c 2,49,-1
 158 688 l 2,50,51
 164 688 164 688 169 682.5 c 128,-1,52
 174 677 174 677 174 670 c 0,53,54
 174 629 174 629 186 590 c 128,-1,55
 198 551 198 551 231 551 c 0,56,57
 324 551 324 551 324 817 c 0,58,59
 324 873 324 873 291 918 c 128,-1,60
 258 963 258 963 201 1022 c 1,61,62
 158 1071 158 1071 136.5 1108.5 c 128,-1,63
 115 1146 115 1146 115 1192 c 0,64,65
 115 1257 115 1257 144.5 1315 c 128,-1,66
 174 1373 174 1373 225.5 1408.5 c 128,-1,67
 277 1444 277 1444 342 1444 c 0,68,69
 401 1444 401 1444 456 1416.5 c 128,-1,70
 511 1389 511 1389 554.5 1341.5 c 128,-1,71
 598 1294 598 1294 627 1239 c 1,72,73
 698 1354 698 1354 844.5 1410 c 128,-1,74
 991 1466 991 1466 1147 1466 c 0,75,76
 1157 1466 1157 1466 1163 1460 c 1,77,-1
 1460 924 l 1,78,79
 1464 912 1464 912 1464 911 c 0,80,81
 1464 898 1464 898 1458 895 c 2,82,-1
 1335 827 l 2,83,84
 1311 814 1311 814 1278 796 c 128,-1,85
 1245 778 1245 778 1220 765.5 c 128,-1,86
 1195 753 1195 753 1167.5 741 c 128,-1,87
 1140 729 1140 729 1112 721 c 1,88,-1
 1139 254 l 2,89,90
 1139 240 1139 240 1134.5 221.5 c 128,-1,91
 1130 203 1130 203 1130 193 c 0,92,93
 1130 144 1130 144 1156 99 c 128,-1,94
 1182 54 1182 54 1223 27 c 1,95,-1
 1380 160 l 2,96,97
 1384 164 1384 164 1393 164 c 0,98,99
 1401 164 1401 164 1416 154 c 128,-1,100
 1431 144 1431 144 1434 143 c 0,101,102
 1440 140 1440 140 1440 129 c 0,103,104
 1440 119 1440 119 1434 113 c 1,105,-1
 1237 -41 l 2,106,107
 1233 -45 1233 -45 1227 -45 c 2,108,-1
 1190 -45 l 2,109,110
 1128 -45 1128 -45 1073 -12.5 c 128,-1,111
 1018 20 1018 20 985 75 c 128,-1,112
 952 130 952 130 952 193 c 0,113,114
 952 204 952 204 956.5 223.5 c 128,-1,115
 961 243 961 243 961 254 c 2,116,-1
 936 702 l 1,117,-1
 702 702 l 1,118,-1
 702 516 l 2,119,120
 702 410 702 410 672 278.5 c 128,-1,121
 642 147 642 147 572.5 51 c 128,-1,122
 503 -45 503 -45 397 -45 c 0,123,124
 235 -45 235 -45 152 170 c 1,125,126
 144 166 144 166 133 162 c 128,-1,127
 122 158 122 158 119 158 c 0,0,1
702 774 m 1,128,-1
 1020 774 l 2,129,130
 1057 774 1057 774 1102.5 790.5 c 128,-1,131
 1148 807 1148 807 1186.5 827.5 c 128,-1,132
 1225 848 1225 848 1280 879 c 1,133,-1
 1004 1382 l 1,134,135
 885 1361 885 1361 791.5 1305 c 128,-1,136
 698 1249 698 1249 664 1153 c 1,137,138
 684 1092 684 1092 693 1032.5 c 128,-1,139
 702 973 702 973 702 911 c 2,140,-1
 702 774 l 1,128,-1
EndSplineSet
EndChar

StartChar: equal
Encoding: 61 61 32
Width: 1479
GlyphClass: 2
Flags: W
LayerCount: 2
Fore
SplineSet
133 322 m 0,0,1
 115 322 115 322 115 340 c 2,2,-1
 115 358 l 2,3,4
 115 375 115 375 133 375 c 2,5,-1
 276 375 l 2,6,7
 361 375 361 375 430.5 335 c 128,-1,8
 500 295 500 295 600 202 c 128,-1,9
 700 109 700 109 744 75.5 c 128,-1,10
 788 42 788 42 858 25 c 1,11,12
 922 37 922 37 978.5 72.5 c 128,-1,13
 1035 108 1035 108 1069.5 163.5 c 128,-1,14
 1104 219 1104 219 1104 285 c 0,15,16
 1104 333 1104 333 1079 370 c 128,-1,17
 1054 407 1054 407 1002.5 460.5 c 128,-1,18
 951 514 951 514 927 553.5 c 128,-1,19
 903 593 903 593 903 643 c 0,20,21
 903 712 903 712 942.5 767 c 128,-1,22
 982 822 982 822 1046 852.5 c 128,-1,23
 1110 883 1110 883 1176 883 c 0,24,25
 1233 883 1233 883 1289.5 859.5 c 128,-1,26
 1346 836 1346 836 1382.5 790.5 c 128,-1,27
 1419 745 1419 745 1419 686 c 0,28,29
 1419 666 1419 666 1403 666 c 2,30,-1
 1366 666 l 2,31,32
 1348 666 1348 666 1348 682 c 0,33,34
 1348 748 1348 748 1295.5 788.5 c 128,-1,35
 1243 829 1243 829 1176 829 c 0,36,37
 1120 829 1120 829 1100.5 770.5 c 128,-1,38
 1081 712 1081 712 1081 643 c 0,39,40
 1081 598 1081 598 1104.5 562 c 128,-1,41
 1128 526 1128 526 1179 473 c 128,-1,42
 1230 420 1230 420 1256 379 c 128,-1,43
 1282 338 1282 338 1282 285 c 0,44,45
 1282 193 1282 193 1230.5 123.5 c 128,-1,46
 1179 54 1179 54 1096 15.5 c 128,-1,47
 1013 -23 1013 -23 924 -23 c 2,48,-1
 780 -23 l 2,49,50
 691 -23 691 -23 620 20 c 128,-1,51
 549 63 549 63 454.5 148.5 c 128,-1,52
 360 234 360 234 291 278 c 128,-1,53
 222 322 222 322 133 322 c 0,0,1
115 1051 m 0,54,55
 115 1134 115 1134 151 1208 c 128,-1,56
 187 1282 187 1282 249 1334.5 c 128,-1,57
 311 1387 311 1387 389.5 1415.5 c 128,-1,58
 468 1444 468 1444 551 1444 c 0,59,60
 662 1444 662 1444 769.5 1399 c 128,-1,61
 877 1354 877 1354 963 1274.5 c 128,-1,62
 1049 1195 1049 1195 1106 1096 c 1,63,64
 1124 1062 1124 1062 1139 1044 c 128,-1,65
 1154 1026 1154 1026 1176 1026 c 0,66,67
 1238 1026 1238 1026 1293 1049 c 128,-1,68
 1348 1072 1348 1072 1348 1126 c 0,69,70
 1348 1145 1348 1145 1366 1145 c 2,71,-1
 1403 1145 l 2,72,73
 1419 1145 1419 1145 1419 1122 c 0,74,75
 1419 1044 1419 1044 1342 1008.5 c 128,-1,76
 1265 973 1265 973 1176 973 c 0,77,78
 1069 973 1069 973 994.5 1026.5 c 128,-1,79
 920 1080 920 1080 836 1184 c 128,-1,80
 752 1288 752 1288 692.5 1339.5 c 128,-1,81
 633 1391 633 1391 551 1391 c 0,82,83
 457 1391 457 1391 372 1346.5 c 128,-1,84
 287 1302 287 1302 236.5 1224 c 128,-1,85
 186 1146 186 1146 186 1051 c 0,86,87
 186 952 186 952 241 874 c 128,-1,88
 296 796 296 796 385 753.5 c 128,-1,89
 474 711 474 711 571 711 c 0,90,91
 578 711 578 711 583 705.5 c 128,-1,92
 588 700 588 700 588 694 c 2,93,-1
 588 676 l 2,94,95
 588 657 588 657 567 657 c 0,96,97
 455 657 455 657 350 706.5 c 128,-1,98
 245 756 245 756 180 846 c 128,-1,99
 115 936 115 936 115 1051 c 0,54,55
EndSplineSet
EndChar

StartChar: greater
Encoding: 62 62 33
Width: 1591
GlyphClass: 2
Flags: W
LayerCount: 2
Fore
SplineSet
756 39 m 2,0,-1
 756 1282 l 1,1,-1
 154 1282 l 2,2,3
 137 1282 137 1282 126 1295 c 128,-1,4
 115 1308 115 1308 115 1323 c 256,5,6
 115 1338 115 1338 126 1351 c 128,-1,7
 137 1364 137 1364 154 1364 c 2,8,-1
 1442 1364 l 2,9,10
 1457 1364 1457 1364 1468 1351 c 128,-1,11
 1479 1338 1479 1338 1479 1323 c 256,12,13
 1479 1308 1479 1308 1468 1295 c 128,-1,14
 1457 1282 1457 1282 1442 1282 c 2,15,-1
 838 1282 l 1,16,-1
 838 39 l 2,17,18
 838 22 838 22 825 11 c 128,-1,19
 812 0 812 0 797 0 c 0,20,21
 780 0 780 0 768 11 c 128,-1,22
 756 22 756 22 756 39 c 2,0,-1
EndSplineSet
EndChar

StartChar: question
Encoding: 63 63 34
Width: 1591
GlyphClass: 2
Flags: W
LayerCount: 2
Fore
SplineSet
154 0 m 2,0,1
 137 0 137 0 126 12 c 128,-1,2
 115 24 115 24 115 41 c 0,3,4
 115 56 115 56 126 69 c 128,-1,5
 137 82 137 82 154 82 c 2,6,-1
 756 82 l 1,7,-1
 756 1327 l 2,8,9
 756 1343 756 1343 768 1353.5 c 128,-1,10
 780 1364 780 1364 797 1364 c 0,11,12
 812 1364 812 1364 825 1353.5 c 128,-1,13
 838 1343 838 1343 838 1327 c 2,14,-1
 838 82 l 1,15,-1
 1442 82 l 2,16,17
 1457 82 1457 82 1468 69 c 128,-1,18
 1479 56 1479 56 1479 41 c 0,19,20
 1479 24 1479 24 1468 12 c 128,-1,21
 1457 0 1457 0 1442 0 c 2,22,-1
 154 0 l 2,0,1
EndSplineSet
EndChar

StartChar: at
Encoding: 64 64 35
Width: 1251
GlyphClass: 2
Flags: W
LayerCount: 2
Fore
SplineSet
115 18 m 2,0,-1
 115 37 l 2,1,2
 115 53 115 53 133 53 c 0,3,4
 293 53 293 53 293 125 c 0,5,6
 293 167 293 167 275.5 211.5 c 128,-1,7
 258 256 258 256 229.5 308.5 c 128,-1,8
 201 361 201 361 185.5 402 c 128,-1,9
 170 443 170 443 170 485 c 0,10,11
 170 600 170 600 214 708.5 c 128,-1,12
 258 817 258 817 334 940 c 1,13,-1
 268 1016 l 1,14,15
 224 1065 224 1065 193.5 1102.5 c 128,-1,16
 163 1140 163 1140 139 1184.5 c 128,-1,17
 115 1229 115 1229 115 1268 c 0,18,19
 115 1312 115 1312 127 1366.5 c 128,-1,20
 139 1421 139 1421 170 1421 c 0,21,22
 177 1421 177 1421 183.5 1416.5 c 128,-1,23
 190 1412 190 1412 190 1405 c 0,24,25
 190 1301 190 1301 299 1180 c 1,26,-1
 850 553 l 1,27,28
 855 596 855 596 870 682 c 128,-1,29
 885 768 885 768 897 832 c 128,-1,30
 909 896 909 896 917 954.5 c 128,-1,31
 925 1013 925 1013 928 1067 c 1,32,33
 866 1124 866 1124 830.5 1170.5 c 128,-1,34
 795 1217 795 1217 795 1268 c 0,35,36
 795 1312 795 1312 807 1366.5 c 128,-1,37
 819 1421 819 1421 850 1421 c 0,38,39
 862 1421 862 1421 870 1405 c 1,40,41
 870 1391 870 1391 890 1356 c 128,-1,42
 910 1321 910 1321 942.5 1271 c 128,-1,43
 975 1221 975 1221 981 1212 c 0,44,45
 998 1185 998 1185 1045 1141 c 128,-1,46
 1092 1097 1092 1097 1113.5 1067 c 128,-1,47
 1135 1037 1135 1037 1135 993 c 0,48,49
 1135 946 1135 946 1123.5 892 c 128,-1,50
 1112 838 1112 838 1079 838 c 0,51,52
 1059 838 1059 838 1059 856 c 0,53,54
 1059 927 1059 927 993 1004 c 1,55,56
 989 960 989 960 979 898 c 128,-1,57
 969 836 969 836 954.5 757 c 128,-1,58
 940 678 940 678 930.5 606.5 c 128,-1,59
 921 535 921 535 918 479 c 1,60,-1
 981 406 l 1,61,62
 1050 329 1050 329 1092.5 269.5 c 128,-1,63
 1135 210 1135 210 1135 154 c 0,64,65
 1135 108 1135 108 1123.5 54 c 128,-1,66
 1112 0 1112 0 1079 0 c 0,67,68
 1059 0 1059 0 1059 18 c 0,69,70
 1059 121 1059 121 950 242 c 1,71,-1
 387 881 l 1,72,73
 315 720 315 720 315 487 c 0,74,75
 315 441 315 441 338 402.5 c 128,-1,76
 361 364 361 364 406.5 311.5 c 128,-1,77
 452 259 452 259 476 218.5 c 128,-1,78
 500 178 500 178 500 125 c 0,79,80
 500 60 500 60 439 30 c 128,-1,81
 378 0 378 0 305 0 c 2,82,-1
 133 0 l 2,83,84
 115 0 115 0 115 18 c 2,0,-1
EndSplineSet
EndChar

StartChar: A
Encoding: 65 65 36
Width: 1634
GlyphClass: 2
Flags: W
LayerCount: 2
Fore
SplineSet
57 76 m 0,0,1
 57 111 57 111 82.5 173.5 c 128,-1,2
 108 236 108 236 139 236 c 0,3,4
 145 236 145 236 148.5 230.5 c 128,-1,5
 152 225 152 225 153.5 215.5 c 128,-1,6
 155 206 155 206 156 199 c 1,7,8
 170 154 170 154 215 124 c 128,-1,9
 260 94 260 94 307 94 c 0,10,11
 372 94 372 94 464 210.5 c 128,-1,12
 556 327 556 327 649 469 c 1,13,-1
 690 528 l 1,14,15
 790 680 790 680 865 805 c 128,-1,16
 940 930 940 930 1017.5 1074.5 c 128,-1,17
 1095 1219 1095 1219 1161 1360 c 1,18,-1
 1180 1360 l 1,19,20
 1180 1388 1180 1388 1206 1416 c 128,-1,21
 1232 1444 1232 1444 1268.5 1462.5 c 128,-1,22
 1305 1481 1305 1481 1327 1481 c 2,23,-1
 1350 1481 l 1,24,25
 1362 1476 1362 1476 1362 1462 c 0,26,27
 1362 1403 1362 1403 1361.5 1364.5 c 128,-1,28
 1361 1326 1361 1326 1360 1280 c 1,29,30
 1360 1070 1360 1070 1368.5 873.5 c 128,-1,31
 1377 677 1377 677 1397 444 c 0,32,33
 1403 384 1403 384 1411.5 329 c 128,-1,34
 1420 274 1420 274 1434 212.5 c 128,-1,35
 1448 151 1448 151 1462 104 c 0,36,37
 1468 84 1468 84 1485.5 71.5 c 128,-1,38
 1503 59 1503 59 1524 59 c 1,39,40
 1582 92 1582 92 1622 96 c 1,41,-1
 1634 96 l 1,42,43
 1649 88 1649 88 1649 80 c 0,44,45
 1649 53 1649 53 1598.5 19.5 c 128,-1,46
 1548 -14 1548 -14 1484.5 -37.5 c 128,-1,47
 1421 -61 1421 -61 1389 -61 c 2,48,-1
 1376 -61 l 2,49,50
 1314 -61 1314 -61 1284 -6 c 1,51,52
 1266 34 1266 34 1241.5 164.5 c 128,-1,53
 1217 295 1217 295 1217 336 c 1,54,-1
 664 336 l 1,55,56
 583 214 583 214 524.5 134 c 128,-1,57
 466 54 466 54 385.5 -24 c 128,-1,58
 305 -102 305 -102 244 -102 c 0,59,60
 174 -102 174 -102 115.5 -47.5 c 128,-1,61
 57 7 57 7 57 76 c 0,0,1
723 426 m 1,62,63
 779 453 779 453 811 457 c 1,64,-1
 1206 457 l 1,65,66
 1178 832 1178 832 1178 1190 c 2,67,-1
 1178 1223 l 1,68,69
 1071 1004 1071 1004 956.5 805 c 128,-1,70
 842 606 842 606 723 426 c 1,62,63
EndSplineSet
EndChar

StartChar: B
Encoding: 66 66 37
Width: 1343
GlyphClass: 2
Flags: W
LayerCount: 2
Fore
SplineSet
76 -45 m 1,0,1
 61 -37 61 -37 61 -29 c 0,2,3
 61 -23 61 -23 63 -18 c 0,4,5
 131 109 131 109 184.5 271.5 c 128,-1,6
 238 434 238 434 278 611.5 c 128,-1,7
 318 789 318 789 346 954.5 c 128,-1,8
 374 1120 374 1120 397 1294 c 1,9,-1
 336 1264 l 2,10,11
 305 1248 305 1248 274 1245 c 1,12,-1
 264 1245 l 1,13,14
 250 1252 250 1252 250 1262 c 0,15,16
 250 1296 250 1296 330 1341 c 1,17,-1
 483 1419 l 2,18,19
 526 1442 526 1442 559 1444 c 1,20,-1
 571 1444 l 1,21,22
 586 1439 586 1439 586 1425 c 1,23,24
 565 1268 565 1268 543 1135 c 1,25,26
 595 1201 595 1201 657 1255.5 c 128,-1,27
 719 1310 719 1310 792.5 1353.5 c 128,-1,28
 866 1397 866 1397 947 1421.5 c 128,-1,29
 1028 1446 1028 1446 1106 1446 c 2,30,-1
 1118 1446 l 2,31,32
 1216 1446 1216 1446 1288 1389.5 c 128,-1,33
 1360 1333 1360 1333 1360 1237 c 0,34,35
 1360 1104 1360 1104 1244.5 1002 c 128,-1,36
 1129 900 1129 900 971 829 c 1,37,38
 1106 805 1106 805 1194 715.5 c 128,-1,39
 1282 626 1282 626 1282 494 c 0,40,41
 1282 374 1282 374 1216 274 c 128,-1,42
 1150 174 1150 174 1042 102.5 c 128,-1,43
 934 31 934 31 809.5 -7 c 128,-1,44
 685 -45 685 -45 573 -45 c 2,45,-1
 561 -45 l 2,46,47
 480 -45 480 -45 403 -11.5 c 128,-1,48
 326 22 326 22 279 84 c 0,49,50
 274 91 274 91 274 96 c 0,51,52
 274 128 274 128 333 162.5 c 128,-1,53
 392 197 392 197 432 201 c 1,54,-1
 442 201 l 1,55,56
 449 198 449 198 487.5 161.5 c 128,-1,57
 526 125 526 125 553 111 c 0,58,59
 625 76 625 76 711 76 c 0,60,61
 821 76 821 76 908 112 c 128,-1,62
 995 148 995 148 1047.5 222 c 128,-1,63
 1100 296 1100 296 1100 406 c 0,64,65
 1100 504 1100 504 1048 574 c 128,-1,66
 996 644 996 644 910 680.5 c 128,-1,67
 824 717 824 717 731 717 c 0,68,69
 697 717 697 717 635 709 c 1,70,-1
 623 709 l 1,71,72
 615 713 615 713 611.5 716 c 128,-1,73
 608 719 608 719 608 725 c 0,74,75
 608 748 608 748 651 780 c 0,76,77
 692 810 692 810 771.5 838.5 c 128,-1,78
 851 867 851 867 958.5 908.5 c 128,-1,79
 1066 950 1066 950 1122 1006 c 128,-1,80
 1178 1062 1178 1062 1178 1149 c 0,81,82
 1178 1203 1178 1203 1148.5 1243.5 c 128,-1,83
 1119 1284 1119 1284 1070.5 1304.5 c 128,-1,84
 1022 1325 1022 1325 971 1325 c 0,85,86
 857 1325 857 1325 775 1251 c 128,-1,87
 693 1177 693 1177 621 1053 c 1,88,89
 551 930 551 930 497.5 781.5 c 128,-1,90
 444 633 444 633 403 467 c 0,91,92
 352 261 352 261 242 49 c 1,93,94
 222 13 222 13 175.5 -14 c 128,-1,95
 129 -41 129 -41 86 -45 c 1,96,-1
 76 -45 l 1,0,1
EndSplineSet
EndChar

StartChar: C
Encoding: 67 67 38
Width: 1077
GlyphClass: 2
Flags: W
LayerCount: 2
Fore
SplineSet
403 -49 m 2,0,1
 306 -49 306 -49 234.5 -11.5 c 128,-1,2
 163 26 163 26 115.5 93.5 c 128,-1,3
 68 161 68 161 46.5 242 c 128,-1,4
 25 323 25 323 25 416 c 0,5,6
 25 599 25 599 92.5 785.5 c 128,-1,7
 160 972 160 972 282 1120.5 c 128,-1,8
 404 1269 404 1269 571.5 1356.5 c 128,-1,9
 739 1444 739 1444 932 1444 c 2,10,-1
 944 1444 l 2,11,12
 1011 1444 1011 1444 1052.5 1410 c 128,-1,13
 1094 1376 1094 1376 1094 1311 c 0,14,15
 1094 1254 1094 1254 1061 1177 c 128,-1,16
 1028 1100 1028 1100 981 1016 c 1,17,18
 959 979 959 979 914.5 952 c 128,-1,19
 870 925 870 925 823 920 c 1,20,-1
 813 920 l 1,21,22
 799 927 799 927 799 934 c 0,23,24
 799 943 799 943 831.5 1007 c 128,-1,25
 864 1071 864 1071 887.5 1127.5 c 128,-1,26
 911 1184 911 1184 911 1225 c 0,27,28
 911 1275 911 1275 879.5 1299 c 128,-1,29
 848 1323 848 1323 795 1323 c 0,30,31
 644 1323 644 1323 541.5 1251 c 128,-1,32
 439 1179 439 1179 356 1038 c 0,33,34
 287 919 287 919 247 780.5 c 128,-1,35
 207 642 207 642 207 504 c 0,36,37
 207 391 207 391 243 291.5 c 128,-1,38
 279 192 279 192 357 132 c 128,-1,39
 435 72 435 72 553 72 c 0,40,41
 677 72 677 72 774 164 c 1,42,43
 787 178 787 178 827.5 231.5 c 128,-1,44
 868 285 868 285 903 310 c 128,-1,45
 938 335 938 335 993 340 c 1,46,-1
 1004 340 l 1,47,48
 1018 333 1018 333 1018 324 c 0,49,50
 1018 316 1018 316 1012 307 c 0,51,52
 954 211 954 211 856 129 c 128,-1,53
 758 47 758 47 641 -1 c 128,-1,54
 524 -49 524 -49 416 -49 c 2,55,-1
 403 -49 l 2,0,1
EndSplineSet
EndChar

StartChar: D
Encoding: 68 68 39
Width: 1579
GlyphClass: 2
Flags: W
LayerCount: 2
Fore
SplineSet
156 16 m 0,0,1
 156 45 156 45 203 74.5 c 128,-1,2
 250 104 250 104 287 117 c 1,3,4
 404 416 404 416 463 659 c 1,5,6
 542 978 542 978 565 1278 c 1,7,8
 456 1278 456 1278 350 1239 c 1,9,10
 295 1217 295 1217 266.5 1182.5 c 128,-1,11
 238 1148 238 1148 219 1087 c 1,12,13
 199 1053 199 1053 151 1023 c 128,-1,14
 103 993 103 993 66 993 c 2,15,-1
 53 993 l 1,16,17
 39 1002 39 1002 39 1014 c 1,18,19
 75 1138 75 1138 186 1225 c 128,-1,20
 297 1312 297 1312 444 1355.5 c 128,-1,21
 591 1399 591 1399 723 1399 c 2,22,-1
 924 1399 l 2,23,24
 1046 1399 1046 1399 1159 1375 c 128,-1,25
 1272 1351 1272 1351 1365.5 1295.5 c 128,-1,26
 1459 1240 1459 1240 1514 1148 c 128,-1,27
 1569 1056 1569 1056 1569 926 c 0,28,29
 1569 725 1569 725 1463 553 c 128,-1,30
 1357 381 1357 381 1181 256.5 c 128,-1,31
 1005 132 1005 132 802 66 c 128,-1,32
 599 0 599 0 410 0 c 2,33,-1
 170 0 l 1,34,35
 166 2 166 2 161 6 c 128,-1,36
 156 10 156 10 156 16 c 0,0,1
438 121 m 1,37,-1
 541 121 l 2,38,39
 702 121 702 121 852 169 c 128,-1,40
 1002 217 1002 217 1123 310 c 128,-1,41
 1244 403 1244 403 1315 538 c 128,-1,42
 1386 673 1386 673 1386 836 c 0,43,44
 1386 998 1386 998 1297 1097.5 c 128,-1,45
 1208 1197 1208 1197 1068 1237.5 c 128,-1,46
 928 1278 928 1278 770 1278 c 2,47,-1
 739 1278 l 1,48,49
 716 1024 716 1024 645 741 c 0,50,51
 568 433 568 433 438 121 c 1,37,-1
EndSplineSet
EndChar

StartChar: E
Encoding: 69 69 40
Width: 1079
GlyphClass: 2
Flags: W
LayerCount: 2
Fore
SplineSet
59 209 m 0,0,1
 59 315 59 315 123.5 420.5 c 128,-1,2
 188 526 188 526 286.5 609.5 c 128,-1,3
 385 693 385 693 481 741 c 1,4,5
 398 774 398 774 347.5 831 c 128,-1,6
 297 888 297 888 297 971 c 0,7,8
 297 1070 297 1070 357 1156 c 128,-1,9
 417 1242 417 1242 514 1307 c 128,-1,10
 611 1372 611 1372 720.5 1408 c 128,-1,11
 830 1444 830 1444 920 1444 c 2,12,-1
 932 1444 l 2,13,14
 1020 1444 1020 1444 1087.5 1413 c 128,-1,15
 1155 1382 1155 1382 1155 1307 c 0,16,17
 1155 1257 1155 1257 1128 1212 c 128,-1,18
 1101 1167 1101 1167 1057 1137.5 c 128,-1,19
 1013 1108 1013 1108 965 1104 c 1,20,-1
 954 1104 l 1,21,22
 950 1106 950 1106 945 1110 c 128,-1,23
 940 1114 940 1114 940 1120 c 256,24,25
 940 1126 940 1126 942 1130 c 0,26,27
 952 1148 952 1148 958.5 1162 c 128,-1,28
 965 1176 965 1176 969 1189.5 c 128,-1,29
 973 1203 973 1203 973 1217 c 0,30,31
 973 1278 973 1278 915.5 1300.5 c 128,-1,32
 858 1323 858 1323 784 1323 c 0,33,34
 706 1323 706 1323 635 1291 c 128,-1,35
 564 1259 564 1259 521.5 1199.5 c 128,-1,36
 479 1140 479 1140 479 1059 c 0,37,38
 479 941 479 941 589 885 c 128,-1,39
 699 829 699 829 827 829 c 1,40,41
 842 822 842 822 842 813 c 0,42,43
 842 781 842 781 782.5 747 c 128,-1,44
 723 713 723 713 686 709 c 1,45,46
 508 709 508 709 379 586 c 1,47,48
 322 525 322 525 282 447 c 128,-1,49
 242 369 242 369 242 299 c 0,50,51
 242 225 242 225 288 174.5 c 128,-1,52
 334 124 334 124 403.5 100 c 128,-1,53
 473 76 473 76 545 76 c 0,54,55
 636 76 636 76 692.5 108 c 128,-1,56
 749 140 749 140 810 209 c 128,-1,57
 871 278 871 278 904.5 306.5 c 128,-1,58
 938 335 938 335 997 340 c 1,59,-1
 1008 340 l 1,60,61
 1022 333 1022 333 1022 324 c 0,62,63
 1022 317 1022 317 1014 301 c 1,64,65
 949 206 949 206 851 127.5 c 128,-1,66
 753 49 753 49 637 2 c 128,-1,67
 521 -45 521 -45 410 -45 c 2,68,-1
 397 -45 l 2,69,70
 318 -45 318 -45 239 -16.5 c 128,-1,71
 160 12 160 12 109.5 69.5 c 128,-1,72
 59 127 59 127 59 209 c 0,0,1
EndSplineSet
EndChar

StartChar: F
Encoding: 70 70 41
Width: 1470
GlyphClass: 2
Flags: W
LayerCount: 2
Fore
SplineSet
35 92 m 1,0,1
 35 128 35 128 93 162.5 c 128,-1,2
 151 197 151 197 190 201 c 1,3,-1
 203 201 l 1,4,5
 210 197 210 197 236.5 153.5 c 128,-1,6
 263 110 263 110 301.5 81.5 c 128,-1,7
 340 53 340 53 410 53 c 1,8,9
 424 71 424 71 434 88 c 0,10,11
 581 360 581 360 684 643 c 0,12,13
 740 797 740 797 784.5 961.5 c 128,-1,14
 829 1126 829 1126 854 1278 c 1,15,-1
 768 1278 l 2,16,17
 564 1278 564 1278 510 1087 c 1,18,19
 490 1051 490 1051 444.5 1024 c 128,-1,20
 399 997 399 997 356 993 c 1,21,-1
 344 993 l 1,22,23
 330 1002 330 1002 330 1014 c 1,24,25
 361 1123 361 1123 452.5 1211 c 128,-1,26
 544 1299 544 1299 665 1349 c 128,-1,27
 786 1399 786 1399 899 1399 c 2,28,-1
 1499 1399 l 2,29,30
 1698 1399 1698 1399 1698 1321 c 0,31,32
 1698 1276 1698 1276 1644 1239.5 c 128,-1,33
 1590 1203 1590 1203 1538 1198 c 1,34,-1
 1528 1198 l 1,35,36
 1513 1206 1513 1206 1513 1210 c 0,37,38
 1514 1216 1514 1216 1515 1223 c 128,-1,39
 1516 1230 1516 1230 1516 1233 c 0,40,41
 1516 1278 1516 1278 1346 1278 c 2,42,-1
 1022 1278 l 1,43,44
 964 991 964 991 872 737 c 1,45,-1
 1389 737 l 1,46,47
 1403 730 1403 730 1403 719 c 1,48,49
 1390 670 1390 670 1342 635.5 c 128,-1,50
 1294 601 1294 601 1241 596 c 1,51,-1
 1229 596 l 1,52,53
 1214 604 1214 604 1214 612 c 2,54,-1
 1214 616 l 1,55,-1
 827 616 l 1,56,57
 737 386 737 386 614 158 c 1,58,59
 563 67 563 67 469 -0.5 c 128,-1,60
 375 -68 375 -68 281 -68 c 2,61,-1
 270 -68 l 2,62,63
 190 -68 190 -68 126 -25.5 c 128,-1,64
 62 17 62 17 35 92 c 1,0,1
EndSplineSet
EndChar

StartChar: G
Encoding: 71 71 42
Width: 1217
GlyphClass: 2
Flags: W
LayerCount: 2
Fore
SplineSet
109 -156 m 0,0,1
 104 -153 104 -153 104 -143 c 0,2,3
 104 -109 104 -109 164 -76 c 128,-1,4
 224 -43 224 -43 262 -39 c 1,5,-1
 272 -39 l 1,6,7
 369 -86 369 -86 429.5 -104.5 c 128,-1,8
 490 -123 490 -123 580 -123 c 0,9,10
 625 -123 625 -123 651 -111 c 1,11,12
 725 -63 725 -63 784 61.5 c 128,-1,13
 843 186 843 186 883 317 c 1,14,15
 789 240 789 240 674.5 189.5 c 128,-1,16
 560 139 560 139 449 139 c 0,17,18
 329 139 329 139 248.5 195 c 128,-1,19
 168 251 168 251 129 345.5 c 128,-1,20
 90 440 90 440 90 557 c 0,21,22
 90 731 90 731 160 892 c 128,-1,23
 230 1053 230 1053 351.5 1177 c 128,-1,24
 473 1301 473 1301 633.5 1372.5 c 128,-1,25
 794 1444 794 1444 967 1444 c 2,26,-1
 979 1444 l 2,27,28
 1081 1444 1081 1444 1155 1416 c 128,-1,29
 1229 1388 1229 1388 1229 1307 c 0,30,31
 1229 1268 1229 1268 1203.5 1214 c 128,-1,32
 1178 1160 1178 1160 1141.5 1109 c 128,-1,33
 1105 1058 1105 1058 1071 1024 c 1,34,35
 1011 971 1011 971 944 965 c 1,36,-1
 934 965 l 1,37,38
 920 972 920 972 920 979 c 0,39,40
 920 989 920 989 958 1042 c 128,-1,41
 996 1095 996 1095 1021.5 1138.5 c 128,-1,42
 1047 1182 1047 1182 1047 1217 c 0,43,44
 1047 1282 1047 1282 981 1302.5 c 128,-1,45
 915 1323 915 1323 829 1323 c 0,46,47
 737 1323 737 1323 661.5 1298 c 128,-1,48
 586 1273 586 1273 525 1224 c 128,-1,49
 464 1175 464 1175 412 1098 c 0,50,51
 346 999 346 999 309 879.5 c 128,-1,52
 272 760 272 760 272 645 c 0,53,54
 272 569 272 569 291 501 c 128,-1,55
 310 433 310 433 349.5 378 c 128,-1,56
 389 323 389 323 448 291.5 c 128,-1,57
 507 260 507 260 586 260 c 0,58,59
 658 260 658 260 721 295 c 128,-1,60
 784 330 784 330 834.5 388.5 c 128,-1,61
 885 447 885 447 921.5 520 c 128,-1,62
 958 593 958 593 975 659 c 1,63,64
 986 695 986 695 1038.5 726 c 128,-1,65
 1091 757 1091 757 1133 760 c 1,66,-1
 1143 760 l 1,67,68
 1157 753 1157 753 1157 741 c 1,69,70
 1126 613 1126 613 1109.5 547.5 c 128,-1,71
 1093 482 1093 482 1069 404.5 c 128,-1,72
 1045 327 1045 327 1011 242 c 128,-1,73
 977 157 977 157 938 90 c 1,74,75
 886 -3 886 -3 810.5 -79 c 128,-1,76
 735 -155 735 -155 642 -199.5 c 128,-1,77
 549 -244 549 -244 444 -244 c 2,78,-1
 434 -244 l 2,79,80
 255 -244 255 -244 109 -156 c 0,0,1
EndSplineSet
EndChar

StartChar: H
Encoding: 72 72 43
Width: 1729
GlyphClass: 2
Flags: W
LayerCount: 2
Fore
SplineSet
283 -68 m 0,0,1
 283 -63 283 -63 285 -57 c 0,2,3
 316 21 316 21 357.5 136.5 c 128,-1,4
 399 252 399 252 433 359.5 c 128,-1,5
 467 467 467 467 496 569 c 1,6,-1
 309 569 l 1,7,8
 295 576 295 576 295 586 c 0,9,10
 295 620 295 620 355 653 c 128,-1,11
 415 686 415 686 453 690 c 1,12,-1
 528 690 l 1,13,14
 563 823 563 823 589.5 961 c 128,-1,15
 616 1099 616 1099 616 1194 c 0,16,17
 616 1230 616 1230 589 1254 c 128,-1,18
 562 1278 562 1278 526 1278 c 0,19,20
 409 1278 409 1278 339.5 1235 c 128,-1,21
 270 1192 270 1192 219 1087 c 1,22,23
 199 1053 199 1053 151 1023 c 128,-1,24
 103 993 103 993 66 993 c 2,25,-1
 53 993 l 1,26,27
 39 1000 39 1000 39 1010 c 0,28,29
 39 1016 39 1016 41 1020 c 0,30,31
 84 1107 84 1107 150.5 1177.5 c 128,-1,32
 217 1248 217 1248 299 1297 c 128,-1,33
 381 1346 381 1346 476 1372.5 c 128,-1,34
 571 1399 571 1399 666 1399 c 2,35,-1
 678 1399 l 2,36,37
 727 1399 727 1399 763 1365 c 128,-1,38
 799 1331 799 1331 799 1282 c 0,39,40
 799 1166 799 1166 764 1000.5 c 128,-1,41
 729 835 729 835 688 690 c 1,42,-1
 1219 690 l 1,43,44
 1305 987 1305 987 1427 1305 c 1,45,46
 1449 1343 1449 1343 1493 1368.5 c 128,-1,47
 1537 1394 1537 1394 1581 1399 c 1,48,-1
 1593 1399 l 1,49,50
 1608 1392 1608 1392 1608 1382 c 0,51,52
 1608 1378 1608 1378 1606 1372 c 0,53,54
 1573 1291 1573 1291 1532 1176 c 128,-1,55
 1491 1061 1491 1061 1466.5 985 c 128,-1,56
 1442 909 1442 909 1399 764 c 1,57,58
 1268 288 1268 288 1268 102 c 0,59,60
 1268 69 1268 69 1291.5 44.5 c 128,-1,61
 1315 20 1315 20 1350 20 c 0,62,63
 1396 20 1396 20 1450 33 c 1,64,65
 1458 50 1458 50 1463 62.5 c 128,-1,66
 1468 75 1468 75 1476.5 85 c 128,-1,67
 1485 95 1485 95 1503 109 c 0,68,69
 1562 152 1562 152 1618 160 c 1,70,-1
 1628 160 l 1,71,72
 1642 153 1642 153 1642 139 c 1,73,74
 1619 57 1619 57 1548 3.5 c 128,-1,75
 1477 -50 1477 -50 1385 -75 c 128,-1,76
 1293 -100 1293 -100 1202 -100 c 0,77,78
 1151 -100 1151 -100 1118 -67 c 128,-1,79
 1085 -34 1085 -34 1085 14 c 0,80,81
 1085 197 1085 197 1192 590 c 1,82,83
 1153 571 1153 571 1126 569 c 1,84,-1
 653 569 l 1,85,86
 615 439 615 439 568.5 301.5 c 128,-1,87
 522 164 522 164 463 10 c 1,88,89
 443 -25 443 -25 397.5 -52 c 128,-1,90
 352 -79 352 -79 307 -84 c 1,91,-1
 297 -84 l 1,92,93
 293 -82 293 -82 288 -78 c 128,-1,94
 283 -74 283 -74 283 -68 c 0,0,1
EndSplineSet
EndChar

StartChar: I
Encoding: 73 73 44
Width: 1114
GlyphClass: 2
Flags: W
LayerCount: 2
Fore
SplineSet
-39 0 m 1,0,1
 -43 2 -43 2 -48 6 c 128,-1,2
 -53 10 -53 10 -53 16 c 0,3,4
 -53 49 -53 49 6.5 83 c 128,-1,5
 66 117 66 117 102 121 c 1,6,-1
 287 121 l 2,7,8
 318 121 318 121 334.5 139.5 c 128,-1,9
 351 158 351 158 375 199 c 0,10,11
 431 292 431 292 481 471 c 1,12,13
 492 505 492 505 504 554.5 c 128,-1,14
 516 604 516 604 530 659 c 0,15,16
 552 748 552 748 573 827.5 c 128,-1,17
 594 907 594 907 624.5 994.5 c 128,-1,18
 655 1082 655 1082 694.5 1154 c 128,-1,19
 734 1226 734 1226 784 1278 c 1,20,-1
 659 1278 l 2,21,22
 535 1278 535 1278 451 1272 c 128,-1,23
 367 1266 367 1266 289 1241 c 1,24,25
 266 1230 266 1230 249.5 1188 c 128,-1,26
 233 1146 233 1146 231 1143 c 0,27,28
 204 1108 204 1108 163 1085.5 c 128,-1,29
 122 1063 122 1063 82 1059 c 1,30,-1
 72 1059 l 1,31,32
 57 1066 57 1066 57 1077 c 1,33,34
 107 1262 107 1262 362 1352 c 1,35,36
 451 1380 451 1380 554.5 1389.5 c 128,-1,37
 658 1399 658 1399 791 1399 c 2,38,-1
 1292 1399 l 1,39,40
 1307 1391 1307 1391 1307 1382 c 0,41,42
 1307 1350 1307 1350 1247 1316 c 128,-1,43
 1187 1282 1187 1282 1149 1278 c 1,44,-1
 907 1278 l 1,45,46
 845 1202 845 1202 806.5 1081 c 128,-1,47
 768 960 768 960 713 741 c 1,48,49
 687 630 687 630 667 556 c 128,-1,50
 647 482 647 482 617.5 402.5 c 128,-1,51
 588 323 588 323 542.5 248 c 128,-1,52
 497 173 497 173 438 121 c 1,53,-1
 840 121 l 2,54,55
 877 121 877 121 918 133 c 0,56,57
 922 134 922 134 932.5 159.5 c 128,-1,58
 943 185 943 185 944 186 c 0,59,60
 968 218 968 218 1009.5 242 c 128,-1,61
 1051 266 1051 266 1092 270 c 1,62,-1
 1104 270 l 1,63,64
 1118 261 1118 261 1118 250 c 1,65,66
 1098 179 1098 179 1029.5 121 c 128,-1,67
 961 63 961 63 872.5 31.5 c 128,-1,68
 784 0 784 0 709 0 c 2,69,-1
 -39 0 l 1,0,1
EndSplineSet
EndChar

StartChar: J
Encoding: 74 74 45
Width: 1386
GlyphClass: 2
Flags: W
LayerCount: 2
Fore
SplineSet
96 66 m 0,0,1
 96 111 96 111 103 141.5 c 128,-1,2
 110 172 110 172 137 199 c 1,3,4
 198 252 198 252 264 260 c 1,5,-1
 274 260 l 1,6,7
 289 250 289 250 289 240 c 1,8,9
 279 192 279 192 279 156 c 0,10,11
 279 31 279 31 367 -46 c 128,-1,12
 455 -123 455 -123 582 -123 c 0,13,14
 757 -123 757 -123 879 88 c 0,15,16
 905 132 905 132 926 192 c 128,-1,17
 947 252 947 252 966.5 325.5 c 128,-1,18
 986 399 986 399 1001.5 464 c 128,-1,19
 1017 529 1017 529 1030 575 c 0,20,21
 1098 817 1098 817 1178.5 993.5 c 128,-1,22
 1259 1170 1259 1170 1395 1278 c 1,23,-1
 1124 1278 l 2,24,25
 1053 1278 1053 1278 987 1257 c 128,-1,26
 921 1236 921 1236 870.5 1199 c 128,-1,27
 820 1162 820 1162 782.5 1106 c 128,-1,28
 745 1050 745 1050 725 979 c 0,29,30
 715 945 715 945 663 913.5 c 128,-1,31
 611 882 611 882 569 879 c 1,32,-1
 557 879 l 1,33,34
 543 886 543 886 543 897 c 1,35,36
 572 1003 572 1003 645.5 1095.5 c 128,-1,37
 719 1188 719 1188 821.5 1256.5 c 128,-1,38
 924 1325 924 1325 1035 1362 c 128,-1,39
 1146 1399 1146 1399 1255 1399 c 2,40,-1
 1706 1399 l 1,41,42
 1720 1392 1720 1392 1720 1382 c 0,43,44
 1720 1350 1720 1350 1660.5 1316 c 128,-1,45
 1601 1282 1601 1282 1565 1278 c 1,46,47
 1550 1278 1550 1278 1522 1274 c 1,48,-1
 1516 1272 l 1,49,50
 1512 1272 1512 1272 1510.5 1271.5 c 128,-1,51
 1509 1271 1509 1271 1507 1270 c 2,52,53
 1507 1270 1507 1270 1501 1266 c 0,54,55
 1433 1209 1433 1209 1374.5 1095 c 128,-1,56
 1316 981 1316 981 1267.5 836 c 128,-1,57
 1219 691 1219 691 1181.5 545.5 c 128,-1,58
 1144 400 1144 400 1124 322 c 0,59,60
 1096 215 1096 215 1029.5 113 c 128,-1,61
 963 11 963 11 868 -71 c 128,-1,62
 773 -153 773 -153 665.5 -198.5 c 128,-1,63
 558 -244 558 -244 444 -244 c 2,64,-1
 434 -244 l 2,65,66
 342 -244 342 -244 264.5 -205.5 c 128,-1,67
 187 -167 187 -167 141.5 -97 c 128,-1,68
 96 -27 96 -27 96 66 c 0,0,1
EndSplineSet
EndChar

StartChar: K
Encoding: 75 75 46
Width: 1561
GlyphClass: 2
Flags: W
LayerCount: 2
Fore
SplineSet
76 -45 m 1,0,1
 61 -37 61 -37 61 -29 c 0,2,3
 61 -25 61 -25 63 -18 c 0,4,5
 118 120 118 120 177.5 295 c 128,-1,6
 237 470 237 470 287.5 651.5 c 128,-1,7
 338 833 338 833 369.5 1002 c 128,-1,8
 401 1171 401 1171 401 1296 c 1,9,-1
 336 1264 l 2,10,11
 305 1248 305 1248 274 1245 c 1,12,-1
 264 1245 l 1,13,14
 250 1252 250 1252 250 1262 c 0,15,16
 250 1296 250 1296 330 1341 c 1,17,-1
 500 1427 l 2,18,19
 528 1441 528 1441 559 1444 c 1,20,-1
 571 1444 l 1,21,22
 581 1439 581 1439 583.5 1436.5 c 128,-1,23
 586 1434 586 1434 586 1425 c 0,24,25
 586 1280 586 1280 555.5 1107.5 c 128,-1,26
 525 935 525 935 475.5 752.5 c 128,-1,27
 426 570 426 570 361 378.5 c 128,-1,28
 296 187 296 187 242 49 c 1,29,30
 222 13 222 13 175.5 -14 c 128,-1,31
 129 -41 129 -41 86 -45 c 1,32,-1
 76 -45 l 1,0,1
1010 -45 m 2,33,34
 932 -45 932 -45 844 55.5 c 128,-1,35
 756 156 756 156 678 307.5 c 128,-1,36
 600 459 600 459 551 603.5 c 128,-1,37
 502 748 502 748 502 819 c 0,38,39
 502 895 502 895 607.5 1002.5 c 128,-1,40
 713 1110 713 1110 865 1210.5 c 128,-1,41
 1017 1311 1017 1311 1160.5 1377.5 c 128,-1,42
 1304 1444 1304 1444 1376 1444 c 2,43,-1
 1389 1444 l 2,44,45
 1438 1444 1438 1444 1469.5 1406.5 c 128,-1,46
 1501 1369 1501 1369 1501 1321 c 0,47,48
 1501 1274 1501 1274 1473.5 1246 c 128,-1,49
 1446 1218 1446 1218 1395 1210 c 1,50,-1
 1382 1210 l 1,51,52
 1366 1224 1366 1224 1366 1233 c 0,53,54
 1366 1240 1366 1240 1368 1251 c 128,-1,55
 1370 1262 1370 1262 1370 1268 c 0,56,57
 1370 1302 1370 1302 1350.5 1325 c 128,-1,58
 1331 1348 1331 1348 1298 1348 c 0,59,60
 1255 1348 1255 1348 1148 1295 c 128,-1,61
 1041 1242 1041 1242 919.5 1160.5 c 128,-1,62
 798 1079 798 1079 715.5 1000 c 128,-1,63
 633 921 633 921 633 872 c 0,64,65
 633 807 633 807 679.5 670 c 128,-1,66
 726 533 726 533 799.5 388 c 128,-1,67
 873 243 873 243 954 147 c 128,-1,68
 1035 51 1035 51 1102 51 c 0,69,70
 1189 51 1189 51 1264.5 93.5 c 128,-1,71
 1340 136 1340 136 1360 215 c 1,72,73
 1370 245 1370 245 1399 262.5 c 128,-1,74
 1428 280 1428 280 1460 283 c 1,75,-1
 1473 283 l 1,76,77
 1491 270 1491 270 1491 262 c 0,78,79
 1491 258 1491 258 1489 254 c 1,80,81
 1457 120 1457 120 1313.5 37.5 c 128,-1,82
 1170 -45 1170 -45 1022 -45 c 2,83,-1
 1010 -45 l 2,33,34
EndSplineSet
EndChar

StartChar: L
Encoding: 76 76 47
Width: 1411
GlyphClass: 2
Flags: W
LayerCount: 2
Fore
SplineSet
76 -45 m 2,0,1
 63 -45 63 -45 63 -31 c 0,2,3
 63 -23 63 -23 70 -12 c 0,4,5
 85 12 85 12 115 41.5 c 128,-1,6
 145 71 145 71 158 88 c 0,7,8
 210 163 210 163 240 221 c 1,9,10
 292 329 292 329 330 469 c 1,11,12
 386 692 386 692 431.5 831 c 128,-1,13
 477 970 477 970 551 1094 c 0,14,15
 609 1190 609 1190 694 1269.5 c 128,-1,16
 779 1349 779 1349 882.5 1396.5 c 128,-1,17
 986 1444 986 1444 1094 1444 c 2,18,-1
 1106 1444 l 2,19,20
 1159 1444 1159 1444 1195 1417.5 c 128,-1,21
 1231 1391 1231 1391 1249.5 1346.5 c 128,-1,22
 1268 1302 1268 1302 1268 1251 c 0,23,24
 1268 1173 1268 1173 1243 1143 c 1,25,26
 1172 1066 1172 1066 1075 1053 c 1,27,-1
 1063 1053 l 2,28,29
 1051 1053 1051 1053 1051 1067 c 0,30,31
 1051 1069 1051 1069 1056 1098 c 128,-1,32
 1061 1127 1061 1127 1061 1147 c 0,33,34
 1061 1213 1061 1213 1028 1262 c 128,-1,35
 995 1311 995 1311 930 1311 c 0,36,37
 854 1311 854 1311 854 1298 c 1,38,39
 798 1259 798 1259 746.5 1168.5 c 128,-1,40
 695 1078 695 1078 656.5 972.5 c 128,-1,41
 618 867 618 867 588 760.5 c 128,-1,42
 558 654 558 654 535 561 c 0,43,44
 510 460 510 460 470.5 367.5 c 128,-1,45
 431 275 431 275 377 193 c 1,46,47
 401 201 401 201 436 201 c 2,48,-1
 449 201 l 2,49,50
 520 201 520 201 591 186.5 c 128,-1,51
 662 172 662 172 761 144 c 128,-1,52
 860 116 860 116 926 102.5 c 128,-1,53
 992 89 992 89 1065 88 c 0,54,55
 1087 88 1087 88 1101 108 c 128,-1,56
 1115 128 1115 128 1128.5 163.5 c 128,-1,57
 1142 199 1142 199 1151 211 c 1,58,59
 1182 245 1182 245 1227 270 c 128,-1,60
 1272 295 1272 295 1317 301 c 1,61,-1
 1329 301 l 2,62,63
 1335 301 1335 301 1339 297 c 128,-1,64
 1343 293 1343 293 1343 287 c 1,65,66
 1343 287 1343 287 1341 281 c 0,67,68
 1321 201 1321 201 1247 123.5 c 128,-1,69
 1173 46 1173 46 1078.5 0.5 c 128,-1,70
 984 -45 984 -45 905 -45 c 2,71,-1
 893 -45 l 2,72,73
 822 -45 822 -45 754 -32 c 128,-1,74
 686 -19 686 -19 587 9 c 128,-1,75
 488 37 488 37 417.5 52 c 128,-1,76
 347 67 347 67 276 68 c 1,77,78
 185 -32 185 -32 88 -45 c 1,79,-1
 76 -45 l 2,0,1
EndSplineSet
EndChar

StartChar: M
Encoding: 77 77 48
Width: 2458
GlyphClass: 2
Flags: W
LayerCount: 2
Fore
SplineSet
55 4 m 0,0,1
 55 40 55 40 80.5 102 c 128,-1,2
 106 164 106 164 137 164 c 0,3,4
 139 164 139 164 143 162 c 1,5,6
 174 131 174 131 216.5 112.5 c 128,-1,7
 259 94 259 94 301 94 c 0,8,9
 345 94 345 94 402.5 204 c 128,-1,10
 460 314 460 314 512 453.5 c 128,-1,11
 564 593 564 593 586 662 c 0,12,13
 623 774 623 774 654.5 889.5 c 128,-1,14
 686 1005 686 1005 709.5 1119 c 128,-1,15
 733 1233 733 1233 750 1358 c 1,16,17
 750 1370 750 1370 764 1384 c 0,18,19
 784 1405 784 1405 817 1425 c 1,20,21
 844 1438 844 1438 877 1444 c 1,22,-1
 891 1444 l 1,23,24
 905 1437 905 1437 907 1430 c 0,25,26
 942 1220 942 1220 985.5 1012.5 c 128,-1,27
 1029 805 1029 805 1085.5 610.5 c 128,-1,28
 1142 416 1142 416 1210 279 c 1,29,30
 1382 443 1382 443 1524 602 c 0,31,32
 1640 733 1640 733 1729.5 837 c 128,-1,33
 1819 941 1819 941 1891.5 1026.5 c 128,-1,34
 1964 1112 1964 1112 2070 1239 c 128,-1,35
 2176 1366 2176 1366 2222 1423 c 1,36,37
 2241 1444 2241 1444 2253 1444 c 0,38,39
 2269 1444 2269 1444 2269 1409 c 0,40,41
 2269 1381 2269 1381 2257 1339 c 1,42,43
 2166 889 2166 889 2126 422 c 0,44,45
 2120 352 2120 352 2120 281 c 0,46,47
 2120 203 2120 203 2130 111 c 1,48,49
 2133 69 2133 69 2179 61 c 1,50,51
 2235 92 2235 92 2273 96 c 1,52,-1
 2286 96 l 1,53,54
 2300 89 2300 89 2300 80 c 0,55,56
 2300 39 2300 39 2199 -10 c 128,-1,57
 2098 -59 2098 -59 2048 -59 c 2,58,-1
 2036 -59 l 2,59,60
 1972 -59 1972 -59 1954.5 14.5 c 128,-1,61
 1937 88 1937 88 1937 193 c 0,62,63
 1937 477 1937 477 2036 1047 c 1,64,65
 1898 882 1898 882 1811.5 779.5 c 128,-1,66
 1725 677 1725 677 1637.5 576.5 c 128,-1,67
 1550 476 1550 476 1447.5 366 c 128,-1,68
 1345 256 1345 256 1266 178 c 1,69,70
 1168 75 1168 75 1147 70 c 1,71,-1
 1133 70 l 1,72,73
 1098 87 1098 87 1036.5 233.5 c 128,-1,74
 975 380 975 380 950 465 c 0,75,76
 902 634 902 634 863 794 c 128,-1,77
 824 954 824 954 788 1128 c 1,78,79
 771 1038 771 1038 711 829.5 c 128,-1,80
 651 621 651 621 572 408 c 128,-1,81
 493 195 493 195 404.5 46.5 c 128,-1,82
 316 -102 316 -102 236 -102 c 0,83,84
 185 -102 185 -102 120 -71.5 c 128,-1,85
 55 -41 55 -41 55 4 c 0,0,1
EndSplineSet
EndChar

StartChar: N
Encoding: 78 78 49
Width: 1679
GlyphClass: 2
Flags: W
LayerCount: 2
Fore
SplineSet
-59 4 m 0,0,1
 -59 42 -59 42 -33 103 c 128,-1,2
 -7 164 -7 164 23 164 c 0,3,4
 27 164 27 164 29 162 c 0,5,6
 94 94 94 94 190 94 c 0,7,8
 244 94 244 94 285.5 191.5 c 128,-1,9
 327 289 327 289 367 418 c 0,10,11
 388 483 388 483 418.5 588 c 128,-1,12
 449 693 449 693 465 758 c 0,13,14
 479 812 479 812 498.5 904.5 c 128,-1,15
 518 997 518 997 530.5 1066 c 128,-1,16
 543 1135 543 1135 553 1207 c 128,-1,17
 563 1279 563 1279 571 1358 c 1,18,19
 571 1369 571 1369 586 1384 c 0,20,21
 608 1407 608 1407 639 1425 c 1,22,23
 668 1438 668 1438 698 1444 c 1,24,-1
 715 1444 l 1,25,26
 727 1438 727 1438 729 1430 c 0,27,28
 780 1251 780 1251 856 1024 c 1,29,30
 925 814 925 814 974 680 c 128,-1,31
 1023 546 1023 546 1089.5 397.5 c 128,-1,32
 1156 249 1156 249 1235 123 c 1,33,34
 1342 582 1342 582 1448 956 c 2,35,-1
 1475 1051 l 2,36,37
 1519 1206 1519 1206 1547.5 1292.5 c 128,-1,38
 1576 1379 1576 1379 1620 1448 c 0,39,40
 1656 1504 1656 1504 1714 1536 c 128,-1,41
 1772 1568 1772 1568 1841 1581.5 c 128,-1,42
 1910 1595 1910 1595 1985 1595 c 0,43,44
 2003 1595 2003 1595 2003 1561 c 0,45,46
 2003 1537 2003 1537 1992.5 1499.5 c 128,-1,47
 1982 1462 1982 1462 1964 1433 c 128,-1,48
 1946 1404 1946 1404 1923 1399 c 1,49,50
 1842 1399 1842 1399 1778.5 1386 c 128,-1,51
 1715 1373 1715 1373 1663 1339 c 1,52,53
 1637 1320 1637 1320 1632.5 1310 c 128,-1,54
 1628 1300 1628 1300 1612 1251 c 1,55,56
 1586 1179 1586 1179 1559 1077 c 1,57,-1
 1532 985 l 1,58,59
 1480 797 1480 797 1439.5 642 c 128,-1,60
 1399 487 1399 487 1362 334.5 c 128,-1,61
 1325 182 1325 182 1290 27 c 1,62,63
 1291 27 1291 27 1289.5 29.5 c 128,-1,64
 1288 32 1288 32 1288 33 c 1,65,66
 1288 15 1288 15 1264.5 -5 c 128,-1,67
 1241 -25 1241 -25 1210.5 -38.5 c 128,-1,68
 1180 -52 1180 -52 1161 -55 c 1,69,-1
 1147 -55 l 1,70,71
 1113 -38 1113 -38 1031 118 c 128,-1,72
 949 274 949 274 907 375 c 1,73,74
 755 751 755 751 629 1161 c 1,75,76
 613 1062 613 1062 563 847.5 c 128,-1,77
 513 633 513 633 444 415 c 128,-1,78
 375 197 375 197 292.5 47.5 c 128,-1,79
 210 -102 210 -102 127 -102 c 0,80,81
 74 -102 74 -102 7.5 -72 c 128,-1,82
 -59 -42 -59 -42 -59 4 c 0,0,1
EndSplineSet
EndChar

StartChar: O
Encoding: 79 79 50
Width: 1630
GlyphClass: 2
Flags: W
LayerCount: 2
Fore
SplineSet
596 -45 m 2,0,1
 371 -45 371 -45 244 114.5 c 128,-1,2
 117 274 117 274 117 506 c 0,3,4
 117 809 117 809 317 1077 c 0,5,6
 364 1139 364 1139 454 1225 c 128,-1,7
 544 1311 544 1311 637 1374 c 128,-1,8
 730 1437 730 1437 795 1444 c 1,9,-1
 805 1444 l 1,10,11
 819 1437 819 1437 819 1427 c 0,12,13
 819 1419 819 1419 811 1407 c 1,14,15
 799 1392 799 1392 708.5 1328 c 128,-1,16
 618 1264 618 1264 608 1255 c 0,17,18
 514 1173 514 1173 446 1073 c 0,19,20
 375 967 375 967 337 844 c 128,-1,21
 299 721 299 721 299 592 c 0,22,23
 299 455 299 455 349.5 336.5 c 128,-1,24
 400 218 400 218 501.5 147 c 128,-1,25
 603 76 603 76 743 76 c 0,26,27
 890 76 890 76 1015.5 150.5 c 128,-1,28
 1141 225 1141 225 1227 345 c 128,-1,29
 1313 465 1313 465 1361 612.5 c 128,-1,30
 1409 760 1409 760 1409 899 c 0,31,32
 1409 1011 1409 1011 1375.5 1106.5 c 128,-1,33
 1342 1202 1342 1202 1270 1262.5 c 128,-1,34
 1198 1323 1198 1323 1087 1323 c 0,35,36
 1042 1323 1042 1323 1001 1305 c 1,37,38
 934 1269 934 1269 873.5 1175.5 c 128,-1,39
 813 1082 813 1082 772 983 c 1,40,41
 751 947 751 947 705 920 c 128,-1,42
 659 893 659 893 616 889 c 1,43,-1
 606 889 l 1,44,45
 602 891 602 891 597 895 c 128,-1,46
 592 899 592 899 592 905 c 0,47,48
 592 909 592 909 594 915 c 0,49,50
 686 1146 686 1146 846 1282 c 0,51,52
 932 1356 932 1356 1027 1400 c 128,-1,53
 1122 1444 1122 1444 1223 1444 c 2,54,-1
 1235 1444 l 2,55,56
 1359 1444 1359 1444 1438 1380 c 128,-1,57
 1517 1316 1517 1316 1554 1211.5 c 128,-1,58
 1591 1107 1591 1107 1591 987 c 0,59,60
 1591 854 1591 854 1555.5 726 c 128,-1,61
 1520 598 1520 598 1454.5 486 c 128,-1,62
 1389 374 1389 374 1294 279 c 1,63,64
 1197 184 1197 184 1087.5 112 c 128,-1,65
 978 40 978 40 854 -2.5 c 128,-1,66
 730 -45 730 -45 606 -45 c 2,67,-1
 596 -45 l 2,0,1
EndSplineSet
EndChar

StartChar: P
Encoding: 80 80 51
Width: 1423
GlyphClass: 2
Flags: W
LayerCount: 2
Fore
SplineSet
221 -90 m 256,0,1
 221 -84 221 -84 223 -80 c 0,2,3
 292 88 292 88 348.5 259 c 128,-1,4
 405 430 405 430 451 606 c 1,5,6
 536 953 536 953 565 1278 c 1,7,8
 456 1278 456 1278 350 1239 c 1,9,10
 295 1217 295 1217 266.5 1182.5 c 128,-1,11
 238 1148 238 1148 219 1087 c 1,12,13
 199 1053 199 1053 151 1023 c 128,-1,14
 103 993 103 993 66 993 c 2,15,-1
 53 993 l 1,16,17
 39 1002 39 1002 39 1014 c 1,18,19
 75 1138 75 1138 186 1225 c 128,-1,20
 297 1312 297 1312 444 1355.5 c 128,-1,21
 591 1399 591 1399 723 1399 c 2,22,-1
 985 1399 l 2,23,24
 1072 1399 1072 1399 1159.5 1382.5 c 128,-1,25
 1247 1366 1247 1366 1325 1328 c 128,-1,26
 1403 1290 1403 1290 1452 1226.5 c 128,-1,27
 1501 1163 1501 1163 1501 1071 c 0,28,29
 1501 978 1501 978 1456 890.5 c 128,-1,30
 1411 803 1411 803 1342 731.5 c 128,-1,31
 1273 660 1273 660 1186 600 c 1,32,33
 1057 515 1057 515 915 467.5 c 128,-1,34
 773 420 773 420 629 420 c 2,35,-1
 618 420 l 1,36,37
 614 422 614 422 609 426 c 128,-1,38
 604 430 604 430 604 436 c 0,39,40
 604 470 604 470 663.5 503.5 c 128,-1,41
 723 537 723 537 760 541 c 1,42,43
 861 541 861 541 959.5 568.5 c 128,-1,44
 1058 596 1058 596 1135 653 c 1,45,46
 1188 695 1188 695 1228.5 746.5 c 128,-1,47
 1269 798 1269 798 1294 859.5 c 128,-1,48
 1319 921 1319 921 1319 985 c 0,49,50
 1319 1092 1319 1092 1240.5 1158.5 c 128,-1,51
 1162 1225 1162 1225 1049 1251.5 c 128,-1,52
 936 1278 936 1278 831 1278 c 2,53,-1
 739 1278 l 1,54,55
 720 1104 720 1104 689.5 943.5 c 128,-1,56
 659 783 659 783 617.5 627 c 128,-1,57
 576 471 576 471 520 305 c 128,-1,58
 464 139 464 139 401 -12 c 1,59,60
 379 -48 379 -48 335 -74.5 c 128,-1,61
 291 -101 291 -101 246 -106 c 1,62,-1
 236 -106 l 1,63,64
 228 -102 228 -102 225.5 -100.5 c 128,-1,65
 223 -99 223 -99 222 -97.5 c 128,-1,66
 221 -96 221 -96 221 -90 c 256,0,1
EndSplineSet
EndChar

StartChar: Q
Encoding: 81 81 52
Width: 1671
GlyphClass: 2
Flags: W
LayerCount: 2
Fore
SplineSet
287 -59 m 1,0,1
 272 -51 272 -51 272 -43 c 0,2,3
 272 -9 272 -9 332.5 24 c 128,-1,4
 393 57 393 57 428 61 c 1,5,6
 590 61 590 61 690.5 69.5 c 128,-1,7
 791 78 791 78 896 113.5 c 128,-1,8
 1001 149 1001 149 1098 225 c 1,9,10
 1241 345 1241 345 1323 508.5 c 128,-1,11
 1405 672 1405 672 1405 854 c 0,12,13
 1405 946 1405 946 1379 1031.5 c 128,-1,14
 1353 1117 1353 1117 1301.5 1182.5 c 128,-1,15
 1250 1248 1250 1248 1172 1285.5 c 128,-1,16
 1094 1323 1094 1323 997 1323 c 0,17,18
 846 1323 846 1323 711 1225.5 c 128,-1,19
 576 1128 576 1128 496 978 c 128,-1,20
 416 828 416 828 416 678 c 0,21,22
 416 585 416 585 453.5 505 c 128,-1,23
 491 425 491 425 562 377.5 c 128,-1,24
 633 330 633 330 729 330 c 0,25,26
 793 330 793 330 877 358 c 1,27,28
 905 372 905 372 924 381.5 c 128,-1,29
 943 391 943 391 964 400 c 128,-1,30
 985 409 985 409 1008 410 c 1,31,-1
 1020 410 l 1,32,33
 1034 403 1034 403 1034 395 c 0,34,35
 1034 385 1034 385 1026 373 c 0,36,37
 994 329 994 329 915 291.5 c 128,-1,38
 836 254 836 254 745.5 231.5 c 128,-1,39
 655 209 655 209 592 209 c 2,40,-1
 580 209 l 2,41,42
 474 209 474 209 395 260.5 c 128,-1,43
 316 312 316 312 274.5 398 c 128,-1,44
 233 484 233 484 233 588 c 0,45,46
 233 745 233 745 312.5 899 c 128,-1,47
 392 1053 392 1053 526.5 1177.5 c 128,-1,48
 661 1302 661 1302 821.5 1373 c 128,-1,49
 982 1444 982 1444 1135 1444 c 2,50,-1
 1145 1444 l 2,51,52
 1251 1444 1251 1444 1333.5 1405 c 128,-1,53
 1416 1366 1416 1366 1473 1296.5 c 128,-1,54
 1530 1227 1530 1227 1558.5 1136.5 c 128,-1,55
 1587 1046 1587 1046 1587 942 c 0,56,57
 1587 778 1587 778 1523 624.5 c 128,-1,58
 1459 471 1459 471 1349.5 349 c 128,-1,59
 1240 227 1240 227 1097 136 c 128,-1,60
 954 45 954 45 793 -6 c 1,61,62
 836 -20 836 -20 909.5 -46 c 128,-1,63
 983 -72 983 -72 1051.5 -92.5 c 128,-1,64
 1120 -113 1120 -113 1184 -124.5 c 128,-1,65
 1248 -136 1248 -136 1315 -137 c 0,66,67
 1365 -137 1365 -137 1391 -115 c 1,68,69
 1411 -94 1411 -94 1420.5 -66.5 c 128,-1,70
 1430 -39 1430 -39 1440 -25 c 0,71,72
 1466 10 1466 10 1507 33 c 128,-1,73
 1548 56 1548 56 1589 61 c 1,74,-1
 1599 61 l 1,75,76
 1614 54 1614 54 1614 41 c 1,77,78
 1591 -43 1591 -43 1519.5 -111.5 c 128,-1,79
 1448 -180 1448 -180 1355.5 -219 c 128,-1,80
 1263 -258 1263 -258 1180 -258 c 2,81,-1
 1169 -258 l 2,82,83
 1067 -258 1067 -258 973.5 -234.5 c 128,-1,84
 880 -211 880 -211 734 -160 c 128,-1,85
 588 -109 588 -109 493 -84 c 128,-1,86
 398 -59 398 -59 287 -59 c 1,0,1
EndSplineSet
EndChar

StartChar: R
Encoding: 82 82 53
Width: 1735
GlyphClass: 2
Flags: W
LayerCount: 2
Fore
SplineSet
236 -29 m 0,0,1
 236 -25 236 -25 238 -18 c 0,2,3
 309 152 309 152 361 307 c 128,-1,4
 413 462 413 462 457 637 c 1,5,6
 537 947 537 947 565 1278 c 1,7,8
 456 1278 456 1278 350 1239 c 1,9,10
 295 1217 295 1217 266.5 1182.5 c 128,-1,11
 238 1148 238 1148 219 1087 c 1,12,13
 199 1053 199 1053 151 1023 c 128,-1,14
 103 993 103 993 66 993 c 2,15,-1
 53 993 l 1,16,17
 39 1002 39 1002 39 1014 c 1,18,19
 75 1138 75 1138 186 1225 c 128,-1,20
 297 1312 297 1312 444 1355.5 c 128,-1,21
 591 1399 591 1399 723 1399 c 2,22,-1
 938 1399 l 2,23,24
 1081 1399 1081 1399 1196.5 1386 c 128,-1,25
 1312 1373 1312 1373 1405.5 1316 c 128,-1,26
 1499 1259 1499 1259 1499 1143 c 0,27,28
 1499 1050 1499 1050 1455.5 964.5 c 128,-1,29
 1412 879 1412 879 1340.5 810.5 c 128,-1,30
 1269 742 1269 742 1183 690.5 c 128,-1,31
 1097 639 1097 639 1010 608 c 1,32,33
 1041 571 1041 571 1082.5 480.5 c 128,-1,34
 1124 390 1124 390 1171 291.5 c 128,-1,35
 1218 193 1218 193 1264.5 134.5 c 128,-1,36
 1311 76 1311 76 1362 76 c 0,37,38
 1422 76 1422 76 1456.5 98.5 c 128,-1,39
 1491 121 1491 121 1528 166.5 c 128,-1,40
 1565 212 1565 212 1599 238.5 c 128,-1,41
 1633 265 1633 265 1690 270 c 1,42,-1
 1702 270 l 1,43,44
 1716 263 1716 263 1716 254 c 0,45,46
 1716 251 1716 251 1714 246 c 128,-1,47
 1712 241 1712 241 1710 236 c 1,48,49
 1660 161 1660 161 1579.5 95 c 128,-1,50
 1499 29 1499 29 1406 -8 c 128,-1,51
 1313 -45 1313 -45 1225 -45 c 2,52,-1
 1212 -45 l 2,53,54
 1133 -45 1133 -45 1079 31.5 c 128,-1,55
 1025 108 1025 108 961 259.5 c 128,-1,56
 897 411 897 411 848.5 485 c 128,-1,57
 800 559 800 559 729 559 c 1,58,59
 725 561 725 561 720 565 c 128,-1,60
 715 569 715 569 715 575 c 0,61,62
 715 608 715 608 774.5 642 c 128,-1,63
 834 676 834 676 870 680 c 1,64,65
 983 680 983 680 1086.5 724 c 128,-1,66
 1190 768 1190 768 1253.5 853.5 c 128,-1,67
 1317 939 1317 939 1317 1053 c 0,68,69
 1317 1156 1317 1156 1226.5 1205.5 c 128,-1,70
 1136 1255 1136 1255 1025 1266.5 c 128,-1,71
 914 1278 914 1278 784 1278 c 2,72,-1
 739 1278 l 1,73,74
 707 973 707 973 625.5 662.5 c 128,-1,75
 544 352 544 352 416 49 c 1,76,77
 396 13 396 13 349.5 -14 c 128,-1,78
 303 -41 303 -41 260 -45 c 1,79,-1
 250 -45 l 1,80,81
 246 -43 246 -43 241 -39 c 128,-1,82
 236 -35 236 -35 236 -29 c 0,0,1
EndSplineSet
EndChar

StartChar: S
Encoding: 83 83 54
Width: 1239
GlyphClass: 2
Flags: W
LayerCount: 2
Fore
SplineSet
37 254 m 0,0,1
 37 372 37 372 127 465 c 1,2,3
 166 501 166 501 217 526 c 128,-1,4
 268 551 268 551 315 551 c 2,5,-1
 328 551 l 1,6,7
 342 544 342 544 342 535 c 0,8,9
 342 524 342 524 335 514.5 c 128,-1,10
 328 505 328 505 321 499 c 128,-1,11
 314 493 314 493 299 481 c 0,12,13
 286 471 286 471 270.5 462.5 c 128,-1,14
 255 454 255 454 249 448.5 c 128,-1,15
 243 443 243 443 236 428 c 0,16,17
 219 386 219 386 219 342 c 0,18,19
 219 261 219 261 277.5 200.5 c 128,-1,20
 336 140 336 140 422.5 108 c 128,-1,21
 509 76 509 76 590 76 c 0,22,23
 694 76 694 76 785.5 108 c 128,-1,24
 877 140 877 140 935 207 c 128,-1,25
 993 274 993 274 993 379 c 0,26,27
 993 443 993 443 962.5 494 c 128,-1,28
 932 545 932 545 880 585 c 128,-1,29
 828 625 828 625 778 650.5 c 128,-1,30
 728 676 728 676 659 707 c 0,31,32
 540 762 540 762 465.5 831.5 c 128,-1,33
 391 901 391 901 391 1001 c 0,34,35
 391 1124 391 1124 488 1226 c 128,-1,36
 585 1328 585 1328 727 1386 c 128,-1,37
 869 1444 869 1444 983 1444 c 2,38,-1
 995 1444 l 2,39,40
 1064 1444 1064 1444 1138.5 1425.5 c 128,-1,41
 1213 1407 1213 1407 1264 1363 c 128,-1,42
 1315 1319 1315 1319 1315 1247 c 0,43,44
 1315 1161 1315 1161 1272 1118 c 1,45,46
 1200 1064 1200 1064 1145 1059 c 1,47,-1
 1133 1059 l 1,48,49
 1118 1066 1118 1066 1118 1077 c 1,50,51
 1122 1095 1122 1095 1124.5 1103 c 128,-1,52
 1127 1111 1127 1111 1130 1127 c 128,-1,53
 1133 1143 1133 1143 1133 1157 c 0,54,55
 1133 1247 1133 1247 1042.5 1285 c 128,-1,56
 952 1323 952 1323 846 1323 c 0,57,58
 729 1323 729 1323 651 1262 c 128,-1,59
 573 1201 573 1201 573 1092 c 0,60,61
 573 938 573 938 813 827 c 1,62,63
 913 783 913 783 990 738.5 c 128,-1,64
 1067 694 1067 694 1121.5 627 c 128,-1,65
 1176 560 1176 560 1176 469 c 0,66,67
 1176 321 1176 321 1058 203 c 128,-1,68
 940 85 940 85 768 20 c 128,-1,69
 596 -45 596 -45 453 -45 c 2,70,-1
 442 -45 l 2,71,72
 356 -45 356 -45 260 -9 c 128,-1,73
 164 27 164 27 100.5 95 c 128,-1,74
 37 163 37 163 37 254 c 0,0,1
EndSplineSet
EndChar

StartChar: T
Encoding: 84 84 55
Width: 1114
GlyphClass: 2
Flags: W
LayerCount: 2
Fore
SplineSet
424 -127 m 0,0,1
 424 -123 424 -123 428 -115 c 0,2,3
 460 -44 460 -44 487 26.5 c 128,-1,4
 514 97 514 97 534.5 162 c 128,-1,5
 555 227 555 227 573 303 c 1,6,-1
 805 1221 l 1,7,8
 815 1244 815 1244 844 1266 c 1,9,-1
 432 1266 l 2,10,11
 365 1266 365 1266 340 1245 c 1,12,13
 276 1184 276 1184 276 1106 c 0,14,15
 276 1081 276 1081 243.5 1053.5 c 128,-1,16
 211 1026 211 1026 167 1006 c 128,-1,17
 123 986 123 986 96 983 c 1,18,-1
 84 983 l 2,19,20
 70 983 70 983 70 1004 c 0,21,22
 70 1080 70 1080 121.5 1151.5 c 128,-1,23
 173 1223 173 1223 254.5 1279 c 128,-1,24
 336 1335 336 1335 426 1367 c 128,-1,25
 516 1399 516 1399 588 1399 c 2,26,-1
 1473 1399 l 2,27,28
 1518 1399 1518 1399 1540 1401 c 1,29,30
 1609 1460 1609 1460 1683 1468 c 1,31,-1
 1696 1468 l 2,32,33
 1701 1468 1701 1468 1704.5 1464 c 128,-1,34
 1708 1460 1708 1460 1708 1454 c 0,35,36
 1708 1436 1708 1436 1690 1413 c 0,37,38
 1622 1327 1622 1327 1530.5 1296.5 c 128,-1,39
 1439 1266 1439 1266 1317 1266 c 2,40,-1
 997 1266 l 1,41,-1
 778 395 l 2,42,43
 724 180 724 180 629 -33 c 1,44,45
 616 -57 616 -57 585.5 -80 c 128,-1,46
 555 -103 555 -103 516 -119.5 c 128,-1,47
 477 -136 477 -136 451 -139 c 1,48,-1
 438 -139 l 2,49,50
 424 -139 424 -139 424 -127 c 0,0,1
EndSplineSet
EndChar

StartChar: U
Encoding: 85 85 56
Width: 1280
GlyphClass: 2
Flags: W
LayerCount: 2
Fore
SplineSet
158 -45 m 2,0,1
 60 -45 60 -45 12.5 27.5 c 128,-1,2
 -35 100 -35 100 -35 203 c 0,3,4
 -35 278 -35 278 -6 377 c 1,5,6
 16 456 16 456 50 540.5 c 128,-1,7
 84 625 84 625 139 751 c 128,-1,8
 194 877 194 877 231 966 c 128,-1,9
 268 1055 268 1055 284.5 1114 c 128,-1,10
 301 1173 301 1173 301 1210 c 0,11,12
 301 1278 301 1278 242 1278 c 0,13,14
 214 1278 214 1278 191.5 1270.5 c 128,-1,15
 169 1263 169 1263 142.5 1247.5 c 128,-1,16
 116 1232 116 1232 93.5 1222 c 128,-1,17
 71 1212 71 1212 43 1208 c 1,18,-1
 33 1208 l 1,19,20
 18 1216 18 1216 18 1225 c 0,21,22
 18 1276 18 1276 155 1337.5 c 128,-1,23
 292 1399 292 1399 379 1399 c 2,24,-1
 391 1399 l 2,25,26
 483 1399 483 1399 483 1296 c 0,27,28
 483 1258 483 1258 463 1184 c 0,29,30
 446 1123 446 1123 410 1035.5 c 128,-1,31
 374 948 374 948 318.5 821.5 c 128,-1,32
 263 695 263 695 230.5 613.5 c 128,-1,33
 198 532 198 532 172 446 c 1,34,35
 147 355 147 355 147 289 c 0,36,37
 147 238 147 238 163.5 187.5 c 128,-1,38
 180 137 180 137 216 106.5 c 128,-1,39
 252 76 252 76 305 76 c 0,40,41
 322 76 322 76 354 84 c 1,42,43
 485 130 485 130 646.5 313 c 128,-1,44
 808 496 808 496 946.5 717.5 c 128,-1,45
 1085 939 1085 939 1155 1098 c 1,46,47
 1168 1132 1168 1132 1189.5 1192.5 c 128,-1,48
 1211 1253 1211 1253 1229 1305 c 1,49,50
 1253 1344 1253 1344 1297.5 1369 c 128,-1,51
 1342 1394 1342 1394 1384 1399 c 1,52,-1
 1395 1399 l 1,53,54
 1409 1392 1409 1392 1409 1380 c 1,55,56
 1385 1282 1385 1282 1333 1165 c 1,57,58
 1273 990 1273 990 1214 799.5 c 128,-1,59
 1155 609 1155 609 1110 417.5 c 128,-1,60
 1065 226 1065 226 1065 109 c 0,61,62
 1065 71 1065 71 1104 63 c 1,63,64
 1152 91 1152 91 1194 96 c 1,65,-1
 1204 96 l 1,66,67
 1219 88 1219 88 1219 80 c 0,68,69
 1219 52 1219 52 1171.5 20 c 128,-1,70
 1124 -12 1124 -12 1064 -34.5 c 128,-1,71
 1004 -57 1004 -57 975 -57 c 2,72,-1
 963 -57 l 2,73,74
 933 -57 933 -57 908 -36 c 128,-1,75
 883 -15 883 -15 883 16 c 0,76,77
 883 86 883 86 894 161 c 128,-1,78
 905 236 905 236 919.5 301.5 c 128,-1,79
 934 367 934 367 955.5 443 c 128,-1,80
 977 519 977 519 997 592 c 1,81,82
 892 447 892 447 757 302.5 c 128,-1,83
 622 158 622 158 465 56.5 c 128,-1,84
 308 -45 308 -45 168 -45 c 2,85,-1
 158 -45 l 2,0,1
EndSplineSet
EndChar

StartChar: V
Encoding: 86 86 57
Width: 1253
GlyphClass: 2
Flags: W
LayerCount: 2
Fore
SplineSet
373 -61 m 1,0,1
 372 -61 372 -61 381 -10 c 1,2,3
 428 332 428 332 428 569 c 0,4,5
 428 692 428 692 417.5 805 c 128,-1,6
 407 918 407 918 372 1030.5 c 128,-1,7
 337 1143 337 1143 265.5 1216.5 c 128,-1,8
 194 1290 194 1290 80 1290 c 1,9,10
 66 1296 66 1296 66 1309 c 0,11,12
 66 1329 66 1329 88 1348.5 c 128,-1,13
 110 1368 110 1368 142 1382 c 128,-1,14
 174 1396 174 1396 193 1399 c 1,15,-1
 207 1399 l 2,16,17
 435 1399 435 1399 510.5 1165 c 128,-1,18
 586 931 586 931 586 641 c 0,19,20
 586 444 586 444 555 182 c 1,21,22
 654 263 654 263 740.5 342 c 128,-1,23
 827 421 827 421 904.5 502.5 c 128,-1,24
 982 584 982 584 1055 674 c 1,25,26
 1106 740 1106 740 1144.5 796 c 128,-1,27
 1183 852 1183 852 1217 919.5 c 128,-1,28
 1251 987 1251 987 1251 1032 c 0,29,30
 1251 1082 1251 1082 1227.5 1120.5 c 128,-1,31
 1204 1159 1204 1159 1163 1180.5 c 128,-1,32
 1122 1202 1122 1202 1071 1202 c 0,33,34
 1057 1202 1057 1202 1057 1239 c 0,35,36
 1057 1278 1057 1278 1083 1338.5 c 128,-1,37
 1109 1399 1109 1399 1141 1399 c 0,38,39
 1206 1399 1206 1399 1254 1366 c 128,-1,40
 1302 1333 1302 1333 1326 1277.5 c 128,-1,41
 1350 1222 1350 1222 1350 1157 c 0,42,43
 1350 1008 1350 1008 1255.5 828 c 128,-1,44
 1161 648 1161 648 1011.5 470 c 128,-1,45
 862 292 862 292 701.5 146.5 c 128,-1,46
 541 1 541 1 406 -92 c 0,47,48
 396 -98 396 -98 389 -98 c 0,49,50
 373 -98 373 -98 373 -61 c 1,0,1
EndSplineSet
EndChar

StartChar: W
Encoding: 87 87 58
Width: 2021
GlyphClass: 2
Flags: W
LayerCount: 2
Fore
SplineSet
291 -61 m 0,0,1
 291 -52 291 -52 294 -39 c 128,-1,2
 297 -26 297 -26 300.5 -11.5 c 128,-1,3
 304 3 304 3 307 14 c 0,4,5
 335 148 335 148 360 338.5 c 128,-1,6
 385 529 385 529 385 705 c 0,7,8
 385 932 385 932 323.5 1111 c 128,-1,9
 262 1290 262 1290 80 1290 c 1,10,11
 66 1296 66 1296 66 1309 c 0,12,13
 66 1329 66 1329 88 1348.5 c 128,-1,14
 110 1368 110 1368 142 1382 c 128,-1,15
 174 1396 174 1396 193 1399 c 1,16,-1
 207 1399 l 2,17,18
 407 1399 407 1399 475 1210 c 128,-1,19
 543 1021 543 1021 543 776 c 0,20,21
 543 569 543 569 500 272 c 1,22,23
 676 498 676 498 842.5 756 c 128,-1,24
 1009 1014 1009 1014 1141 1272 c 1,25,-1
 1128 1305 l 1,26,27
 1128 1340 1128 1340 1172 1366.5 c 128,-1,28
 1216 1393 1216 1393 1255 1399 c 1,29,-1
 1272 1399 l 1,30,31
 1285 1390 1285 1390 1286 1389 c 0,32,33
 1404 1036 1404 1036 1460 698 c 1,34,35
 1474 623 1474 623 1484.5 537 c 128,-1,36
 1495 451 1495 451 1501.5 381.5 c 128,-1,37
 1508 312 1508 312 1516 195 c 1,38,39
 1573 264 1573 264 1658.5 377.5 c 128,-1,40
 1744 491 1744 491 1830.5 624 c 128,-1,41
 1917 757 1917 757 1970 869.5 c 128,-1,42
 2023 982 2023 982 2023 1055 c 0,43,44
 2023 1121 2023 1121 1988.5 1161.5 c 128,-1,45
 1954 1202 1954 1202 1890 1202 c 0,46,47
 1876 1202 1876 1202 1876 1239 c 0,48,49
 1876 1278 1876 1278 1902 1338.5 c 128,-1,50
 1928 1399 1928 1399 1960 1399 c 0,51,52
 2041 1399 2041 1399 2081.5 1332 c 128,-1,53
 2122 1265 2122 1265 2122 1178 c 0,54,55
 2122 943 2122 943 1874 539 c 0,56,57
 1776 381 1776 381 1642.5 199.5 c 128,-1,58
 1509 18 1509 18 1401 -90 c 1,59,60
 1389 -98 1389 -98 1380 -98 c 0,61,62
 1373 -98 1373 -98 1370.5 -94 c 128,-1,63
 1368 -90 1368 -90 1366.5 -82.5 c 128,-1,64
 1365 -75 1365 -75 1364 -70 c 1,65,66
 1364 544 1364 544 1174 1169 c 1,67,68
 1102 1028 1102 1028 1012 875 c 128,-1,69
 922 722 922 722 834 586 c 1,70,-1
 797 530 l 1,71,72
 767 487 767 487 647.5 321.5 c 128,-1,73
 528 156 528 156 428 29 c 128,-1,74
 328 -98 328 -98 307 -98 c 0,75,76
 291 -98 291 -98 291 -61 c 0,0,1
EndSplineSet
EndChar

StartChar: X
Encoding: 88 88 59
Width: 1460
GlyphClass: 2
Flags: W
LayerCount: 2
Fore
SplineSet
201 0 m 2,0,1
 157 0 157 0 130.5 35 c 128,-1,2
 104 70 104 70 104 117 c 0,3,4
 104 166 104 166 131 213 c 1,5,6
 172 270 172 270 247 332.5 c 128,-1,7
 322 395 322 395 412 455 c 128,-1,8
 502 515 502 515 610.5 580.5 c 128,-1,9
 719 646 719 646 760 670 c 2,10,-1
 834 715 l 1,11,-1
 805 1034 l 1,12,13
 805 1119 805 1119 773 1198.5 c 128,-1,14
 741 1278 741 1278 670 1278 c 2,15,-1
 651 1278 l 1,16,17
 630 1240 630 1240 585.5 1213.5 c 128,-1,18
 541 1187 541 1187 498 1184 c 1,19,-1
 485 1184 l 1,20,21
 471 1191 471 1191 471 1202 c 1,22,23
 497 1294 497 1294 598.5 1346.5 c 128,-1,24
 700 1399 700 1399 807 1399 c 2,25,-1
 819 1399 l 2,26,27
 907 1399 907 1399 947 1313.5 c 128,-1,28
 987 1228 987 1228 987 1130 c 1,29,-1
 1016 823 l 1,30,31
 1025 829 1025 829 1109 880 c 128,-1,32
 1193 931 1193 931 1261.5 976 c 128,-1,33
 1330 1021 1330 1021 1379 1058.5 c 128,-1,34
 1428 1096 1428 1096 1456 1130 c 1,35,36
 1473 1157 1473 1157 1473 1192 c 0,37,38
 1473 1228 1473 1228 1455.5 1253 c 128,-1,39
 1438 1278 1438 1278 1405 1278 c 1,40,41
 1401 1280 1401 1280 1396 1284 c 128,-1,42
 1391 1288 1391 1288 1391 1294 c 0,43,44
 1391 1328 1391 1328 1449.5 1361.5 c 128,-1,45
 1508 1395 1508 1395 1546 1399 c 1,46,-1
 1559 1399 l 2,47,48
 1604 1399 1604 1399 1629.5 1364 c 128,-1,49
 1655 1329 1655 1329 1655 1282 c 0,50,51
 1655 1230 1655 1230 1628 1186 c 1,52,53
 1580 1117 1580 1117 1475 1037 c 128,-1,54
 1370 957 1370 957 1265 891.5 c 128,-1,55
 1160 826 1160 826 1022 743 c 1,56,-1
 1059 365 l 1,57,58
 1059 280 1059 280 1090.5 200.5 c 128,-1,59
 1122 121 1122 121 1194 121 c 2,60,-1
 1210 121 l 1,61,62
 1232 158 1232 158 1277 185 c 128,-1,63
 1322 212 1322 212 1364 215 c 1,64,-1
 1376 215 l 1,65,66
 1391 208 1391 208 1391 197 c 1,67,68
 1374 134 1374 134 1320 90 c 128,-1,69
 1266 46 1266 46 1194.5 23 c 128,-1,70
 1123 0 1123 0 1055 0 c 2,71,-1
 1044 0 l 2,72,73
 957 0 957 0 917 84.5 c 128,-1,74
 877 169 877 169 877 268 c 1,75,-1
 842 635 l 1,76,77
 669 532 669 532 606.5 494.5 c 128,-1,78
 544 457 544 457 443 387 c 128,-1,79
 342 317 342 317 303 268 c 1,80,81
 287 244 287 244 287 207 c 0,82,83
 287 171 287 171 304.5 146 c 128,-1,84
 322 121 322 121 354 121 c 1,85,86
 369 113 369 113 369 104 c 0,87,88
 369 72 369 72 309 38 c 128,-1,89
 249 4 249 4 211 0 c 1,90,-1
 201 0 l 2,0,1
EndSplineSet
EndChar

StartChar: Y
Encoding: 89 89 60
Width: 1368
GlyphClass: 2
Flags: W
LayerCount: 2
Fore
SplineSet
63 -49 m 1,0,-1
 63 -37 l 1,1,2
 71 8 71 8 88.5 46 c 128,-1,3
 106 84 106 84 135 84 c 0,4,5
 142 84 142 84 147 75.5 c 128,-1,6
 152 67 152 67 152 59 c 1,7,8
 165 -21 165 -21 227 -68 c 128,-1,9
 289 -115 289 -115 373 -115 c 0,10,11
 463 -115 463 -115 678 66 c 1,12,13
 686 137 686 137 689 204 c 128,-1,14
 692 271 692 271 692 373 c 0,15,16
 692 505 692 505 679 654.5 c 128,-1,17
 666 804 666 804 626 949 c 128,-1,18
 586 1094 586 1094 502.5 1192 c 128,-1,19
 419 1290 419 1290 287 1290 c 1,20,21
 279 1284 279 1284 266 1270 c 128,-1,22
 253 1256 253 1256 233 1243 c 0,23,24
 208 1228 208 1228 166 1221 c 1,25,-1
 152 1221 l 1,26,27
 135 1227 135 1227 135 1239 c 0,28,29
 135 1264 135 1264 164 1292 c 128,-1,30
 193 1320 193 1320 240.5 1345.5 c 128,-1,31
 288 1371 288 1371 327.5 1385 c 128,-1,32
 367 1399 367 1399 395 1399 c 2,33,-1
 410 1399 l 2,34,35
 554 1399 554 1399 645 1297.5 c 128,-1,36
 736 1196 736 1196 778.5 1049.5 c 128,-1,37
 821 903 821 903 835.5 746 c 128,-1,38
 850 589 850 589 850 444 c 0,39,40
 850 419 850 419 848.5 373.5 c 128,-1,41
 847 328 847 328 845.5 283.5 c 128,-1,42
 844 239 844 239 844 213 c 1,43,44
 1037 406 1037 406 1174 608 c 1,45,46
 1242 712 1242 712 1309 850.5 c 128,-1,47
 1376 989 1376 989 1376 1069 c 0,48,49
 1376 1116 1376 1116 1352.5 1153.5 c 128,-1,50
 1329 1191 1329 1191 1289.5 1212 c 128,-1,51
 1250 1233 1250 1233 1202 1233 c 1,52,53
 1189 1244 1189 1244 1186 1268 c 1,54,-1
 1186 1278 l 1,55,56
 1193 1320 1193 1320 1212 1359.5 c 128,-1,57
 1231 1399 1231 1399 1262 1399 c 0,58,59
 1325 1399 1325 1399 1371.5 1365.5 c 128,-1,60
 1418 1332 1418 1332 1442 1278 c 128,-1,61
 1466 1224 1466 1224 1466 1161 c 2,62,-1
 1466 1149 l 2,63,64
 1466 1049 1466 1049 1411 906.5 c 128,-1,65
 1356 764 1356 764 1286 643 c 0,66,67
 1221 530 1221 530 1149.5 430 c 128,-1,68
 1078 330 1078 330 993 233 c 1,69,70
 900 131 900 131 782.5 18.5 c 128,-1,71
 665 -94 665 -94 533.5 -187.5 c 128,-1,72
 402 -281 402 -281 322 -281 c 0,73,74
 215 -281 215 -281 145 -217 c 128,-1,75
 75 -153 75 -153 63 -49 c 1,0,-1
EndSplineSet
EndChar

StartChar: Z
Encoding: 90 90 61
Width: 1483
GlyphClass: 2
Flags: W
LayerCount: 2
Fore
SplineSet
88 0 m 2,0,1
 74 0 74 0 74 14 c 0,2,3
 74 21 74 21 82 33 c 0,4,5
 95 52 95 52 121.5 75.5 c 128,-1,6
 148 99 148 99 174.5 120.5 c 128,-1,7
 201 142 201 142 227 164 c 0,8,9
 307 231 307 231 463 371 c 0,10,11
 650 539 650 539 831 715 c 1,12,-1
 612 715 l 1,13,14
 594 726 594 726 594 737 c 0,15,16
 594 764 594 764 629.5 785.5 c 128,-1,17
 665 807 665 807 696 811 c 1,18,-1
 928 811 l 1,19,20
 1037 920 1037 920 1131 1022 c 128,-1,21
 1225 1124 1225 1124 1305 1219 c 1,22,-1
 1300 1217 l 1,23,-1
 1278 1214 l 2,24,25
 1270 1212 1270 1212 1255 1212 c 2,26,-1
 1243 1212 l 2,27,28
 1163 1212 1163 1212 1015 1238.5 c 128,-1,29
 867 1265 867 1265 780 1266 c 0,30,31
 701 1266 701 1266 658 1238.5 c 128,-1,32
 615 1211 615 1211 596 1139 c 1,33,34
 581 1101 581 1101 520 1066 c 128,-1,35
 459 1031 459 1031 416 1026 c 1,36,-1
 403 1026 l 2,37,38
 389 1026 389 1026 389 1040 c 0,39,40
 389 1042 389 1042 391 1047 c 0,41,42
 414 1141 414 1141 507 1223 c 128,-1,43
 600 1305 600 1305 720.5 1352 c 128,-1,44
 841 1399 841 1399 940 1399 c 2,45,-1
 952 1399 l 2,46,47
 1009 1399 1009 1399 1059.5 1392.5 c 128,-1,48
 1110 1386 1110 1386 1168.5 1376 c 128,-1,49
 1227 1366 1227 1366 1297 1356 c 128,-1,50
 1367 1346 1367 1346 1423 1346 c 1,51,52
 1487 1391 1487 1391 1546 1399 c 1,53,-1
 1559 1399 l 2,54,55
 1565 1399 1565 1399 1569 1394 c 128,-1,56
 1573 1389 1573 1389 1573 1384 c 0,57,58
 1573 1368 1573 1368 1502 1285.5 c 128,-1,59
 1431 1203 1431 1203 1325.5 1090.5 c 128,-1,60
 1220 978 1220 978 1155 910 c 128,-1,61
 1090 842 1090 842 1059 811 c 1,62,63
 1095 811 1095 811 1130 807 c 128,-1,64
 1165 803 1165 803 1195 788 c 128,-1,65
 1225 773 1225 773 1225 745 c 0,66,67
 1225 709 1225 709 1192.5 687 c 128,-1,68
 1160 665 1160 665 1122 662 c 1,69,-1
 1110 662 l 1,70,71
 1094 674 1094 674 1094 682 c 2,72,-1
 1094 690 l 1,73,74
 1093 692 1093 692 1092.5 693 c 128,-1,75
 1092 694 1092 694 1090 696 c 0,76,77
 1058 711 1058 711 961 715 c 1,78,79
 675 438 675 438 375 180 c 1,80,81
 389 182 389 182 400.5 183 c 128,-1,82
 412 184 412 184 420 185 c 128,-1,83
 428 186 428 186 444 186 c 2,84,-1
 457 186 l 2,85,86
 537 186 537 186 625 178 c 128,-1,87
 713 170 713 170 781.5 162 c 128,-1,88
 850 154 850 154 948 144.5 c 128,-1,89
 1046 135 1046 135 1133 133 c 0,90,91
 1163 133 1163 133 1197 202 c 128,-1,92
 1231 271 1231 271 1243 319 c 1,93,94
 1253 345 1253 345 1285.5 370 c 128,-1,95
 1318 395 1318 395 1355.5 412 c 128,-1,96
 1393 429 1393 429 1423 432 c 1,97,-1
 1436 432 l 2,98,99
 1448 432 1448 432 1448 420 c 2,100,-1
 1448 412 l 1,101,102
 1405 249 1405 249 1270 129 c 1,103,104
 1110 0 1110 0 975 0 c 2,105,-1
 963 0 l 2,106,107
 882 0 882 0 834 4 c 128,-1,108
 786 8 786 8 662.5 22 c 128,-1,109
 539 36 539 36 446.5 44.5 c 128,-1,110
 354 53 354 53 285 53 c 0,111,112
 252 53 252 53 232 47 c 128,-1,113
 212 41 212 41 170.5 22.5 c 128,-1,114
 129 4 129 4 100 0 c 1,115,-1
 88 0 l 2,0,1
EndSplineSet
EndChar

StartChar: bracketleft
Encoding: 91 91 62
Width: 1364
GlyphClass: 2
Flags: W
LayerCount: 2
Fore
SplineSet
115 389 m 2,0,-1
 115 1188 l 2,1,2
 115 1203 115 1203 127 1214 c 128,-1,3
 139 1225 139 1225 156 1225 c 0,4,5
 171 1225 171 1225 184 1214 c 128,-1,6
 197 1203 197 1203 197 1188 c 2,7,-1
 197 395 l 2,8,9
 197 306 197 306 240.5 239 c 128,-1,10
 284 172 284 172 355.5 127.5 c 128,-1,11
 427 83 427 83 514 60 c 128,-1,12
 601 37 601 37 682 37 c 0,13,14
 764 37 764 37 851 59.5 c 128,-1,15
 938 82 938 82 1008.5 126 c 128,-1,16
 1079 170 1079 170 1123 238 c 128,-1,17
 1167 306 1167 306 1167 395 c 2,18,-1
 1167 1188 l 2,19,20
 1167 1203 1167 1203 1180 1214 c 128,-1,21
 1193 1225 1193 1225 1208 1225 c 0,22,23
 1225 1225 1225 1225 1237 1214 c 128,-1,24
 1249 1203 1249 1203 1249 1188 c 2,25,-1
 1249 389 l 2,26,27
 1249 285 1249 285 1198 202 c 128,-1,28
 1147 119 1147 119 1063.5 64 c 128,-1,29
 980 9 980 9 879 -18 c 128,-1,30
 778 -45 778 -45 682 -45 c 256,31,32
 586 -45 586 -45 485 -18 c 128,-1,33
 384 9 384 9 300.5 64 c 128,-1,34
 217 119 217 119 166 202 c 128,-1,35
 115 285 115 285 115 389 c 2,0,-1
EndSplineSet
EndChar

StartChar: backslash
Encoding: 92 92 63
Width: 1364
GlyphClass: 2
Flags: W
LayerCount: 2
Fore
SplineSet
115 -8 m 2,0,-1
 115 791 l 2,1,2
 115 927 115 927 200 1026 c 128,-1,3
 285 1125 285 1125 418 1175 c 128,-1,4
 551 1225 551 1225 682 1225 c 0,5,6
 779 1225 779 1225 878.5 1198.5 c 128,-1,7
 978 1172 978 1172 1062.5 1116.5 c 128,-1,8
 1147 1061 1147 1061 1198 978 c 128,-1,9
 1249 895 1249 895 1249 791 c 2,10,-1
 1249 -8 l 2,11,12
 1249 -24 1249 -24 1237 -34.5 c 128,-1,13
 1225 -45 1225 -45 1208 -45 c 0,14,15
 1193 -45 1193 -45 1180 -34.5 c 128,-1,16
 1167 -24 1167 -24 1167 -8 c 2,17,-1
 1167 784 l 2,18,19
 1167 874 1167 874 1122.5 942.5 c 128,-1,20
 1078 1011 1078 1011 1008.5 1054 c 128,-1,21
 939 1097 939 1097 852 1120 c 128,-1,22
 765 1143 765 1143 682 1143 c 0,23,24
 568 1143 568 1143 456.5 1103 c 128,-1,25
 345 1063 345 1063 271 982 c 128,-1,26
 197 901 197 901 197 784 c 2,27,-1
 197 -8 l 2,28,29
 197 -24 197 -24 184 -34.5 c 128,-1,30
 171 -45 171 -45 156 -45 c 0,31,32
 139 -45 139 -45 127 -34.5 c 128,-1,33
 115 -24 115 -24 115 -8 c 2,0,-1
EndSplineSet
EndChar

StartChar: bracketright
Encoding: 93 93 64
Width: 1364
GlyphClass: 2
Flags: W
LayerCount: 2
Fore
SplineSet
115 389 m 2,0,-1
 115 1188 l 2,1,2
 115 1203 115 1203 127 1214 c 128,-1,3
 139 1225 139 1225 156 1225 c 0,4,5
 171 1225 171 1225 184 1214 c 128,-1,6
 197 1203 197 1203 197 1188 c 2,7,-1
 197 395 l 2,8,9
 197 306 197 306 240.5 239 c 128,-1,10
 284 172 284 172 355.5 127.5 c 128,-1,11
 427 83 427 83 514 60 c 128,-1,12
 601 37 601 37 682 37 c 0,13,14
 764 37 764 37 851 59.5 c 128,-1,15
 938 82 938 82 1008.5 126 c 128,-1,16
 1079 170 1079 170 1123 238 c 128,-1,17
 1167 306 1167 306 1167 395 c 2,18,-1
 1167 1188 l 2,19,20
 1167 1203 1167 1203 1180 1214 c 128,-1,21
 1193 1225 1193 1225 1208 1225 c 0,22,23
 1225 1225 1225 1225 1237 1214 c 128,-1,24
 1249 1203 1249 1203 1249 1188 c 2,25,-1
 1249 389 l 2,26,27
 1249 285 1249 285 1198 202 c 128,-1,28
 1147 119 1147 119 1063.5 64 c 128,-1,29
 980 9 980 9 879 -18 c 128,-1,30
 778 -45 778 -45 682 -45 c 256,31,32
 586 -45 586 -45 485 -18 c 128,-1,33
 384 9 384 9 300.5 64 c 128,-1,34
 217 119 217 119 166 202 c 128,-1,35
 115 285 115 285 115 389 c 2,0,-1
317 584 m 2,36,37
 301 584 301 584 290 596 c 128,-1,38
 279 608 279 608 279 625 c 0,39,40
 279 640 279 640 290 653 c 128,-1,41
 301 666 301 666 317 666 c 2,42,-1
 641 666 l 1,43,-1
 641 991 l 2,44,45
 641 1007 641 1007 654 1017.5 c 128,-1,46
 667 1028 667 1028 682 1028 c 256,47,48
 697 1028 697 1028 710 1017.5 c 128,-1,49
 723 1007 723 1007 723 991 c 2,50,-1
 723 666 l 1,51,-1
 1049 666 l 2,52,53
 1064 666 1064 666 1074.5 653 c 128,-1,54
 1085 640 1085 640 1085 625 c 0,55,56
 1085 609 1085 609 1074.5 596.5 c 128,-1,57
 1064 584 1064 584 1049 584 c 2,58,-1
 723 584 l 1,59,-1
 723 260 l 2,60,61
 723 244 723 244 709.5 232.5 c 128,-1,62
 696 221 696 221 682 221 c 256,63,64
 668 221 668 221 654.5 232.5 c 128,-1,65
 641 244 641 244 641 260 c 2,66,-1
 641 584 l 1,67,-1
 317 584 l 2,36,37
EndSplineSet
EndChar

StartChar: asciicircum
Encoding: 94 94 65
Width: 1364
GlyphClass: 2
Flags: W
LayerCount: 2
Fore
SplineSet
115 -4 m 0,0,1
 115 6 115 6 119 12 c 1,2,-1
 645 1200 l 2,3,4
 656 1225 656 1225 682 1225 c 0,5,6
 707 1225 707 1225 721 1200 c 1,7,-1
 1247 12 l 2,8,9
 1249 6 1249 6 1249 -4 c 0,10,11
 1249 -22 1249 -22 1237 -33.5 c 128,-1,12
 1225 -45 1225 -45 1208 -45 c 0,13,14
 1183 -45 1183 -45 1171 -20 c 2,15,-1
 682 1083 l 1,16,-1
 195 -20 l 1,17,18
 180 -45 180 -45 156 -45 c 0,19,20
 139 -45 139 -45 127 -33 c 128,-1,21
 115 -21 115 -21 115 -4 c 0,0,1
EndSplineSet
EndChar

StartChar: underscore
Encoding: 95 95 66
Width: 1364
GlyphClass: 2
Flags: W
LayerCount: 2
Fore
SplineSet
645 -20 m 2,0,-1
 119 1169 l 1,1,2
 115 1174 115 1174 115 1184 c 0,3,4
 115 1199 115 1199 127 1212 c 128,-1,5
 139 1225 139 1225 156 1225 c 0,6,7
 179 1225 179 1225 195 1200 c 1,8,-1
 682 96 l 1,9,-1
 1171 1200 l 2,10,11
 1183 1225 1183 1225 1208 1225 c 0,12,13
 1225 1225 1225 1225 1237 1213 c 128,-1,14
 1249 1201 1249 1201 1249 1184 c 0,15,16
 1249 1174 1249 1174 1247 1169 c 2,17,-1
 721 -20 l 1,18,19
 708 -45 708 -45 682 -45 c 0,20,21
 655 -45 655 -45 645 -20 c 2,0,-1
EndSplineSet
EndChar

StartChar: grave
Encoding: 96 96 67
Width: 1251
GlyphClass: 2
Flags: W
LayerCount: 2
Fore
SplineSet
115 39 m 2,0,-1
 115 1384 l 2,1,2
 115 1400 115 1400 127 1410.5 c 128,-1,3
 139 1421 139 1421 156 1421 c 0,4,5
 171 1421 171 1421 184 1410.5 c 128,-1,6
 197 1400 197 1400 197 1384 c 2,7,-1
 197 752 l 1,8,-1
 1098 752 l 2,9,10
 1113 752 1113 752 1124 739 c 128,-1,11
 1135 726 1135 726 1135 711 c 0,12,13
 1135 694 1135 694 1124 682 c 128,-1,14
 1113 670 1113 670 1098 670 c 2,15,-1
 197 670 l 1,16,-1
 197 39 l 2,17,18
 197 22 197 22 184 11 c 128,-1,19
 171 0 171 0 156 0 c 0,20,21
 139 0 139 0 127 11 c 128,-1,22
 115 22 115 22 115 39 c 2,0,-1
EndSplineSet
EndChar

StartChar: a
Encoding: 97 97 68
Width: 1251
GlyphClass: 2
Flags: W
LayerCount: 2
Fore
SplineSet
154 670 m 2,0,1
 137 670 137 670 126 682 c 128,-1,2
 115 694 115 694 115 711 c 0,3,4
 115 726 115 726 126 739 c 128,-1,5
 137 752 137 752 154 752 c 2,6,-1
 1053 752 l 1,7,-1
 1053 1384 l 2,8,9
 1053 1400 1053 1400 1065 1410.5 c 128,-1,10
 1077 1421 1077 1421 1094 1421 c 0,11,12
 1109 1421 1109 1421 1122 1410.5 c 128,-1,13
 1135 1400 1135 1400 1135 1384 c 2,14,-1
 1135 39 l 2,15,16
 1135 22 1135 22 1122 11 c 128,-1,17
 1109 0 1109 0 1094 0 c 0,18,19
 1077 0 1077 0 1065 11 c 128,-1,20
 1053 22 1053 22 1053 39 c 2,21,-1
 1053 670 l 1,22,-1
 154 670 l 2,0,1
EndSplineSet
EndChar

StartChar: b
Encoding: 98 98 69
Width: 909
GlyphClass: 2
Flags: W
LayerCount: 2
Fore
SplineSet
356 -475 m 2,0,-1
 356 1499 l 2,1,2
 356 1515 356 1515 369 1525.5 c 128,-1,3
 382 1536 382 1536 397 1536 c 0,4,5
 414 1536 414 1536 426 1525.5 c 128,-1,6
 438 1515 438 1515 438 1499 c 2,7,-1
 438 -430 l 1,8,-1
 827 -430 l 2,9,10
 843 -430 843 -430 853.5 -443 c 128,-1,11
 864 -456 864 -456 864 -471 c 0,12,13
 864 -488 864 -488 853.5 -500 c 128,-1,14
 843 -512 843 -512 827 -512 c 2,15,-1
 395 -512 l 2,16,17
 381 -512 381 -512 368.5 -500.5 c 128,-1,18
 356 -489 356 -489 356 -475 c 2,0,-1
EndSplineSet
EndChar

StartChar: c
Encoding: 99 99 70
Width: 909
GlyphClass: 2
Flags: W
LayerCount: 2
Fore
SplineSet
80 -512 m 2,0,1
 64 -512 64 -512 53.5 -500 c 128,-1,2
 43 -488 43 -488 43 -471 c 0,3,4
 43 -456 43 -456 53.5 -443 c 128,-1,5
 64 -430 64 -430 80 -430 c 2,6,-1
 469 -430 l 1,7,-1
 469 1499 l 2,8,9
 469 1515 469 1515 481 1525.5 c 128,-1,10
 493 1536 493 1536 510 1536 c 0,11,12
 525 1536 525 1536 538 1525.5 c 128,-1,13
 551 1515 551 1515 551 1499 c 2,14,-1
 551 -475 l 2,15,16
 551 -489 551 -489 538.5 -500.5 c 128,-1,17
 526 -512 526 -512 514 -512 c 2,18,-1
 80 -512 l 2,0,1
EndSplineSet
EndChar

StartChar: d
Encoding: 100 100 71
Width: 909
GlyphClass: 2
Flags: W
LayerCount: 2
Fore
SplineSet
356 -475 m 2,0,-1
 356 1499 l 2,1,2
 356 1513 356 1513 367.5 1524.5 c 128,-1,3
 379 1536 379 1536 395 1536 c 2,4,-1
 827 1536 l 2,5,6
 843 1536 843 1536 853.5 1524 c 128,-1,7
 864 1512 864 1512 864 1495 c 0,8,9
 864 1480 864 1480 853.5 1467 c 128,-1,10
 843 1454 843 1454 827 1454 c 2,11,-1
 438 1454 l 1,12,-1
 438 -475 l 2,13,14
 438 -491 438 -491 426 -501.5 c 128,-1,15
 414 -512 414 -512 397 -512 c 0,16,17
 382 -512 382 -512 369 -501.5 c 128,-1,18
 356 -491 356 -491 356 -475 c 2,0,-1
EndSplineSet
EndChar

StartChar: e
Encoding: 101 101 72
Width: 909
GlyphClass: 2
Flags: W
LayerCount: 2
Fore
SplineSet
469 -475 m 2,0,-1
 469 1454 l 1,1,-1
 80 1454 l 2,2,3
 64 1454 64 1454 53.5 1467 c 128,-1,4
 43 1480 43 1480 43 1495 c 0,5,6
 43 1512 43 1512 53.5 1524 c 128,-1,7
 64 1536 64 1536 80 1536 c 2,8,-1
 514 1536 l 2,9,10
 528 1536 528 1536 539.5 1524.5 c 128,-1,11
 551 1513 551 1513 551 1499 c 2,12,-1
 551 -475 l 2,13,14
 551 -491 551 -491 538 -501.5 c 128,-1,15
 525 -512 525 -512 510 -512 c 0,16,17
 493 -512 493 -512 481 -501.5 c 128,-1,18
 469 -491 469 -491 469 -475 c 2,0,-1
EndSplineSet
EndChar

StartChar: f
Encoding: 102 102 73
Width: 1024
GlyphClass: 2
Flags: W
LayerCount: 2
Fore
SplineSet
438 -246 m 2,0,-1
 438 254 l 2,1,2
 438 357 438 357 354 421 c 128,-1,3
 270 485 270 485 162 485 c 0,4,5
 143 485 143 485 143 504 c 2,6,-1
 143 522 l 2,7,8
 143 528 143 528 148 533.5 c 128,-1,9
 153 539 153 539 162 539 c 0,10,11
 270 539 270 539 354 603 c 128,-1,12
 438 667 438 667 438 770 c 2,13,-1
 438 1270 l 2,14,15
 438 1363 438 1363 501.5 1422.5 c 128,-1,16
 565 1482 565 1482 658.5 1509 c 128,-1,17
 752 1536 752 1536 844 1536 c 2,18,-1
 862 1536 l 2,19,20
 868 1536 868 1536 873.5 1531.5 c 128,-1,21
 879 1527 879 1527 879 1520 c 2,22,-1
 879 1501 l 2,23,24
 879 1483 879 1483 862 1483 c 0,25,26
 795 1483 795 1483 730.5 1458 c 128,-1,27
 666 1433 666 1433 625 1384 c 128,-1,28
 584 1335 584 1335 584 1266 c 2,29,-1
 584 766 l 2,30,31
 584 700 584 700 549 648 c 128,-1,32
 514 596 514 596 457.5 562 c 128,-1,33
 401 528 401 528 336 512 c 1,34,35
 439 487 439 487 511.5 421.5 c 128,-1,36
 584 356 584 356 584 258 c 2,37,-1
 584 -242 l 2,38,39
 584 -344 584 -344 669 -401.5 c 128,-1,40
 754 -459 754 -459 862 -459 c 0,41,42
 868 -459 868 -459 873.5 -463.5 c 128,-1,43
 879 -468 879 -468 879 -477 c 2,44,-1
 879 -496 l 2,45,46
 879 -502 879 -502 873.5 -507 c 128,-1,47
 868 -512 868 -512 862 -512 c 2,48,-1
 844 -512 l 2,49,50
 696 -512 696 -512 567 -446 c 128,-1,51
 438 -380 438 -380 438 -246 c 2,0,-1
EndSplineSet
EndChar

StartChar: g
Encoding: 103 103 74
Width: 1024
GlyphClass: 2
Flags: W
LayerCount: 2
Fore
SplineSet
143 -496 m 2,0,-1
 143 -477 l 2,1,2
 143 -469 143 -469 148.5 -464 c 128,-1,3
 154 -459 154 -459 162 -459 c 0,4,5
 228 -459 228 -459 292 -434 c 128,-1,6
 356 -409 356 -409 397 -360 c 128,-1,7
 438 -311 438 -311 438 -242 c 2,8,-1
 438 258 l 2,9,10
 438 356 438 356 511 421.5 c 128,-1,11
 584 487 584 487 686 512 c 1,12,13
 582 539 582 539 510 603.5 c 128,-1,14
 438 668 438 668 438 766 c 2,15,-1
 438 1266 l 2,16,17
 438 1335 438 1335 397 1384 c 128,-1,18
 356 1433 356 1433 292.5 1458 c 128,-1,19
 229 1483 229 1483 162 1483 c 0,20,21
 143 1483 143 1483 143 1501 c 2,22,-1
 143 1520 l 2,23,24
 143 1536 143 1536 162 1536 c 2,25,-1
 180 1536 l 2,26,27
 271 1536 271 1536 364.5 1509 c 128,-1,28
 458 1482 458 1482 521 1422 c 128,-1,29
 584 1362 584 1362 584 1270 c 2,30,-1
 584 770 l 2,31,32
 584 667 584 667 669 603 c 128,-1,33
 754 539 754 539 862 539 c 0,34,35
 868 539 868 539 873.5 534 c 128,-1,36
 879 529 879 529 879 522 c 2,37,-1
 879 504 l 2,38,39
 879 496 879 496 874 490.5 c 128,-1,40
 869 485 869 485 862 485 c 0,41,42
 754 485 754 485 669 421 c 128,-1,43
 584 357 584 357 584 254 c 2,44,-1
 584 -246 l 2,45,46
 584 -381 584 -381 456 -446.5 c 128,-1,47
 328 -512 328 -512 180 -512 c 2,48,-1
 162 -512 l 2,49,50
 143 -512 143 -512 143 -496 c 2,0,-1
EndSplineSet
EndChar

StartChar: h
Encoding: 104 104 75
Width: 795
GlyphClass: 2
Flags: W
LayerCount: 2
Fore
SplineSet
602 -487 m 1,0,-1
 229 498 l 2,1,2
 225 506 225 506 225 512 c 0,3,4
 225 516 225 516 229 528 c 2,5,-1
 602 1511 l 1,6,7
 609 1536 609 1536 639 1536 c 0,8,9
 657 1536 657 1536 668.5 1525 c 128,-1,10
 680 1514 680 1514 680 1495 c 0,11,12
 680 1490 680 1490 679.5 1487 c 128,-1,13
 679 1484 679 1484 678 1481 c 2,14,-1
 309 512 l 1,15,-1
 678 -457 l 2,16,17
 679 -460 679 -460 679.5 -462.5 c 128,-1,18
 680 -465 680 -465 680 -471 c 0,19,20
 680 -489 680 -489 668 -500.5 c 128,-1,21
 656 -512 656 -512 639 -512 c 0,22,23
 609 -512 609 -512 602 -487 c 1,0,-1
EndSplineSet
EndChar

StartChar: i
Encoding: 105 105 76
Width: 795
GlyphClass: 2
Flags: W
LayerCount: 2
Fore
SplineSet
115 -471 m 0,0,1
 115 -465 115 -465 119 -457 c 2,2,-1
 485 512 l 1,3,-1
 119 1481 l 2,4,5
 115 1489 115 1489 115 1495 c 0,6,7
 115 1512 115 1512 126 1524 c 128,-1,8
 137 1536 137 1536 156 1536 c 0,9,10
 183 1536 183 1536 195 1511 c 1,11,-1
 567 528 l 2,12,13
 568 524 568 524 568.5 521 c 128,-1,14
 569 518 569 518 569 512 c 0,15,16
 569 507 569 507 568.5 504 c 128,-1,17
 568 501 568 501 567 498 c 2,18,-1
 195 -487 l 1,19,20
 183 -512 183 -512 156 -512 c 0,21,22
 139 -512 139 -512 127 -500 c 128,-1,23
 115 -488 115 -488 115 -471 c 0,0,1
EndSplineSet
EndChar

StartChar: j
Encoding: 106 106 77
Width: 567
GlyphClass: 2
Flags: W
LayerCount: 2
Fore
SplineSet
244 -475 m 2,0,-1
 244 1499 l 2,1,2
 244 1515 244 1515 256 1525.5 c 128,-1,3
 268 1536 268 1536 285 1536 c 0,4,5
 300 1536 300 1536 313 1525.5 c 128,-1,6
 326 1515 326 1515 326 1499 c 2,7,-1
 326 -475 l 2,8,9
 326 -491 326 -491 313 -501.5 c 128,-1,10
 300 -512 300 -512 285 -512 c 0,11,12
 268 -512 268 -512 256 -501.5 c 128,-1,13
 244 -491 244 -491 244 -475 c 2,0,-1
EndSplineSet
EndChar

StartChar: k
Encoding: 107 107 78
Width: 1024
GlyphClass: 2
Flags: W
LayerCount: 2
Fore
SplineSet
272 -475 m 2,0,-1
 272 1499 l 2,1,2
 272 1515 272 1515 285 1525.5 c 128,-1,3
 298 1536 298 1536 313 1536 c 0,4,5
 330 1536 330 1536 342 1525.5 c 128,-1,6
 354 1515 354 1515 354 1499 c 2,7,-1
 354 -475 l 2,8,9
 354 -491 354 -491 342 -501.5 c 128,-1,10
 330 -512 330 -512 313 -512 c 0,11,12
 298 -512 298 -512 285 -501.5 c 128,-1,13
 272 -491 272 -491 272 -475 c 2,0,-1
670 -475 m 2,14,-1
 670 1499 l 2,15,16
 670 1515 670 1515 682 1525.5 c 128,-1,17
 694 1536 694 1536 711 1536 c 0,18,19
 726 1536 726 1536 739 1525.5 c 128,-1,20
 752 1515 752 1515 752 1499 c 2,21,-1
 752 -475 l 2,22,23
 752 -491 752 -491 739 -501.5 c 128,-1,24
 726 -512 726 -512 711 -512 c 0,25,26
 694 -512 694 -512 682 -501.5 c 128,-1,27
 670 -491 670 -491 670 -475 c 2,14,-1
EndSplineSet
EndChar

StartChar: l
Encoding: 108 108 79
Width: 1024
GlyphClass: 2
Flags: W
LayerCount: 2
Fore
SplineSet
489 -539 m 1,0,1
 472 -420 472 -420 412 -322.5 c 128,-1,2
 352 -225 352 -225 257 -156.5 c 128,-1,3
 162 -88 162 -88 49 -63 c 1,4,5
 35 -58 35 -58 35 -45 c 2,6,-1
 35 0 l 2,7,8
 35 8 35 8 42.5 13 c 128,-1,9
 50 18 50 18 57 18 c 0,10,11
 59 18 59 18 63 16 c 1,12,13
 145 -2 145 -2 221 -41.5 c 128,-1,14
 297 -81 297 -81 361.5 -140.5 c 128,-1,15
 426 -200 426 -200 471 -274 c 1,16,-1
 471 1298 l 1,17,18
 403 1187 403 1187 296 1111 c 128,-1,19
 189 1035 189 1035 63 1008 c 1,20,21
 59 1006 59 1006 57 1006 c 0,22,23
 51 1006 51 1006 43 1012.5 c 128,-1,24
 35 1019 35 1019 35 1024 c 2,25,-1
 35 1069 l 2,26,27
 35 1082 35 1082 49 1087 c 1,28,29
 162 1112 162 1112 257 1180.5 c 128,-1,30
 352 1249 352 1249 412 1346.5 c 128,-1,31
 472 1444 472 1444 489 1563 c 1,32,33
 493 1572 493 1572 499 1576.5 c 128,-1,34
 505 1581 505 1581 512 1581 c 256,35,36
 519 1581 519 1581 526 1575.5 c 128,-1,37
 533 1570 533 1570 535 1563 c 1,38,39
 559 1389 559 1389 681 1257.5 c 128,-1,40
 803 1126 803 1126 975 1087 c 1,41,42
 989 1082 989 1082 989 1069 c 2,43,-1
 989 1024 l 2,44,45
 989 1018 989 1018 982 1012 c 128,-1,46
 975 1006 975 1006 967 1006 c 0,47,48
 965 1006 965 1006 961 1008 c 1,49,50
 837 1035 837 1035 729 1111 c 128,-1,51
 621 1187 621 1187 553 1298 c 1,52,-1
 553 -274 l 1,53,54
 620 -164 620 -164 728.5 -87.5 c 128,-1,55
 837 -11 837 -11 961 16 c 1,56,57
 965 18 965 18 967 18 c 0,58,59
 975 18 975 18 982 13 c 128,-1,60
 989 8 989 8 989 0 c 2,61,-1
 989 -45 l 2,62,63
 989 -50 989 -50 985 -55.5 c 128,-1,64
 981 -61 981 -61 975 -63 c 0,65,66
 862 -88 862 -88 767 -156.5 c 128,-1,67
 672 -225 672 -225 612 -322.5 c 128,-1,68
 552 -420 552 -420 535 -539 c 1,69,70
 530 -557 530 -557 512 -557 c 256,71,72
 494 -557 494 -557 489 -539 c 1,0,1
EndSplineSet
EndChar

StartChar: m
Encoding: 109 109 80
Width: 1251
GlyphClass: 2
Flags: W
LayerCount: 2
Fore
SplineSet
604 -545 m 1,0,1
 556 -424 556 -424 479 -318.5 c 128,-1,2
 402 -213 402 -213 301 -134.5 c 128,-1,3
 200 -56 200 -56 78 -6 c 0,4,5
 61 0 61 0 61 12 c 2,6,-1
 61 57 l 2,7,8
 61 63 61 63 69 69.5 c 128,-1,9
 77 76 77 76 84 76 c 0,10,11
 119 76 119 76 229 7 c 128,-1,12
 339 -62 339 -62 385 -104 c 1,13,-1
 385 1128 l 1,14,15
 338 1087 338 1087 228.5 1017.5 c 128,-1,16
 119 948 119 948 84 948 c 0,17,18
 77 948 77 948 69 954.5 c 128,-1,19
 61 961 61 961 61 967 c 2,20,-1
 61 1012 l 2,21,22
 61 1017 61 1017 66.5 1022.5 c 128,-1,23
 72 1028 72 1028 78 1030 c 0,24,25
 198 1078 198 1078 300 1157.5 c 128,-1,26
 402 1237 402 1237 478.5 1340.5 c 128,-1,27
 555 1444 555 1444 606 1571 c 0,28,29
 609 1581 609 1581 625 1581 c 0,30,31
 640 1581 640 1581 647 1563 c 0,32,33
 716 1383 716 1383 853.5 1243 c 128,-1,34
 991 1103 991 1103 1171 1030 c 1,35,36
 1188 1025 1188 1025 1188 1012 c 2,37,-1
 1188 967 l 2,38,39
 1188 959 1188 959 1180 953.5 c 128,-1,40
 1172 948 1172 948 1165 948 c 0,41,42
 1130 948 1130 948 1022.5 1017 c 128,-1,43
 915 1086 915 1086 864 1128 c 1,44,-1
 864 -104 l 1,45,46
 912 -62 912 -62 1021 7 c 128,-1,47
 1130 76 1130 76 1165 76 c 0,48,49
 1172 76 1172 76 1180 70.5 c 128,-1,50
 1188 65 1188 65 1188 57 c 2,51,-1
 1188 12 l 2,52,53
 1188 -1 1188 -1 1171 -6 c 1,54,55
 1051 -54 1051 -54 948.5 -134 c 128,-1,56
 846 -214 846 -214 771.5 -316 c 128,-1,57
 697 -418 697 -418 645 -547 c 1,58,59
 638 -557 638 -557 625 -557 c 256,60,61
 612 -557 612 -557 604 -545 c 1,0,1
625 -401 m 1,62,63
 690 -281 690 -281 782 -182 c 1,64,-1
 782 1206 l 1,65,66
 690 1305 690 1305 625 1425 c 1,67,68
 561 1308 561 1308 467 1206 c 1,69,-1
 467 -182 l 1,70,71
 561 -284 561 -284 625 -401 c 1,62,63
EndSplineSet
EndChar

StartChar: n
Encoding: 110 110 81
Width: 1024
GlyphClass: 2
Flags: W
LayerCount: 2
Fore
SplineSet
829 -487 m 2,0,-1
 119 1481 l 1,1,2
 115 1489 115 1489 115 1495 c 0,3,4
 115 1512 115 1512 126 1524 c 128,-1,5
 137 1536 137 1536 156 1536 c 0,6,7
 183 1536 183 1536 195 1511 c 1,8,-1
 905 -457 l 2,9,10
 906 -460 906 -460 906.5 -462.5 c 128,-1,11
 907 -465 907 -465 907 -471 c 0,12,13
 907 -489 907 -489 895 -500.5 c 128,-1,14
 883 -512 883 -512 866 -512 c 0,15,16
 837 -512 837 -512 829 -487 c 2,0,-1
EndSplineSet
EndChar

StartChar: o
Encoding: 111 111 82
Width: 567
GlyphClass: 2
Flags: W
LayerCount: 2
Fore
SplineSet
389 -170 m 2,0,1
 298 -170 298 -170 236 -118 c 128,-1,2
 174 -66 174 -66 144.5 15.5 c 128,-1,3
 115 97 115 97 115 186 c 0,4,5
 115 283 115 283 171 398 c 128,-1,6
 227 513 227 513 282.5 628 c 128,-1,7
 338 743 338 743 338 840 c 0,8,9
 338 938 338 938 294.5 1037.5 c 128,-1,10
 251 1137 251 1137 166 1137 c 1,11,12
 115 1143 115 1143 115 1165 c 0,13,14
 115 1188 115 1188 166 1194 c 1,15,-1
 178 1194 l 2,16,17
 313 1194 313 1194 383 1088 c 128,-1,18
 453 982 453 982 453 840 c 0,19,20
 453 759 453 759 425 687 c 128,-1,21
 397 615 397 615 341.5 513 c 128,-1,22
 286 411 286 411 257.5 337.5 c 128,-1,23
 229 264 229 264 229 184 c 0,24,25
 229 86 229 86 273.5 -13.5 c 128,-1,26
 318 -113 318 -113 401 -113 c 1,27,28
 453 -119 453 -119 453 -141 c 0,29,30
 453 -164 453 -164 401 -170 c 1,31,-1
 389 -170 l 2,0,1
EndSplineSet
EndChar

StartChar: p
Encoding: 112 112 83
Width: 1706
GlyphClass: 2
Flags: W
LayerCount: 2
Fore
SplineSet
719 -1954 m 1,0,-1
 311 -1057 l 1,1,-1
 190 -1149 l 1,2,3
 184 -1155 184 -1155 176 -1155 c 0,4,5
 167 -1155 167 -1155 157 -1146 c 128,-1,6
 147 -1137 147 -1137 147 -1126 c 0,7,8
 147 -1116 147 -1116 156 -1110 c 2,9,-1
 399 -926 l 1,10,11
 405 -920 405 -920 414 -920 c 0,12,13
 427 -920 427 -920 434 -934 c 2,14,-1
 801 -1741 l 1,15,-1
 1671 63 l 2,16,17
 1681 82 1681 82 1706 82 c 0,18,19
 1723 82 1723 82 1735 70 c 128,-1,20
 1747 58 1747 58 1747 41 c 0,21,22
 1747 31 1747 31 1745 27 c 2,23,-1
 793 -1948 l 1,24,25
 780 -1966 780 -1966 760 -1966 c 2,26,-1
 737 -1966 l 2,27,28
 727 -1966 727 -1966 719 -1954 c 1,0,-1
EndSplineSet
EndChar

StartChar: q
Encoding: 113 113 84
Width: 1536
GlyphClass: 2
Flags: W
LayerCount: 2
Fore
SplineSet
70 18 m 2,0,-1
 70 53 l 2,1,2
 70 60 70 60 77 66 c 128,-1,3
 84 72 84 72 90 72 c 0,4,5
 252 72 252 72 270 94 c 1,6,7
 281 112 281 112 281 141 c 2,8,-1
 281 1257 l 2,9,10
 281 1304 281 1304 260 1313 c 1,11,12
 217 1327 217 1327 90 1327 c 0,13,14
 85 1327 85 1327 77.5 1333.5 c 128,-1,15
 70 1340 70 1340 70 1346 c 2,16,-1
 70 1380 l 2,17,18
 70 1386 70 1386 78 1392.5 c 128,-1,19
 86 1399 86 1399 92 1399 c 2,20,-1
 647 1399 l 2,21,22
 654 1399 654 1399 662 1393 c 128,-1,23
 670 1387 670 1387 670 1380 c 2,24,-1
 670 1346 l 2,25,26
 670 1339 670 1339 662 1333 c 128,-1,27
 654 1327 654 1327 649 1327 c 0,28,29
 487 1327 487 1327 469 1305 c 1,30,31
 459 1286 459 1286 459 1257 c 2,32,-1
 459 72 l 1,33,-1
 1075 72 l 1,34,-1
 1075 1257 l 2,35,36
 1075 1304 1075 1304 1055 1313 c 1,37,38
 1012 1327 1012 1327 885 1327 c 0,39,40
 881 1327 881 1327 872.5 1333.5 c 128,-1,41
 864 1340 864 1340 864 1346 c 2,42,-1
 864 1380 l 2,43,44
 864 1386 864 1386 872 1392.5 c 128,-1,45
 880 1399 880 1399 887 1399 c 2,46,-1
 1442 1399 l 2,47,48
 1449 1399 1449 1399 1456.5 1393.5 c 128,-1,49
 1464 1388 1464 1388 1464 1380 c 2,50,-1
 1464 1346 l 2,51,52
 1464 1340 1464 1340 1456.5 1333.5 c 128,-1,53
 1449 1327 1449 1327 1444 1327 c 0,54,55
 1282 1327 1282 1327 1264 1305 c 1,56,57
 1253 1287 1253 1287 1253 1257 c 2,58,-1
 1253 141 l 2,59,60
 1253 95 1253 95 1274 86 c 1,61,62
 1317 72 1317 72 1444 72 c 0,63,64
 1450 72 1450 72 1457 66 c 128,-1,65
 1464 60 1464 60 1464 53 c 2,66,-1
 1464 18 l 2,67,68
 1464 13 1464 13 1456.5 6.5 c 128,-1,69
 1449 0 1449 0 1444 0 c 2,70,-1
 90 0 l 2,71,72
 85 0 85 0 77.5 6.5 c 128,-1,73
 70 13 70 13 70 18 c 2,0,-1
EndSplineSet
EndChar

StartChar: r
Encoding: 114 114 85
Width: 1706
GlyphClass: 2
Flags: W
LayerCount: 2
Fore
SplineSet
801 -45 m 1,0,-1
 96 1376 l 2,1,2
 96 1378 96 1378 95.5 1379.5 c 128,-1,3
 95 1381 95 1381 94 1382 c 1,4,5
 94 1399 94 1399 111 1399 c 2,6,-1
 1593 1399 l 2,7,8
 1610 1399 1610 1399 1610 1382 c 0,9,10
 1610 1380 1610 1380 1609.5 1379 c 128,-1,11
 1609 1378 1609 1378 1608 1376 c 2,12,-1
 903 -45 l 1,13,14
 893 -68 893 -68 866 -68 c 2,15,-1
 838 -68 l 2,16,17
 811 -68 811 -68 801 -45 c 1,0,-1
911 133 m 1,18,-1
 1462 1245 l 1,19,-1
 360 1245 l 1,20,-1
 911 133 l 1,18,-1
EndSplineSet
EndChar

StartChar: s
Encoding: 115 115 86
Width: 852
GlyphClass: 2
Flags: W
LayerCount: 2
Fore
SplineSet
203 -350 m 1,0,1
 230 -389 230 -389 272 -389 c 0,2,3
 319 -389 319 -389 345.5 -338.5 c 128,-1,4
 372 -288 372 -288 381 -235.5 c 128,-1,5
 390 -183 390 -183 399 -104 c 0,6,7
 412 9 412 9 422.5 120.5 c 128,-1,8
 433 232 433 232 446 345.5 c 128,-1,9
 459 459 459 459 467 514 c 0,10,11
 481 607 481 607 492 678.5 c 128,-1,12
 503 750 503 750 515.5 825 c 128,-1,13
 528 900 528 900 541.5 978 c 128,-1,14
 555 1056 555 1056 569 1133 c 0,15,16
 595 1273 595 1273 646 1369.5 c 128,-1,17
 697 1466 697 1466 805 1466 c 0,18,19
 875 1466 875 1466 920 1412 c 128,-1,20
 965 1358 965 1358 965 1288 c 0,21,22
 965 1251 965 1251 940.5 1225.5 c 128,-1,23
 916 1200 916 1200 879 1200 c 0,24,25
 840 1200 840 1200 815.5 1225.5 c 128,-1,26
 791 1251 791 1251 791 1288 c 0,27,28
 791 1323 791 1323 816.5 1348.5 c 128,-1,29
 842 1374 842 1374 877 1374 c 1,30,31
 848 1413 848 1413 807 1413 c 0,32,33
 760 1413 760 1413 733.5 1362.5 c 128,-1,34
 707 1312 707 1312 698 1259.5 c 128,-1,35
 689 1207 689 1207 680 1128 c 0,36,37
 667 1015 667 1015 656.5 903.5 c 128,-1,38
 646 792 646 792 633 678.5 c 128,-1,39
 620 565 620 565 612 510 c 0,40,41
 580 278 580 278 510 -109 c 0,42,43
 486 -247 486 -247 433.5 -344.5 c 128,-1,44
 381 -442 381 -442 274 -442 c 0,45,46
 206 -442 206 -442 160.5 -387 c 128,-1,47
 115 -332 115 -332 115 -264 c 0,48,49
 115 -240 115 -240 126 -220 c 128,-1,50
 137 -200 137 -200 157 -188 c 128,-1,51
 177 -176 177 -176 203 -176 c 0,52,53
 240 -176 240 -176 264.5 -200.5 c 128,-1,54
 289 -225 289 -225 289 -264 c 0,55,56
 289 -300 289 -300 264 -325 c 128,-1,57
 239 -350 239 -350 203 -350 c 1,0,1
EndSplineSet
EndChar

StartChar: t
Encoding: 116 116 87
Width: 1364
GlyphClass: 2
Flags: W
LayerCount: 2
Fore
SplineSet
125 39 m 2,0,-1
 125 1188 l 2,1,2
 125 1203 125 1203 137 1214 c 128,-1,3
 149 1225 149 1225 166 1225 c 0,4,5
 181 1225 181 1225 194 1214 c 128,-1,6
 207 1203 207 1203 207 1188 c 2,7,-1
 207 82 l 1,8,-1
 1157 82 l 1,9,-1
 1157 1188 l 2,10,11
 1157 1203 1157 1203 1170 1214 c 128,-1,12
 1183 1225 1183 1225 1198 1225 c 0,13,14
 1215 1225 1215 1225 1227 1214 c 128,-1,15
 1239 1203 1239 1203 1239 1188 c 2,16,-1
 1239 39 l 2,17,18
 1239 23 1239 23 1227.5 11.5 c 128,-1,19
 1216 0 1216 0 1202 0 c 2,20,-1
 164 0 l 2,21,22
 149 0 149 0 137 12 c 128,-1,23
 125 24 125 24 125 39 c 2,0,-1
EndSplineSet
EndChar

StartChar: u
Encoding: 117 117 88
Width: 1364
GlyphClass: 2
Flags: W
LayerCount: 2
Fore
SplineSet
125 39 m 2,0,-1
 125 1188 l 2,1,2
 125 1201 125 1201 137 1213 c 128,-1,3
 149 1225 149 1225 164 1225 c 2,4,-1
 1202 1225 l 2,5,6
 1216 1225 1216 1225 1227.5 1213.5 c 128,-1,7
 1239 1202 1239 1202 1239 1188 c 2,8,-1
 1239 39 l 2,9,10
 1239 22 1239 22 1227 11 c 128,-1,11
 1215 0 1215 0 1198 0 c 0,12,13
 1183 0 1183 0 1170 11 c 128,-1,14
 1157 22 1157 22 1157 39 c 2,15,-1
 1157 1143 l 1,16,-1
 207 1143 l 1,17,-1
 207 39 l 2,18,19
 207 22 207 22 194 11 c 128,-1,20
 181 0 181 0 166 0 c 0,21,22
 149 0 149 0 137 11 c 128,-1,23
 125 22 125 22 125 39 c 2,0,-1
EndSplineSet
EndChar

StartChar: v
Encoding: 118 118 89
Width: 1591
GlyphClass: 2
Flags: W
LayerCount: 2
Fore
SplineSet
209 -281 m 2,0,1
 192 -281 192 -281 181 -268 c 128,-1,2
 170 -255 170 -255 170 -240 c 0,3,4
 170 -223 170 -223 181 -211 c 128,-1,5
 192 -199 192 -199 209 -199 c 2,6,-1
 1425 -199 l 2,7,8
 1441 -199 1441 -199 1451.5 -211 c 128,-1,9
 1462 -223 1462 -223 1462 -240 c 0,10,11
 1462 -255 1462 -255 1451.5 -268 c 128,-1,12
 1441 -281 1441 -281 1425 -281 c 2,13,-1
 209 -281 l 2,0,1
193 156 m 2,14,-1
 193 1266 l 2,15,16
 193 1279 193 1279 205 1291 c 128,-1,17
 217 1303 217 1303 231 1303 c 2,18,-1
 1425 1303 l 2,19,20
 1441 1303 1441 1303 1451.5 1290 c 128,-1,21
 1462 1277 1462 1277 1462 1262 c 0,22,23
 1462 1245 1462 1245 1451.5 1233 c 128,-1,24
 1441 1221 1441 1221 1425 1221 c 2,25,-1
 274 1221 l 1,26,-1
 274 199 l 1,27,-1
 1425 199 l 2,28,29
 1441 199 1441 199 1451.5 186 c 128,-1,30
 1462 173 1462 173 1462 158 c 0,31,32
 1462 141 1462 141 1451.5 129 c 128,-1,33
 1441 117 1441 117 1425 117 c 2,34,-1
 231 117 l 2,35,36
 217 117 217 117 205 129 c 128,-1,37
 193 141 193 141 193 156 c 2,14,-1
EndSplineSet
EndChar

StartChar: w
Encoding: 119 119 90
Width: 1591
GlyphClass: 2
Flags: W
LayerCount: 2
Fore
SplineSet
168 -281 m 2,0,1
 151 -281 151 -281 140 -268 c 128,-1,2
 129 -255 129 -255 129 -240 c 0,3,4
 129 -223 129 -223 140 -211 c 128,-1,5
 151 -199 151 -199 168 -199 c 2,6,-1
 1384 -199 l 2,7,8
 1400 -199 1400 -199 1410.5 -211 c 128,-1,9
 1421 -223 1421 -223 1421 -240 c 0,10,11
 1421 -255 1421 -255 1410.5 -268 c 128,-1,12
 1400 -281 1400 -281 1384 -281 c 2,13,-1
 168 -281 l 2,0,1
168 117 m 2,14,15
 151 117 151 117 140 129 c 128,-1,16
 129 141 129 141 129 158 c 0,17,18
 129 173 129 173 140 186 c 128,-1,19
 151 199 151 199 168 199 c 2,20,-1
 1317 199 l 1,21,-1
 1317 1221 l 1,22,-1
 168 1221 l 2,23,24
 151 1221 151 1221 140 1233 c 128,-1,25
 129 1245 129 1245 129 1262 c 0,26,27
 129 1277 129 1277 140 1290 c 128,-1,28
 151 1303 151 1303 168 1303 c 2,29,-1
 1362 1303 l 2,30,31
 1375 1303 1375 1303 1387 1291 c 128,-1,32
 1399 1279 1399 1279 1399 1266 c 2,33,-1
 1399 156 l 2,34,35
 1399 141 1399 141 1387 129 c 128,-1,36
 1375 117 1375 117 1362 117 c 2,37,-1
 168 117 l 2,14,15
EndSplineSet
EndChar

StartChar: x
Encoding: 120 120 91
Width: 909
GlyphClass: 2
Flags: W
LayerCount: 2
Fore
SplineSet
244 -240 m 1,0,1
 271 -298 271 -298 330 -332.5 c 128,-1,2
 389 -367 389 -367 453 -367 c 0,3,4
 545 -367 545 -367 593 -284 c 128,-1,5
 641 -201 641 -201 641 -104 c 0,6,7
 641 -11 641 -11 587.5 69.5 c 128,-1,8
 534 150 534 150 449 184 c 1,9,10
 319 238 319 238 230 322 c 128,-1,11
 141 406 141 406 141 524 c 0,12,13
 141 628 141 628 204 713.5 c 128,-1,14
 267 799 267 799 365 827 c 1,15,16
 141 950 141 950 141 1128 c 0,17,18
 141 1191 141 1191 165 1247 c 128,-1,19
 189 1303 189 1303 234.5 1349.5 c 128,-1,20
 280 1396 280 1396 336 1420 c 128,-1,21
 392 1444 392 1444 455 1444 c 0,22,23
 528 1444 528 1444 592 1412 c 128,-1,24
 656 1380 656 1380 696.5 1321 c 128,-1,25
 737 1262 737 1262 737 1192 c 0,26,27
 737 1160 737 1160 717 1139 c 128,-1,28
 697 1118 697 1118 666 1118 c 0,29,30
 633 1118 633 1118 612.5 1139.5 c 128,-1,31
 592 1161 592 1161 592 1192 c 0,32,33
 592 1222 592 1222 613 1243 c 128,-1,34
 634 1264 634 1264 664 1264 c 1,35,36
 640 1320 640 1320 580.5 1355.5 c 128,-1,37
 521 1391 521 1391 455 1391 c 0,38,39
 393 1391 393 1391 350.5 1351 c 128,-1,40
 308 1311 308 1311 287 1249.5 c 128,-1,41
 266 1188 266 1188 266 1128 c 0,42,43
 266 1036 266 1036 320 956 c 128,-1,44
 374 876 374 876 461 840 c 0,45,46
 541 806 541 806 609.5 759 c 128,-1,47
 678 712 678 712 722 646.5 c 128,-1,48
 766 581 766 581 766 500 c 0,49,50
 766 433 766 433 738 370.5 c 128,-1,51
 710 308 710 308 660 262.5 c 128,-1,52
 610 217 610 217 543 197 c 1,53,54
 766 74 766 74 766 -104 c 0,55,56
 766 -186 766 -186 724 -259.5 c 128,-1,57
 682 -333 682 -333 610.5 -376.5 c 128,-1,58
 539 -420 539 -420 455 -420 c 0,59,60
 382 -420 382 -420 316.5 -388 c 128,-1,61
 251 -356 251 -356 210.5 -297.5 c 128,-1,62
 170 -239 170 -239 170 -168 c 0,63,64
 170 -137 170 -137 190.5 -115.5 c 128,-1,65
 211 -94 211 -94 244 -94 c 0,66,67
 275 -94 275 -94 295 -115 c 128,-1,68
 315 -136 315 -136 315 -168 c 0,69,70
 315 -197 315 -197 294.5 -218.5 c 128,-1,71
 274 -240 274 -240 244 -240 c 1,0,1
457 238 m 1,72,73
 518 238 518 238 559.5 279.5 c 128,-1,74
 601 321 601 321 621 381.5 c 128,-1,75
 641 442 641 442 641 500 c 0,76,77
 641 593 641 593 588.5 672 c 128,-1,78
 536 751 536 751 451 786 c 1,79,80
 363 786 363 786 314.5 702.5 c 128,-1,81
 266 619 266 619 266 524 c 0,82,83
 266 434 266 434 319 354.5 c 128,-1,84
 372 275 372 275 457 238 c 1,72,73
EndSplineSet
EndChar

StartChar: y
Encoding: 121 121 92
Width: 909
GlyphClass: 2
Flags: W
LayerCount: 2
Fore
SplineSet
424 -426 m 1,0,1
 417 -348 417 -348 408.5 -234.5 c 128,-1,2
 400 -121 400 -121 393 37.5 c 128,-1,3
 386 196 386 196 383.5 291.5 c 128,-1,4
 381 387 381 387 381 502 c 0,5,6
 381 565 381 565 405.5 681.5 c 128,-1,7
 430 798 430 798 430 856 c 1,8,9
 408 856 408 856 385.5 851 c 128,-1,10
 363 846 363 846 327 836 c 128,-1,11
 291 826 291 826 252.5 817.5 c 128,-1,12
 214 809 214 809 188 809 c 0,13,14
 157 809 157 809 136 830 c 128,-1,15
 115 851 115 851 115 883 c 0,16,17
 115 913 115 913 135.5 933.5 c 128,-1,18
 156 954 156 954 188 954 c 0,19,20
 232 954 232 954 317 930.5 c 128,-1,21
 402 907 402 907 430 907 c 1,22,23
 430 960 430 960 423 1017.5 c 128,-1,24
 416 1075 416 1075 404.5 1145 c 128,-1,25
 393 1215 393 1215 387 1265.5 c 128,-1,26
 381 1316 381 1316 381 1372 c 0,27,28
 381 1402 381 1402 402 1423 c 128,-1,29
 423 1444 423 1444 455 1444 c 0,30,31
 485 1444 485 1444 505.5 1423.5 c 128,-1,32
 526 1403 526 1403 526 1372 c 0,33,34
 526 1287 526 1287 501.5 1135 c 128,-1,35
 477 983 477 983 477 907 c 1,36,37
 507 907 507 907 592 930.5 c 128,-1,38
 677 954 677 954 721 954 c 0,39,40
 752 954 752 954 772.5 933.5 c 128,-1,41
 793 913 793 913 793 883 c 0,42,43
 793 851 793 851 772 830 c 128,-1,44
 751 809 751 809 721 809 c 0,45,46
 694 809 694 809 657.5 817 c 128,-1,47
 621 825 621 825 590.5 833.5 c 128,-1,48
 560 842 560 842 529 849 c 128,-1,49
 498 856 498 856 477 856 c 1,50,51
 477 803 477 803 501.5 686.5 c 128,-1,52
 526 570 526 570 526 502 c 2,53,-1
 526 500 l 2,54,55
 526 365 526 365 521 197 c 128,-1,56
 516 29 516 29 507 -120.5 c 128,-1,57
 498 -270 498 -270 483 -426 c 0,58,59
 483 -432 483 -432 478 -437 c 128,-1,60
 473 -442 473 -442 467 -442 c 2,61,-1
 442 -442 l 2,62,63
 424 -442 424 -442 424 -426 c 1,0,1
EndSplineSet
EndChar

StartChar: z
Encoding: 122 122 93
Width: 909
GlyphClass: 2
Flags: W
LayerCount: 2
Fore
SplineSet
381 -348 m 0,0,1
 381 -282 381 -282 405.5 -161.5 c 128,-1,2
 430 -41 430 -41 430 20 c 1,3,4
 395 20 395 20 313.5 -4.5 c 128,-1,5
 232 -29 232 -29 188 -29 c 0,6,7
 156 -29 156 -29 135.5 -7.5 c 128,-1,8
 115 14 115 14 115 45 c 256,9,10
 115 76 115 76 135.5 97.5 c 128,-1,11
 156 119 156 119 188 119 c 0,12,13
 235 119 235 119 316.5 94.5 c 128,-1,14
 398 70 398 70 430 70 c 1,15,16
 430 131 430 131 405.5 252.5 c 128,-1,17
 381 374 381 374 381 438 c 0,18,19
 381 468 381 468 402 489 c 128,-1,20
 423 510 423 510 455 510 c 0,21,22
 485 510 485 510 505.5 489.5 c 128,-1,23
 526 469 526 469 526 438 c 0,24,25
 526 369 526 369 501.5 247.5 c 128,-1,26
 477 126 477 126 477 70 c 1,27,28
 511 70 511 70 592.5 94.5 c 128,-1,29
 674 119 674 119 721 119 c 0,30,31
 752 119 752 119 772.5 97.5 c 128,-1,32
 793 76 793 76 793 45 c 256,33,34
 793 14 793 14 772.5 -7.5 c 128,-1,35
 752 -29 752 -29 721 -29 c 0,36,37
 677 -29 677 -29 595.5 -4.5 c 128,-1,38
 514 20 514 20 477 20 c 1,39,40
 477 -36 477 -36 501.5 -156.5 c 128,-1,41
 526 -277 526 -277 526 -348 c 0,42,43
 526 -377 526 -377 505.5 -398.5 c 128,-1,44
 485 -420 485 -420 455 -420 c 0,45,46
 423 -420 423 -420 402 -398 c 128,-1,47
 381 -376 381 -376 381 -348 c 0,0,1
381 586 m 0,48,49
 381 651 381 651 405.5 771.5 c 128,-1,50
 430 892 430 892 430 952 c 1,51,52
 408 952 408 952 385.5 947 c 128,-1,53
 363 942 363 942 327 932 c 128,-1,54
 291 922 291 922 252.5 913.5 c 128,-1,55
 214 905 214 905 188 905 c 0,56,57
 157 905 157 905 136 926 c 128,-1,58
 115 947 115 947 115 979 c 256,59,60
 115 1011 115 1011 136 1031 c 128,-1,61
 157 1051 157 1051 188 1051 c 0,62,63
 232 1051 232 1051 317 1027.5 c 128,-1,64
 402 1004 402 1004 430 1004 c 1,65,66
 430 1064 430 1064 405.5 1185.5 c 128,-1,67
 381 1307 381 1307 381 1372 c 0,68,69
 381 1402 381 1402 402 1423 c 128,-1,70
 423 1444 423 1444 455 1444 c 0,71,72
 485 1444 485 1444 505.5 1423.5 c 128,-1,73
 526 1403 526 1403 526 1372 c 0,74,75
 526 1302 526 1302 501.5 1180.5 c 128,-1,76
 477 1059 477 1059 477 1004 c 1,77,78
 507 1004 507 1004 592 1027.5 c 128,-1,79
 677 1051 677 1051 721 1051 c 0,80,81
 751 1051 751 1051 772 1031 c 128,-1,82
 793 1011 793 1011 793 979 c 256,83,84
 793 947 793 947 772 926 c 128,-1,85
 751 905 751 905 721 905 c 0,86,87
 694 905 694 905 657.5 913 c 128,-1,88
 621 921 621 921 590.5 929.5 c 128,-1,89
 560 938 560 938 529 945 c 128,-1,90
 498 952 498 952 477 952 c 1,91,92
 477 912 477 912 483 873.5 c 128,-1,93
 489 835 489 835 501 779 c 128,-1,94
 513 723 513 723 519.5 676.5 c 128,-1,95
 526 630 526 630 526 586 c 0,96,97
 526 554 526 554 506 533 c 128,-1,98
 486 512 486 512 455 512 c 0,99,100
 422 512 422 512 401.5 533.5 c 128,-1,101
 381 555 381 555 381 586 c 0,48,49
EndSplineSet
EndChar

StartChar: braceleft
Encoding: 123 123 94
Width: 1251
GlyphClass: 2
Flags: W
LayerCount: 2
Fore
SplineSet
715 -360 m 2,0,-1
 715 471 l 1,1,2
 577 471 577 471 436.5 528.5 c 128,-1,3
 296 586 296 586 205.5 693.5 c 128,-1,4
 115 801 115 801 115 946 c 0,5,6
 115 1076 115 1076 186 1186.5 c 128,-1,7
 257 1297 257 1297 373.5 1359 c 128,-1,8
 490 1421 490 1421 623 1421 c 2,9,-1
 1155 1421 l 2,10,11
 1171 1421 1171 1421 1181.5 1409 c 128,-1,12
 1192 1397 1192 1397 1192 1380 c 0,13,14
 1192 1365 1192 1365 1181.5 1352 c 128,-1,15
 1171 1339 1171 1339 1155 1339 c 2,16,-1
 1022 1339 l 1,17,-1
 1022 -360 l 2,18,19
 1022 -376 1022 -376 1009 -386.5 c 128,-1,20
 996 -397 996 -397 981 -397 c 256,21,22
 966 -397 966 -397 953 -386.5 c 128,-1,23
 940 -376 940 -376 940 -360 c 2,24,-1
 940 1339 l 1,25,-1
 797 1339 l 1,26,-1
 797 -360 l 2,27,28
 797 -376 797 -376 784 -386.5 c 128,-1,29
 771 -397 771 -397 756 -397 c 0,30,31
 739 -397 739 -397 727 -386.5 c 128,-1,32
 715 -376 715 -376 715 -360 c 2,0,-1
EndSplineSet
EndChar

StartChar: bar
Encoding: 124 124 95
Width: 1591
GlyphClass: 2
Flags: W
LayerCount: 2
Fore
SplineSet
408 -45 m 0,0,1
 305 -45 305 -45 225 12 c 128,-1,2
 145 69 145 69 101 161.5 c 128,-1,3
 57 254 57 254 57 354 c 0,4,5
 57 448 57 448 90.5 541 c 128,-1,6
 124 634 124 634 192.5 694 c 128,-1,7
 261 754 261 754 356 754 c 0,8,9
 475 754 475 754 545 666 c 1,10,-1
 592 760 l 1,11,12
 516 818 516 818 475 907 c 128,-1,13
 434 996 434 996 434 1090 c 0,14,15
 434 1189 434 1189 481 1282.5 c 128,-1,16
 528 1376 528 1376 612 1432.5 c 128,-1,17
 696 1489 696 1489 797 1489 c 0,18,19
 876 1489 876 1489 942 1457 c 128,-1,20
 1008 1425 1008 1425 1057 1367 c 128,-1,21
 1106 1309 1106 1309 1132.5 1238.5 c 128,-1,22
 1159 1168 1159 1168 1159 1090 c 0,23,24
 1159 996 1159 996 1117.5 906 c 128,-1,25
 1076 816 1076 816 1001 760 c 1,26,-1
 1049 666 l 1,27,28
 1119 754 1119 754 1239 754 c 0,29,30
 1335 754 1335 754 1402 694 c 128,-1,31
 1469 634 1469 634 1502.5 541 c 128,-1,32
 1536 448 1536 448 1536 354 c 0,33,34
 1536 254 1536 254 1492.5 161.5 c 128,-1,35
 1449 69 1449 69 1369 12 c 128,-1,36
 1289 -45 1289 -45 1186 -45 c 0,37,38
 1092 -45 1092 -45 1016 4 c 128,-1,39
 940 53 940 53 940 143 c 1,40,-1
 838 143 l 1,41,42
 838 -37 838 -37 895 -217 c 1,43,-1
 895 -225 l 2,44,45
 895 -242 895 -242 884.5 -254 c 128,-1,46
 874 -266 874 -266 858 -266 c 2,47,-1
 737 -266 l 2,48,49
 720 -266 720 -266 709 -254 c 128,-1,50
 698 -242 698 -242 698 -225 c 0,51,52
 698 -219 698 -219 700 -217 c 1,53,54
 756 -30 756 -30 756 143 c 1,55,-1
 653 143 l 1,56,57
 653 82 653 82 616 39 c 128,-1,58
 579 -4 579 -4 522.5 -24.5 c 128,-1,59
 466 -45 466 -45 408 -45 c 0,0,1
EndSplineSet
EndChar

StartChar: braceright
Encoding: 125 125 96
Width: 1591
GlyphClass: 2
Flags: W
LayerCount: 2
Fore
SplineSet
762 -315 m 0,0,1
 504 206 504 206 125 551 c 0,2,3
 115 561 115 561 115 578 c 0,4,5
 115 593 115 593 125 606 c 1,6,7
 251 719 251 719 369 860.5 c 128,-1,8
 487 1002 487 1002 584.5 1155.5 c 128,-1,9
 682 1309 682 1309 762 1470 c 0,10,11
 772 1489 772 1489 797 1489 c 0,12,13
 821 1489 821 1489 831 1470 c 0,14,15
 911 1309 911 1309 1008.5 1155.5 c 128,-1,16
 1106 1002 1106 1002 1224 860.5 c 128,-1,17
 1342 719 1342 719 1468 606 c 1,18,19
 1479 593 1479 593 1479 578 c 0,20,21
 1479 560 1479 560 1468 551 c 0,22,23
 1089 206 1089 206 831 -315 c 0,24,25
 821 -334 821 -334 797 -334 c 0,26,27
 772 -334 772 -334 762 -315 c 0,0,1
797 -203 m 1,28,29
 854 -94 854 -94 918.5 11 c 128,-1,30
 983 116 983 116 1053.5 212 c 128,-1,31
 1124 308 1124 308 1208.5 404 c 128,-1,32
 1293 500 1293 500 1376 578 c 1,33,34
 1297 653 1297 653 1213.5 746 c 128,-1,35
 1130 839 1130 839 1052.5 945.5 c 128,-1,36
 975 1052 975 1052 915.5 1149 c 128,-1,37
 856 1246 856 1246 797 1358 c 1,38,39
 678 1129 678 1129 537 937.5 c 128,-1,40
 396 746 396 746 217 578 c 1,41,42
 299 502 299 502 384.5 405 c 128,-1,43
 470 308 470 308 537 217.5 c 128,-1,44
 604 127 604 127 672.5 17 c 128,-1,45
 741 -93 741 -93 797 -203 c 1,28,29
EndSplineSet
EndChar

StartChar: asciitilde
Encoding: 126 126 97
Width: 1591
GlyphClass: 2
Flags: W
LayerCount: 2
Fore
SplineSet
442 381 m 1,0,1
 352 471 352 471 279 566 c 128,-1,2
 206 661 206 661 160.5 769.5 c 128,-1,3
 115 878 115 878 115 993 c 0,4,5
 115 1189 115 1189 194.5 1327.5 c 128,-1,6
 274 1466 274 1466 455 1466 c 0,7,8
 528 1466 528 1466 594.5 1436.5 c 128,-1,9
 661 1407 661 1407 713 1355 c 128,-1,10
 765 1303 765 1303 797 1237 c 1,11,12
 847 1340 847 1340 937 1403 c 128,-1,13
 1027 1466 1027 1466 1139 1466 c 0,14,15
 1320 1466 1320 1466 1399.5 1327.5 c 128,-1,16
 1479 1189 1479 1189 1479 993 c 0,17,18
 1479 878 1479 878 1434 769.5 c 128,-1,19
 1389 661 1389 661 1318 569 c 128,-1,20
 1247 477 1247 477 1151 381 c 0,21,22
 1140 370 1140 370 1065 296.5 c 128,-1,23
 990 223 990 223 959 186.5 c 128,-1,24
 928 150 928 150 896 92.5 c 128,-1,25
 864 35 864 35 836 -43 c 1,26,27
 824 -68 824 -68 797 -68 c 0,28,29
 767 -68 767 -68 760 -43 c 1,30,31
 722 60 722 60 679.5 124 c 128,-1,32
 637 188 637 188 573 252 c 128,-1,33
 509 316 509 316 442 381 c 1,0,1
504 436 m 0,34,35
 561 380 561 380 618 324.5 c 128,-1,36
 675 269 675 269 716 215 c 128,-1,37
 757 161 757 161 797 80 c 1,38,39
 827 141 827 141 859.5 188 c 128,-1,40
 892 235 892 235 924 270 c 128,-1,41
 956 305 956 305 1006 353.5 c 128,-1,42
 1056 402 1056 402 1090 436 c 0,43,44
 1184 530 1184 530 1248 612 c 128,-1,45
 1312 694 1312 694 1354.5 791.5 c 128,-1,46
 1397 889 1397 889 1397 995 c 0,47,48
 1397 1156 1397 1156 1340 1270 c 128,-1,49
 1283 1384 1283 1384 1139 1384 c 0,50,51
 1062 1384 1062 1384 997 1343 c 128,-1,52
 932 1302 932 1302 890.5 1234.5 c 128,-1,53
 849 1167 849 1167 838 1092 c 1,54,55
 831 1053 831 1053 797 1053 c 0,56,57
 782 1053 782 1053 770.5 1061.5 c 128,-1,58
 759 1070 759 1070 758 1085 c 1,59,60
 746 1163 746 1163 705 1232.5 c 128,-1,61
 664 1302 664 1302 600 1343 c 128,-1,62
 536 1384 536 1384 455 1384 c 0,63,64
 378 1384 378 1384 327.5 1349.5 c 128,-1,65
 277 1315 277 1315 248.5 1258.5 c 128,-1,66
 220 1202 220 1202 208.5 1133.5 c 128,-1,67
 197 1065 197 1065 197 995 c 0,68,69
 197 915 197 915 222.5 839 c 128,-1,70
 248 763 248 763 290 694 c 128,-1,71
 332 625 332 625 383 565.5 c 128,-1,72
 434 506 434 506 504 436 c 0,34,35
EndSplineSet
EndChar

StartChar: uni007F
Encoding: 127 127 98
AltUni2: 0000c4.ffffffff.0
Width: 1591
GlyphClass: 2
Flags: W
LayerCount: 2
Fore
SplineSet
385 -45 m 0,0,1
 231 -45 231 -45 173 98.5 c 128,-1,2
 115 242 115 242 115 426 c 0,3,4
 115 593 115 593 213 730.5 c 128,-1,5
 311 868 311 868 481 1022 c 1,6,7
 571 1105 571 1105 639.5 1217.5 c 128,-1,8
 708 1330 708 1330 760 1464 c 1,9,10
 767 1489 767 1489 797 1489 c 0,11,12
 824 1489 824 1489 836 1464 c 1,13,14
 940 1181 940 1181 1112 1022 c 0,15,16
 1228 916 1228 916 1301 835 c 128,-1,17
 1374 754 1374 754 1426.5 649.5 c 128,-1,18
 1479 545 1479 545 1479 426 c 0,19,20
 1479 346 1479 346 1468.5 267.5 c 128,-1,21
 1458 189 1458 189 1428.5 117 c 128,-1,22
 1399 45 1399 45 1345 0 c 128,-1,23
 1291 -45 1291 -45 1210 -45 c 0,24,25
 1145 -45 1145 -45 1084 -26 c 128,-1,26
 1023 -7 1023 -7 981.5 35.5 c 128,-1,27
 940 78 940 78 940 141 c 2,28,-1
 940 143 l 1,29,-1
 838 143 l 1,30,31
 838 -37 838 -37 895 -217 c 1,32,-1
 895 -225 l 2,33,34
 895 -242 895 -242 884.5 -254 c 128,-1,35
 874 -266 874 -266 858 -266 c 2,36,-1
 737 -266 l 2,37,38
 720 -266 720 -266 709 -254 c 128,-1,39
 698 -242 698 -242 698 -225 c 0,40,41
 698 -219 698 -219 700 -217 c 1,42,43
 756 -30 756 -30 756 143 c 1,44,-1
 653 143 l 1,45,46
 653 49 653 49 570.5 2 c 128,-1,47
 488 -45 488 -45 385 -45 c 0,0,1
EndSplineSet
EndChar

StartChar: exclamdown
Encoding: 161 161 100
Width: 1591
GlyphClass: 2
Flags: W
LayerCount: 2
Fore
SplineSet
209 471 m 2,0,1
 192 471 192 471 181 484 c 128,-1,2
 170 497 170 497 170 512 c 256,3,4
 170 527 170 527 181 540 c 128,-1,5
 192 553 192 553 209 553 c 2,6,-1
 1384 553 l 2,7,8
 1400 553 1400 553 1410.5 540 c 128,-1,9
 1421 527 1421 527 1421 512 c 256,10,11
 1421 497 1421 497 1410.5 484 c 128,-1,12
 1400 471 1400 471 1384 471 c 2,13,-1
 209 471 l 2,0,1
EndSplineSet
EndChar

StartChar: cent
Encoding: 162 162 101
Width: 567
GlyphClass: 2
Flags: W
LayerCount: 2
Fore
SplineSet
172 512 m 0,0,1
 172 541 172 541 187 567 c 128,-1,2
 202 593 202 593 228.5 609 c 128,-1,3
 255 625 255 625 285 625 c 0,4,5
 314 625 314 625 340.5 609 c 128,-1,6
 367 593 367 593 382 567 c 128,-1,7
 397 541 397 541 397 512 c 0,8,9
 397 466 397 466 364.5 432.5 c 128,-1,10
 332 399 332 399 285 399 c 0,11,12
 239 399 239 399 205.5 432.5 c 128,-1,13
 172 466 172 466 172 512 c 0,0,1
EndSplineSet
EndChar

StartChar: sterling
Encoding: 163 163 102
Width: 1591
GlyphClass: 2
Flags: W
LayerCount: 2
Fore
SplineSet
301 59 m 0,0,1
 301 75 301 75 311 88 c 1,2,-1
 737 512 l 1,3,-1
 311 938 l 2,4,5
 301 948 301 948 301 965 c 0,6,7
 301 980 301 980 313 993 c 128,-1,8
 325 1006 325 1006 342 1006 c 0,9,10
 356 1006 356 1006 373 993 c 1,11,-1
 797 569 l 1,12,-1
 1219 993 l 1,13,14
 1236 1006 1236 1006 1249 1006 c 0,15,16
 1266 1006 1266 1006 1278 994 c 128,-1,17
 1290 982 1290 982 1290 965 c 256,18,19
 1290 948 1290 948 1280 938 c 2,20,-1
 854 512 l 1,21,-1
 1280 88 l 1,22,23
 1290 75 1290 75 1290 59 c 0,24,25
 1290 42 1290 42 1278 30 c 128,-1,26
 1266 18 1266 18 1249 18 c 0,27,28
 1234 18 1234 18 1219 33 c 2,29,-1
 797 455 l 1,30,-1
 373 33 l 2,31,32
 358 18 358 18 342 18 c 0,33,34
 325 18 325 18 313 31 c 128,-1,35
 301 44 301 44 301 59 c 0,0,1
EndSplineSet
EndChar

StartChar: currency
Encoding: 164 164 103
Width: 1024
GlyphClass: 2
Flags: W
LayerCount: 2
Fore
SplineSet
193 260 m 0,0,1
 170 260 170 260 151.5 279.5 c 128,-1,2
 133 299 133 299 133 322 c 0,3,4
 133 357 133 357 162 371 c 2,5,-1
 457 512 l 1,6,-1
 162 651 l 1,7,8
 133 663 133 663 133 700 c 0,9,10
 133 723 133 723 151.5 742.5 c 128,-1,11
 170 762 170 762 193 762 c 0,12,13
 208 762 208 762 221 752 c 2,14,-1
 483 561 l 1,15,-1
 453 895 l 1,16,17
 453 920 453 920 470 936 c 128,-1,18
 487 952 487 952 512 952 c 0,19,20
 536 952 536 952 552.5 937 c 128,-1,21
 569 922 569 922 569 899 c 2,22,-1
 569 895 l 1,23,-1
 539 561 l 1,24,-1
 801 752 l 2,25,26
 814 762 814 762 829 762 c 0,27,28
 854 762 854 762 871.5 742.5 c 128,-1,29
 889 723 889 723 889 700 c 0,30,31
 889 663 889 663 860 651 c 1,32,-1
 565 512 l 1,33,-1
 860 371 l 2,34,35
 889 357 889 357 889 322 c 0,36,37
 889 299 889 299 871.5 279.5 c 128,-1,38
 854 260 854 260 829 260 c 0,39,40
 814 260 814 260 801 270 c 2,41,-1
 539 461 l 1,42,-1
 569 129 l 1,43,-1
 569 123 l 2,44,45
 569 100 569 100 551.5 85 c 128,-1,46
 534 70 534 70 512 70 c 0,47,48
 488 70 488 70 470.5 86.5 c 128,-1,49
 453 103 453 103 453 127 c 1,50,-1
 483 461 l 1,51,-1
 221 270 l 2,52,53
 208 260 208 260 193 260 c 0,0,1
EndSplineSet
EndChar

StartChar: yen
Encoding: 165 165 104
Width: 1591
GlyphClass: 2
Flags: W
LayerCount: 2
Fore
SplineSet
664 70 m 0,0,1
 664 124 664 124 702.5 164.5 c 128,-1,2
 741 205 741 205 797 205 c 0,3,4
 852 205 852 205 892 165 c 128,-1,5
 932 125 932 125 932 70 c 0,6,7
 932 14 932 14 891 -26 c 128,-1,8
 850 -66 850 -66 797 -66 c 0,9,10
 743 -66 743 -66 703.5 -25.5 c 128,-1,11
 664 15 664 15 664 70 c 0,0,1
154 471 m 2,12,13
 137 471 137 471 126 484 c 128,-1,14
 115 497 115 497 115 512 c 256,15,16
 115 527 115 527 126 540 c 128,-1,17
 137 553 137 553 154 553 c 2,18,-1
 1442 553 l 2,19,20
 1457 553 1457 553 1468 540 c 128,-1,21
 1479 527 1479 527 1479 512 c 256,22,23
 1479 497 1479 497 1468 484 c 128,-1,24
 1457 471 1457 471 1442 471 c 2,25,-1
 154 471 l 2,12,13
664 954 m 0,26,27
 664 1009 664 1009 702.5 1049.5 c 128,-1,28
 741 1090 741 1090 797 1090 c 0,29,30
 852 1090 852 1090 892 1050 c 128,-1,31
 932 1010 932 1010 932 954 c 0,32,33
 932 899 932 899 891 859 c 128,-1,34
 850 819 850 819 797 819 c 0,35,36
 743 819 743 819 703.5 859.5 c 128,-1,37
 664 900 664 900 664 954 c 0,26,27
EndSplineSet
EndChar

StartChar: brokenbar
Encoding: 166 166 105
Width: 1024
GlyphClass: 2
Flags: W
LayerCount: 2
Fore
SplineSet
481 37 m 2,0,-1
 33 485 l 1,1,2
 23 497 23 497 23 512 c 0,3,4
 23 526 23 526 33 541 c 1,5,-1
 481 989 l 1,6,7
 497 1001 497 1001 512 1001 c 256,8,9
 527 1001 527 1001 543 989 c 1,10,-1
 991 541 l 1,11,12
 1001 526 1001 526 1001 512 c 0,13,14
 1001 497 1001 497 991 485 c 1,15,-1
 543 37 l 2,16,17
 529 23 529 23 512 23 c 256,18,19
 495 23 495 23 481 37 c 2,0,-1
512 123 m 1,20,-1
 903 512 l 1,21,-1
 512 903 l 1,22,-1
 123 512 l 1,23,-1
 512 123 l 1,20,-1
EndSplineSet
EndChar

StartChar: section
Encoding: 167 167 106
Width: 1591
GlyphClass: 2
Flags: W
LayerCount: 2
Fore
SplineSet
154 0 m 2,0,1
 137 0 137 0 126 12 c 128,-1,2
 115 24 115 24 115 41 c 0,3,4
 115 56 115 56 126 69 c 128,-1,5
 137 82 137 82 154 82 c 2,6,-1
 756 82 l 1,7,-1
 756 641 l 1,8,-1
 154 641 l 2,9,10
 137 641 137 641 126 654 c 128,-1,11
 115 667 115 667 115 682 c 256,12,13
 115 697 115 697 126 710 c 128,-1,14
 137 723 137 723 154 723 c 2,15,-1
 756 723 l 1,16,-1
 756 1327 l 2,17,18
 756 1343 756 1343 768 1353.5 c 128,-1,19
 780 1364 780 1364 797 1364 c 0,20,21
 811 1364 811 1364 824.5 1353.5 c 128,-1,22
 838 1343 838 1343 838 1327 c 2,23,-1
 838 723 l 1,24,-1
 1440 723 l 2,25,26
 1455 723 1455 723 1466 710 c 128,-1,27
 1477 697 1477 697 1477 682 c 256,28,29
 1477 667 1477 667 1466 654 c 128,-1,30
 1455 641 1455 641 1440 641 c 2,31,-1
 838 641 l 1,32,-1
 838 82 l 1,33,-1
 1440 82 l 2,34,35
 1455 82 1455 82 1466 69 c 128,-1,36
 1477 56 1477 56 1477 41 c 0,37,38
 1477 24 1477 24 1466 12 c 128,-1,39
 1455 0 1455 0 1440 0 c 2,40,-1
 154 0 l 2,0,1
EndSplineSet
EndChar

StartChar: dieresis
Encoding: 168 168 107
Width: 1591
GlyphClass: 2
Flags: W
LayerCount: 2
Fore
SplineSet
756 -303 m 2,0,-1
 756 301 l 1,1,-1
 154 301 l 2,2,3
 137 301 137 301 126 314 c 128,-1,4
 115 327 115 327 115 342 c 256,5,6
 115 357 115 357 126 370 c 128,-1,7
 137 383 137 383 154 383 c 2,8,-1
 756 383 l 1,9,-1
 756 942 l 1,10,-1
 154 942 l 2,11,12
 137 942 137 942 126 955 c 128,-1,13
 115 968 115 968 115 983 c 0,14,15
 115 1000 115 1000 126 1012 c 128,-1,16
 137 1024 137 1024 154 1024 c 2,17,-1
 1440 1024 l 2,18,19
 1455 1024 1455 1024 1466 1012 c 128,-1,20
 1477 1000 1477 1000 1477 983 c 0,21,22
 1477 968 1477 968 1466 955 c 128,-1,23
 1455 942 1455 942 1440 942 c 2,24,-1
 838 942 l 1,25,-1
 838 383 l 1,26,-1
 1440 383 l 2,27,28
 1455 383 1455 383 1466 370 c 128,-1,29
 1477 357 1477 357 1477 342 c 256,30,31
 1477 327 1477 327 1466 314 c 128,-1,32
 1455 301 1455 301 1440 301 c 2,33,-1
 838 301 l 1,34,-1
 838 -303 l 2,35,36
 838 -318 838 -318 824.5 -329 c 128,-1,37
 811 -340 811 -340 797 -340 c 0,38,39
 780 -340 780 -340 768 -329.5 c 128,-1,40
 756 -319 756 -319 756 -303 c 2,0,-1
EndSplineSet
EndChar

StartChar: copyright
Encoding: 169 169 108
Width: 1591
GlyphClass: 2
Flags: W
LayerCount: 2
Fore
SplineSet
797 -170 m 0,0,1
 657 -170 657 -170 534 -117 c 128,-1,2
 411 -64 411 -64 315.5 30.5 c 128,-1,3
 220 125 220 125 167.5 249.5 c 128,-1,4
 115 374 115 374 115 512 c 0,5,6
 115 652 115 652 167 775 c 128,-1,7
 219 898 219 898 315 994 c 128,-1,8
 411 1090 411 1090 534 1142 c 128,-1,9
 657 1194 657 1194 797 1194 c 0,10,11
 936 1194 936 1194 1060 1141 c 128,-1,12
 1184 1088 1184 1088 1278 993.5 c 128,-1,13
 1372 899 1372 899 1424.5 775 c 128,-1,14
 1477 651 1477 651 1477 512 c 0,15,16
 1477 375 1477 375 1424 249.5 c 128,-1,17
 1371 124 1371 124 1277.5 30.5 c 128,-1,18
 1184 -63 1184 -63 1060 -116.5 c 128,-1,19
 936 -170 936 -170 797 -170 c 0,0,1
766 -111 m 1,20,-1
 766 483 l 1,21,-1
 174 483 l 1,22,23
 174 335 174 335 258 197.5 c 128,-1,24
 342 60 342 60 480 -25.5 c 128,-1,25
 618 -111 618 -111 766 -111 c 1,20,-1
825 -111 m 1,26,27
 937 -111 937 -111 1043 -62.5 c 128,-1,28
 1149 -14 1149 -14 1235 73 c 128,-1,29
 1321 160 1321 160 1369 266 c 128,-1,30
 1417 372 1417 372 1417 483 c 1,31,-1
 825 483 l 1,32,-1
 825 -111 l 1,26,27
174 543 m 1,33,-1
 766 543 l 1,34,-1
 766 1135 l 1,35,36
 618 1135 618 1135 480.5 1050.5 c 128,-1,37
 343 966 343 966 258.5 828.5 c 128,-1,38
 174 691 174 691 174 543 c 1,33,-1
825 543 m 1,39,-1
 1417 543 l 1,40,41
 1417 655 1417 655 1369.5 760.5 c 128,-1,42
 1322 866 1322 866 1235 953 c 128,-1,43
 1148 1040 1148 1040 1042.5 1087.5 c 128,-1,44
 937 1135 937 1135 825 1135 c 1,45,-1
 825 543 l 1,39,-1
EndSplineSet
EndChar

StartChar: ordfeminine
Encoding: 170 170 109
Width: 1591
GlyphClass: 2
Flags: W
LayerCount: 2
Fore
SplineSet
797 -170 m 0,0,1
 657 -170 657 -170 534 -117 c 128,-1,2
 411 -64 411 -64 315.5 30.5 c 128,-1,3
 220 125 220 125 167.5 249.5 c 128,-1,4
 115 374 115 374 115 512 c 0,5,6
 115 652 115 652 167 775 c 128,-1,7
 219 898 219 898 315 994 c 128,-1,8
 411 1090 411 1090 534 1142 c 128,-1,9
 657 1194 657 1194 797 1194 c 0,10,11
 936 1194 936 1194 1060 1141 c 128,-1,12
 1184 1088 1184 1088 1278 993.5 c 128,-1,13
 1372 899 1372 899 1424.5 775 c 128,-1,14
 1477 651 1477 651 1477 512 c 0,15,16
 1477 375 1477 375 1424 249.5 c 128,-1,17
 1371 124 1371 124 1277.5 30.5 c 128,-1,18
 1184 -63 1184 -63 1060 -116.5 c 128,-1,19
 936 -170 936 -170 797 -170 c 0,0,1
174 483 m 1,20,21
 174 365 174 365 224.5 256.5 c 128,-1,22
 275 148 275 148 365 64 c 128,-1,23
 455 -20 455 -20 566.5 -65.5 c 128,-1,24
 678 -111 678 -111 797 -111 c 0,25,26
 915 -111 915 -111 1027.5 -64.5 c 128,-1,27
 1140 -18 1140 -18 1227.5 64 c 128,-1,28
 1315 146 1315 146 1366 255.5 c 128,-1,29
 1417 365 1417 365 1417 483 c 1,30,-1
 174 483 l 1,20,21
174 543 m 1,31,-1
 1417 543 l 1,32,33
 1417 661 1417 661 1366 771 c 128,-1,34
 1315 881 1315 881 1228.5 961.5 c 128,-1,35
 1142 1042 1142 1042 1028.5 1088.5 c 128,-1,36
 915 1135 915 1135 797 1135 c 0,37,38
 678 1135 678 1135 565.5 1089 c 128,-1,39
 453 1043 453 1043 364 961 c 128,-1,40
 275 879 275 879 224.5 770 c 128,-1,41
 174 661 174 661 174 543 c 1,31,-1
EndSplineSet
EndChar

StartChar: logicalnot
Encoding: 172 172 110
Width: 1591
GlyphClass: 2
Flags: W
LayerCount: 2
Fore
SplineSet
797 -170 m 0,0,1
 657 -170 657 -170 534 -117 c 128,-1,2
 411 -64 411 -64 315.5 30.5 c 128,-1,3
 220 125 220 125 167.5 249.5 c 128,-1,4
 115 374 115 374 115 512 c 0,5,6
 115 652 115 652 167 775 c 128,-1,7
 219 898 219 898 315 994 c 128,-1,8
 411 1090 411 1090 534 1142 c 128,-1,9
 657 1194 657 1194 797 1194 c 0,10,11
 936 1194 936 1194 1060 1141 c 128,-1,12
 1184 1088 1184 1088 1278 993.5 c 128,-1,13
 1372 899 1372 899 1424.5 775 c 128,-1,14
 1477 651 1477 651 1477 512 c 0,15,16
 1477 375 1477 375 1424 249.5 c 128,-1,17
 1371 124 1371 124 1277.5 30.5 c 128,-1,18
 1184 -63 1184 -63 1060 -116.5 c 128,-1,19
 936 -170 936 -170 797 -170 c 0,0,1
377 51 m 1,20,21
 556 -111 556 -111 797 -111 c 0,22,23
 910 -111 910 -111 1020 -68.5 c 128,-1,24
 1130 -26 1130 -26 1214 51 c 1,25,-1
 797 469 l 1,26,-1
 377 51 l 1,20,21
336 92 m 1,27,-1
 754 512 l 1,28,-1
 336 932 l 1,29,30
 257 846 257 846 215.5 737.5 c 128,-1,31
 174 629 174 629 174 512 c 0,32,33
 174 433 174 433 192.5 359 c 128,-1,34
 211 285 211 285 248 216 c 128,-1,35
 285 147 285 147 336 92 c 1,27,-1
1255 92 m 1,36,37
 1306 147 1306 147 1343 216 c 128,-1,38
 1380 285 1380 285 1398.5 359 c 128,-1,39
 1417 433 1417 433 1417 512 c 256,40,41
 1417 591 1417 591 1398.5 665 c 128,-1,42
 1380 739 1380 739 1343 808 c 128,-1,43
 1306 877 1306 877 1255 932 c 1,44,-1
 838 512 l 1,45,-1
 1255 92 l 1,36,37
797 555 m 1,46,-1
 1214 973 l 1,47,48
 1127 1052 1127 1052 1020.5 1093.5 c 128,-1,49
 914 1135 914 1135 797 1135 c 0,50,51
 679 1135 679 1135 572.5 1094 c 128,-1,52
 466 1053 466 1053 377 973 c 1,53,-1
 797 555 l 1,46,-1
EndSplineSet
EndChar

StartChar: uni00AD
Encoding: 173 173 111
Width: 1591
GlyphClass: 2
Flags: W
LayerCount: 2
Fore
SplineSet
797 -170 m 0,0,1
 657 -170 657 -170 534 -117 c 128,-1,2
 411 -64 411 -64 315.5 30.5 c 128,-1,3
 220 125 220 125 167.5 249.5 c 128,-1,4
 115 374 115 374 115 512 c 0,5,6
 115 652 115 652 167 775 c 128,-1,7
 219 898 219 898 315 994 c 128,-1,8
 411 1090 411 1090 534 1142 c 128,-1,9
 657 1194 657 1194 797 1194 c 0,10,11
 936 1194 936 1194 1060 1141 c 128,-1,12
 1184 1088 1184 1088 1278 993.5 c 128,-1,13
 1372 899 1372 899 1424.5 775 c 128,-1,14
 1477 651 1477 651 1477 512 c 0,15,16
 1477 375 1477 375 1424 249.5 c 128,-1,17
 1371 124 1371 124 1277.5 30.5 c 128,-1,18
 1184 -63 1184 -63 1060 -116.5 c 128,-1,19
 936 -170 936 -170 797 -170 c 0,0,1
377 51 m 1,20,21
 556 -111 556 -111 797 -111 c 0,22,23
 910 -111 910 -111 1020 -68.5 c 128,-1,24
 1130 -26 1130 -26 1214 51 c 1,25,-1
 797 469 l 1,26,-1
 377 51 l 1,20,21
336 92 m 1,27,-1
 754 512 l 1,28,-1
 336 932 l 1,29,30
 257 846 257 846 215.5 737.5 c 128,-1,31
 174 629 174 629 174 512 c 0,32,33
 174 433 174 433 192.5 359 c 128,-1,34
 211 285 211 285 248 216 c 128,-1,35
 285 147 285 147 336 92 c 1,27,-1
1255 92 m 1,36,37
 1306 147 1306 147 1343 216 c 128,-1,38
 1380 285 1380 285 1398.5 359 c 128,-1,39
 1417 433 1417 433 1417 512 c 256,40,41
 1417 591 1417 591 1398.5 665 c 128,-1,42
 1380 739 1380 739 1343 808 c 128,-1,43
 1306 877 1306 877 1255 932 c 1,44,-1
 838 512 l 1,45,-1
 1255 92 l 1,36,37
797 555 m 1,46,-1
 1214 973 l 1,47,48
 1127 1052 1127 1052 1020.5 1093.5 c 128,-1,49
 914 1135 914 1135 797 1135 c 0,50,51
 679 1135 679 1135 572.5 1094 c 128,-1,52
 466 1053 466 1053 377 973 c 1,53,-1
 797 555 l 1,46,-1
EndSplineSet
EndChar

StartChar: registered
Encoding: 174 174 112
Width: 1591
GlyphClass: 2
Flags: W
LayerCount: 2
Fore
SplineSet
797 -170 m 0,0,1
 657 -170 657 -170 534 -117 c 128,-1,2
 411 -64 411 -64 315.5 30.5 c 128,-1,3
 220 125 220 125 167.5 249.5 c 128,-1,4
 115 374 115 374 115 512 c 0,5,6
 115 652 115 652 167 775 c 128,-1,7
 219 898 219 898 315 994 c 128,-1,8
 411 1090 411 1090 534 1142 c 128,-1,9
 657 1194 657 1194 797 1194 c 0,10,11
 936 1194 936 1194 1060 1141 c 128,-1,12
 1184 1088 1184 1088 1278 993.5 c 128,-1,13
 1372 899 1372 899 1424.5 775 c 128,-1,14
 1477 651 1477 651 1477 512 c 0,15,16
 1477 375 1477 375 1424 249.5 c 128,-1,17
 1371 124 1371 124 1277.5 30.5 c 128,-1,18
 1184 -63 1184 -63 1060 -116.5 c 128,-1,19
 936 -170 936 -170 797 -170 c 0,0,1
377 51 m 1,20,21
 556 -111 556 -111 797 -111 c 0,22,23
 921 -111 921 -111 1035 -62.5 c 128,-1,24
 1149 -14 1149 -14 1235 72 c 128,-1,25
 1321 158 1321 158 1369 271.5 c 128,-1,26
 1417 385 1417 385 1417 512 c 0,27,28
 1417 591 1417 591 1398.5 665 c 128,-1,29
 1380 739 1380 739 1343 808 c 128,-1,30
 1306 877 1306 877 1255 932 c 1,31,-1
 377 51 l 1,20,21
336 92 m 1,32,-1
 1214 973 l 1,33,34
 1127 1052 1127 1052 1020.5 1093.5 c 128,-1,35
 914 1135 914 1135 797 1135 c 0,36,37
 669 1135 669 1135 555 1086 c 128,-1,38
 441 1037 441 1037 357 953 c 128,-1,39
 273 869 273 869 223.5 752 c 128,-1,40
 174 635 174 635 174 512 c 0,41,42
 174 433 174 433 192.5 359 c 128,-1,43
 211 285 211 285 248 216 c 128,-1,44
 285 147 285 147 336 92 c 1,32,-1
EndSplineSet
EndChar

StartChar: macron
Encoding: 175 175 113
Width: 1591
GlyphClass: 2
Flags: W
LayerCount: 2
Fore
SplineSet
797 -170 m 0,0,1
 657 -170 657 -170 534 -117 c 128,-1,2
 411 -64 411 -64 315.5 30.5 c 128,-1,3
 220 125 220 125 167.5 249.5 c 128,-1,4
 115 374 115 374 115 512 c 0,5,6
 115 652 115 652 167 775 c 128,-1,7
 219 898 219 898 315 994 c 128,-1,8
 411 1090 411 1090 534 1142 c 128,-1,9
 657 1194 657 1194 797 1194 c 0,10,11
 936 1194 936 1194 1060 1141 c 128,-1,12
 1184 1088 1184 1088 1278 993.5 c 128,-1,13
 1372 899 1372 899 1424.5 775 c 128,-1,14
 1477 651 1477 651 1477 512 c 0,15,16
 1477 375 1477 375 1424 249.5 c 128,-1,17
 1371 124 1371 124 1277.5 30.5 c 128,-1,18
 1184 -63 1184 -63 1060 -116.5 c 128,-1,19
 936 -170 936 -170 797 -170 c 0,0,1
797 -111 m 256,20,21
 921 -111 921 -111 1035 -62.5 c 128,-1,22
 1149 -14 1149 -14 1235 72 c 128,-1,23
 1321 158 1321 158 1369 271.5 c 128,-1,24
 1417 385 1417 385 1417 512 c 256,25,26
 1417 639 1417 639 1368.5 753.5 c 128,-1,27
 1320 868 1320 868 1236 952.5 c 128,-1,28
 1152 1037 1152 1037 1038.5 1086 c 128,-1,29
 925 1135 925 1135 797 1135 c 256,30,31
 669 1135 669 1135 555 1086 c 128,-1,32
 441 1037 441 1037 357 953 c 128,-1,33
 273 869 273 869 223.5 752 c 128,-1,34
 174 635 174 635 174 512 c 256,35,36
 174 389 174 389 222.5 273.5 c 128,-1,37
 271 158 271 158 357.5 72 c 128,-1,38
 444 -14 444 -14 558.5 -62.5 c 128,-1,39
 673 -111 673 -111 797 -111 c 256,20,21
797 365 m 0,40,41
 738 365 738 365 693.5 408.5 c 128,-1,42
 649 452 649 452 649 512 c 0,43,44
 649 553 649 553 669 586 c 128,-1,45
 689 619 689 619 723 639 c 128,-1,46
 757 659 757 659 797 659 c 0,47,48
 835 659 835 659 868.5 639 c 128,-1,49
 902 619 902 619 922 586 c 128,-1,50
 942 553 942 553 942 512 c 0,51,52
 942 452 942 452 898.5 408.5 c 128,-1,53
 855 365 855 365 797 365 c 0,40,41
EndSplineSet
EndChar

StartChar: degree
Encoding: 176 176 114
Width: 2048
GlyphClass: 2
Flags: W
LayerCount: 2
Fore
SplineSet
1024 -442 m 0,0,1
 769 -442 769 -442 561 -310.5 c 128,-1,2
 353 -179 353 -179 234 41.5 c 128,-1,3
 115 262 115 262 115 512 c 0,4,5
 115 702 115 702 183 874.5 c 128,-1,6
 251 1047 251 1047 374.5 1180 c 128,-1,7
 498 1313 498 1313 666 1389.5 c 128,-1,8
 834 1466 834 1466 1024 1466 c 0,9,10
 1215 1466 1215 1466 1382.5 1389.5 c 128,-1,11
 1550 1313 1550 1313 1672.5 1180 c 128,-1,12
 1795 1047 1795 1047 1863 874.5 c 128,-1,13
 1931 702 1931 702 1931 512 c 0,14,15
 1931 262 1931 262 1812 41.5 c 128,-1,16
 1693 -179 1693 -179 1485.5 -310.5 c 128,-1,17
 1278 -442 1278 -442 1024 -442 c 0,0,1
1024 -360 m 256,18,19
 1196 -360 1196 -360 1349.5 -290 c 128,-1,20
 1503 -220 1503 -220 1615 -97.5 c 128,-1,21
 1727 25 1727 25 1788 183.5 c 128,-1,22
 1849 342 1849 342 1849 512 c 0,23,24
 1849 683 1849 683 1787.5 842 c 128,-1,25
 1726 1001 1726 1001 1614 1123 c 128,-1,26
 1502 1245 1502 1245 1349.5 1314.5 c 128,-1,27
 1197 1384 1197 1384 1024 1384 c 256,28,29
 851 1384 851 1384 699.5 1315 c 128,-1,30
 548 1246 548 1246 434 1122.5 c 128,-1,31
 320 999 320 999 258.5 841 c 128,-1,32
 197 683 197 683 197 512 c 0,33,34
 197 342 197 342 258.5 184.5 c 128,-1,35
 320 27 320 27 433.5 -97 c 128,-1,36
 547 -221 547 -221 699.5 -290.5 c 128,-1,37
 852 -360 852 -360 1024 -360 c 256,18,19
EndSplineSet
EndChar

StartChar: plusminus
Encoding: 177 177 115
Width: 1024
GlyphClass: 2
Flags: W
LayerCount: 2
Fore
SplineSet
512 115 m 256,0,1
 406 115 406 115 314.5 168.5 c 128,-1,2
 223 222 223 222 169 315 c 128,-1,3
 115 408 115 408 115 512 c 256,4,5
 115 616 115 616 169 709 c 128,-1,6
 223 802 223 802 314.5 855.5 c 128,-1,7
 406 909 406 909 512 909 c 256,8,9
 618 909 618 909 709 855 c 128,-1,10
 800 801 800 801 853.5 708.5 c 128,-1,11
 907 616 907 616 907 512 c 256,12,13
 907 408 907 408 853.5 315.5 c 128,-1,14
 800 223 800 223 709 169 c 128,-1,15
 618 115 618 115 512 115 c 256,0,1
512 197 m 0,16,17
 640 197 640 197 732.5 290.5 c 128,-1,18
 825 384 825 384 825 512 c 0,19,20
 825 594 825 594 782.5 667.5 c 128,-1,21
 740 741 740 741 668 784 c 128,-1,22
 596 827 596 827 512 827 c 0,23,24
 449 827 449 827 392 802.5 c 128,-1,25
 335 778 335 778 290 733 c 128,-1,26
 245 688 245 688 221 631.5 c 128,-1,27
 197 575 197 575 197 512 c 0,28,29
 197 384 197 384 289.5 290.5 c 128,-1,30
 382 197 382 197 512 197 c 0,16,17
EndSplineSet
EndChar

StartChar: uni00B2
Encoding: 178 178 116
Width: 1024
GlyphClass: 2
Flags: W
LayerCount: 2
Fore
SplineSet
512 115 m 256,0,1
 406 115 406 115 314.5 168.5 c 128,-1,2
 223 222 223 222 169 315 c 128,-1,3
 115 408 115 408 115 512 c 256,4,5
 115 616 115 616 169 709 c 128,-1,6
 223 802 223 802 314.5 855.5 c 128,-1,7
 406 909 406 909 512 909 c 256,8,9
 618 909 618 909 709 855 c 128,-1,10
 800 801 800 801 853.5 708.5 c 128,-1,11
 907 616 907 616 907 512 c 256,12,13
 907 408 907 408 853.5 315.5 c 128,-1,14
 800 223 800 223 709 169 c 128,-1,15
 618 115 618 115 512 115 c 256,0,1
EndSplineSet
EndChar

StartChar: uni00B3
Encoding: 179 179 117
Width: 1591
GlyphClass: 2
Flags: W
LayerCount: 2
Fore
SplineSet
115 74 m 0,0,1
 115 93 115 93 131 106 c 0,2,3
 462 377 462 377 797 377 c 0,4,5
 1129 377 1129 377 1460 106 c 0,6,7
 1477 92 1477 92 1477 74 c 0,8,9
 1477 57 1477 57 1464 45 c 128,-1,10
 1451 33 1451 33 1436 33 c 0,11,12
 1419 33 1419 33 1411 41 c 1,13,14
 1271 157 1271 157 1114.5 226 c 128,-1,15
 958 295 958 295 797 295 c 0,16,17
 634 295 634 295 477 226 c 128,-1,18
 320 157 320 157 180 41 c 1,19,20
 172 33 172 33 156 33 c 0,21,22
 139 33 139 33 127 45 c 128,-1,23
 115 57 115 57 115 74 c 0,0,1
131 918 m 0,24,25
 115 931 115 931 115 950 c 0,26,27
 115 967 115 967 126 979 c 128,-1,28
 137 991 137 991 156 991 c 0,29,30
 172 991 172 991 180 983 c 1,31,32
 325 865 325 865 479.5 797 c 128,-1,33
 634 729 634 729 797 729 c 0,34,35
 958 729 958 729 1112.5 797 c 128,-1,36
 1267 865 1267 865 1411 983 c 1,37,38
 1419 991 1419 991 1436 991 c 256,39,40
 1453 991 1453 991 1465 979 c 128,-1,41
 1477 967 1477 967 1477 950 c 0,42,43
 1477 932 1477 932 1460 918 c 0,44,45
 1129 647 1129 647 797 647 c 0,46,47
 462 647 462 647 131 918 c 0,24,25
EndSplineSet
EndChar

StartChar: acute
Encoding: 180 180 118
Width: 1591
GlyphClass: 2
Flags: W
LayerCount: 2
Fore
SplineSet
154 74 m 2,0,1
 137 74 137 74 126 86 c 128,-1,2
 115 98 115 98 115 115 c 0,3,4
 115 130 115 130 126 143 c 128,-1,5
 137 156 137 156 154 156 c 2,6,-1
 1440 156 l 2,7,8
 1455 156 1455 156 1466 143 c 128,-1,9
 1477 130 1477 130 1477 115 c 0,10,11
 1477 98 1477 98 1466 86 c 128,-1,12
 1455 74 1455 74 1440 74 c 2,13,-1
 154 74 l 2,0,1
154 471 m 2,14,15
 137 471 137 471 126 484 c 128,-1,16
 115 497 115 497 115 512 c 256,17,18
 115 527 115 527 126 540 c 128,-1,19
 137 553 137 553 154 553 c 2,20,-1
 1440 553 l 2,21,22
 1455 553 1455 553 1466 540 c 128,-1,23
 1477 527 1477 527 1477 512 c 256,24,25
 1477 497 1477 497 1466 484 c 128,-1,26
 1455 471 1455 471 1440 471 c 2,27,-1
 154 471 l 2,14,15
154 868 m 2,28,29
 137 868 137 868 126 881 c 128,-1,30
 115 894 115 894 115 909 c 0,31,32
 115 926 115 926 126 938 c 128,-1,33
 137 950 137 950 154 950 c 2,34,-1
 1440 950 l 2,35,36
 1455 950 1455 950 1466 938 c 128,-1,37
 1477 926 1477 926 1477 909 c 0,38,39
 1477 894 1477 894 1466 881 c 128,-1,40
 1455 868 1455 868 1440 868 c 2,41,-1
 154 868 l 2,28,29
EndSplineSet
EndChar

StartChar: uni00B5
Encoding: 181 181 119
Width: 1591
GlyphClass: 2
Flags: W
LayerCount: 2
Fore
SplineSet
250 -281 m 2,0,1
 233 -281 233 -281 222 -268 c 128,-1,2
 211 -255 211 -255 211 -240 c 0,3,4
 211 -223 211 -223 222 -211 c 128,-1,5
 233 -199 233 -199 250 -199 c 2,6,-1
 1384 -199 l 2,7,8
 1400 -199 1400 -199 1410.5 -211 c 128,-1,9
 1421 -223 1421 -223 1421 -240 c 0,10,11
 1421 -255 1421 -255 1410.5 -268 c 128,-1,12
 1400 -281 1400 -281 1384 -281 c 2,13,-1
 250 -281 l 2,0,1
170 711 m 0,14,15
 170 875 170 875 256 1010.5 c 128,-1,16
 342 1146 342 1146 486 1224.5 c 128,-1,17
 630 1303 630 1303 793 1303 c 2,18,-1
 1384 1303 l 2,19,20
 1400 1303 1400 1303 1410.5 1290 c 128,-1,21
 1421 1277 1421 1277 1421 1262 c 0,22,23
 1421 1245 1421 1245 1410.5 1233 c 128,-1,24
 1400 1221 1400 1221 1384 1221 c 2,25,-1
 799 1221 l 2,26,27
 692 1221 692 1221 594 1184 c 128,-1,28
 496 1147 496 1147 417.5 1076.5 c 128,-1,29
 339 1006 339 1006 295.5 913.5 c 128,-1,30
 252 821 252 821 252 711 c 256,31,32
 252 601 252 601 295.5 508.5 c 128,-1,33
 339 416 339 416 417.5 345 c 128,-1,34
 496 274 496 274 594 236.5 c 128,-1,35
 692 199 692 199 799 199 c 2,36,-1
 1384 199 l 2,37,38
 1400 199 1400 199 1410.5 186 c 128,-1,39
 1421 173 1421 173 1421 158 c 0,40,41
 1421 141 1421 141 1410.5 129 c 128,-1,42
 1400 117 1400 117 1384 117 c 2,43,-1
 793 117 l 2,44,45
 630 117 630 117 486 195 c 128,-1,46
 342 273 342 273 256 409 c 128,-1,47
 170 545 170 545 170 711 c 0,14,15
EndSplineSet
EndChar

StartChar: paragraph
Encoding: 182 182 120
Width: 1591
GlyphClass: 2
Flags: W
LayerCount: 2
Fore
SplineSet
209 -281 m 2,0,1
 192 -281 192 -281 181 -268 c 128,-1,2
 170 -255 170 -255 170 -240 c 0,3,4
 170 -223 170 -223 181 -211 c 128,-1,5
 192 -199 192 -199 209 -199 c 2,6,-1
 1343 -199 l 2,7,8
 1359 -199 1359 -199 1369.5 -211 c 128,-1,9
 1380 -223 1380 -223 1380 -240 c 0,10,11
 1380 -255 1380 -255 1369.5 -268 c 128,-1,12
 1359 -281 1359 -281 1343 -281 c 2,13,-1
 209 -281 l 2,0,1
209 117 m 2,14,15
 192 117 192 117 181 129 c 128,-1,16
 170 141 170 141 170 158 c 0,17,18
 170 173 170 173 181 186 c 128,-1,19
 192 199 192 199 209 199 c 2,20,-1
 793 199 l 2,21,22
 937 199 937 199 1062 265 c 128,-1,23
 1187 331 1187 331 1263 449.5 c 128,-1,24
 1339 568 1339 568 1339 711 c 0,25,26
 1339 821 1339 821 1295 914.5 c 128,-1,27
 1251 1008 1251 1008 1174 1077.5 c 128,-1,28
 1097 1147 1097 1147 999.5 1184 c 128,-1,29
 902 1221 902 1221 793 1221 c 2,30,-1
 209 1221 l 2,31,32
 192 1221 192 1221 181 1233 c 128,-1,33
 170 1245 170 1245 170 1262 c 0,34,35
 170 1277 170 1277 181 1290 c 128,-1,36
 192 1303 192 1303 209 1303 c 2,37,-1
 799 1303 l 2,38,39
 922 1303 922 1303 1034.5 1258.5 c 128,-1,40
 1147 1214 1147 1214 1235 1133 c 128,-1,41
 1323 1052 1323 1052 1372 944 c 128,-1,42
 1421 836 1421 836 1421 711 c 0,43,44
 1421 546 1421 546 1335 409.5 c 128,-1,45
 1249 273 1249 273 1106 195 c 128,-1,46
 963 117 963 117 799 117 c 2,47,-1
 209 117 l 2,14,15
EndSplineSet
EndChar

StartChar: periodcentered
Encoding: 183 183 121
AltUni2: 002219.ffffffff.0
Width: 1591
GlyphClass: 2
Flags: W
LayerCount: 2
Fore
SplineSet
209 -281 m 2,0,1
 192 -281 192 -281 181 -268 c 128,-1,2
 170 -255 170 -255 170 -240 c 0,3,4
 170 -223 170 -223 181 -211 c 128,-1,5
 192 -199 192 -199 209 -199 c 2,6,-1
 1384 -199 l 2,7,8
 1400 -199 1400 -199 1410.5 -211 c 128,-1,9
 1421 -223 1421 -223 1421 -240 c 0,10,11
 1421 -255 1421 -255 1410.5 -268 c 128,-1,12
 1400 -281 1400 -281 1384 -281 c 2,13,-1
 209 -281 l 2,0,1
190 676 m 1,14,15
 170 682 170 682 170 711 c 0,16,17
 170 737 170 737 197 748 c 1,18,-1
 1366 1300 l 1,19,20
 1370 1303 1370 1303 1380 1303 c 0,21,22
 1397 1303 1397 1303 1409 1291 c 128,-1,23
 1421 1279 1421 1279 1421 1262 c 0,24,25
 1421 1235 1421 1235 1397 1225 c 1,26,-1
 307 711 l 1,27,-1
 1403 193 l 1,28,29
 1421 183 1421 183 1421 158 c 0,30,31
 1421 140 1421 140 1409 128.5 c 128,-1,32
 1397 117 1397 117 1380 117 c 0,33,34
 1370 117 1370 117 1366 121 c 1,35,-1
 190 676 l 1,14,15
EndSplineSet
EndChar

StartChar: cedilla
Encoding: 184 184 122
Width: 1591
GlyphClass: 2
Flags: W
LayerCount: 2
Fore
SplineSet
209 -281 m 2,0,1
 192 -281 192 -281 181 -268 c 128,-1,2
 170 -255 170 -255 170 -240 c 0,3,4
 170 -223 170 -223 181 -211 c 128,-1,5
 192 -199 192 -199 209 -199 c 2,6,-1
 1384 -199 l 2,7,8
 1400 -199 1400 -199 1410.5 -211 c 128,-1,9
 1421 -223 1421 -223 1421 -240 c 0,10,11
 1421 -255 1421 -255 1410.5 -268 c 128,-1,12
 1400 -281 1400 -281 1384 -281 c 2,13,-1
 209 -281 l 2,0,1
170 158 m 0,14,15
 170 183 170 183 197 197 c 1,16,-1
 1284 711 l 1,17,-1
 190 1227 l 2,18,19
 170 1236 170 1236 170 1262 c 0,20,21
 170 1277 170 1277 182 1290 c 128,-1,22
 194 1303 194 1303 211 1303 c 0,23,24
 221 1303 221 1303 227 1300 c 2,25,-1
 1403 745 l 2,26,27
 1421 736 1421 736 1421 711 c 256,28,29
 1421 686 1421 686 1397 672 c 1,30,-1
 227 121 l 1,31,32
 221 117 221 117 211 117 c 0,33,34
 194 117 194 117 182 129 c 128,-1,35
 170 141 170 141 170 158 c 0,14,15
EndSplineSet
EndChar

StartChar: uni00B9
Encoding: 185 185 123
Width: 1591
GlyphClass: 2
Flags: W
LayerCount: 2
Fore
SplineSet
209 -281 m 2,0,1
 192 -281 192 -281 181 -268 c 128,-1,2
 170 -255 170 -255 170 -240 c 0,3,4
 170 -223 170 -223 181 -211 c 128,-1,5
 192 -199 192 -199 209 -199 c 2,6,-1
 1384 -199 l 2,7,8
 1400 -199 1400 -199 1410.5 -211 c 128,-1,9
 1421 -223 1421 -223 1421 -240 c 0,10,11
 1421 -255 1421 -255 1410.5 -268 c 128,-1,12
 1400 -281 1400 -281 1384 -281 c 2,13,-1
 209 -281 l 2,0,1
209 668 m 0,14,15
 192 668 192 668 181 680 c 128,-1,16
 170 692 170 692 170 709 c 0,17,18
 170 724 170 724 181 737 c 128,-1,19
 192 750 192 750 209 750 c 0,20,21
 392 750 392 750 568.5 765 c 128,-1,22
 745 780 745 780 915 830 c 128,-1,23
 1085 880 1085 880 1203.5 986 c 128,-1,24
 1322 1092 1322 1092 1339 1266 c 0,25,26
 1340 1280 1340 1280 1351.5 1291.5 c 128,-1,27
 1363 1303 1363 1303 1380 1303 c 0,28,29
 1399 1303 1399 1303 1410 1290 c 128,-1,30
 1421 1277 1421 1277 1421 1260 c 1,31,32
 1396 1016 1396 1016 1213 887 c 128,-1,33
 1030 758 1030 758 758 709 c 1,34,35
 1029 660 1029 660 1212.5 531 c 128,-1,36
 1396 402 1396 402 1421 162 c 1,37,38
 1421 143 1421 143 1410 130 c 128,-1,39
 1399 117 1399 117 1380 117 c 0,40,41
 1363 117 1363 117 1352 128 c 128,-1,42
 1341 139 1341 139 1339 156 c 0,43,44
 1322 327 1322 327 1202 434 c 128,-1,45
 1082 541 1082 541 912.5 590 c 128,-1,46
 743 639 743 639 573 653.5 c 128,-1,47
 403 668 403 668 209 668 c 0,14,15
EndSplineSet
EndChar

StartChar: ordmasculine
Encoding: 186 186 124
Width: 1591
GlyphClass: 2
Flags: W
LayerCount: 2
Fore
SplineSet
209 -281 m 2,0,1
 192 -281 192 -281 181 -268 c 128,-1,2
 170 -255 170 -255 170 -240 c 0,3,4
 170 -223 170 -223 181 -211 c 128,-1,5
 192 -199 192 -199 209 -199 c 2,6,-1
 1384 -199 l 2,7,8
 1400 -199 1400 -199 1410.5 -211 c 128,-1,9
 1421 -223 1421 -223 1421 -240 c 0,10,11
 1421 -255 1421 -255 1410.5 -268 c 128,-1,12
 1400 -281 1400 -281 1384 -281 c 2,13,-1
 209 -281 l 2,0,1
211 117 m 0,14,15
 192 117 192 117 181 130 c 128,-1,16
 170 143 170 143 170 162 c 1,17,18
 187 326 187 326 283 439 c 128,-1,19
 379 552 379 552 520.5 614.5 c 128,-1,20
 662 677 662 677 834 709 c 1,21,22
 662 739 662 739 520.5 802 c 128,-1,23
 379 865 379 865 283 979 c 128,-1,24
 187 1093 187 1093 170 1260 c 1,25,26
 170 1277 170 1277 181 1290 c 128,-1,27
 192 1303 192 1303 211 1303 c 0,28,29
 228 1303 228 1303 239.5 1291.5 c 128,-1,30
 251 1280 251 1280 252 1266 c 0,31,32
 275 1041 275 1041 463 927 c 128,-1,33
 651 813 651 813 887 781.5 c 128,-1,34
 1123 750 1123 750 1384 750 c 0,35,36
 1400 750 1400 750 1410.5 737 c 128,-1,37
 1421 724 1421 724 1421 709 c 0,38,39
 1421 692 1421 692 1410.5 680 c 128,-1,40
 1400 668 1400 668 1384 668 c 0,41,42
 1124 668 1124 668 888 636.5 c 128,-1,43
 652 605 652 605 463.5 491 c 128,-1,44
 275 377 275 377 252 156 c 0,45,46
 251 140 251 140 239.5 128.5 c 128,-1,47
 228 117 228 117 211 117 c 0,14,15
EndSplineSet
EndChar

StartChar: guillemotright
Encoding: 187 187 125
Width: 1591
GlyphClass: 2
Flags: W
LayerCount: 2
Fore
SplineSet
143 272 m 0,0,1
 121 272 121 272 115 324 c 1,2,-1
 115 336 l 2,3,4
 115 494 115 494 209.5 623 c 128,-1,5
 304 752 304 752 455 752 c 0,6,7
 549 752 549 752 625.5 705.5 c 128,-1,8
 702 659 702 659 805 566 c 128,-1,9
 908 473 908 473 977.5 430 c 128,-1,10
 1047 387 1047 387 1137 387 c 0,11,12
 1218 387 1218 387 1282 431 c 128,-1,13
 1346 475 1346 475 1382.5 548 c 128,-1,14
 1419 621 1419 621 1419 700 c 1,15,16
 1425 752 1425 752 1448 752 c 256,17,18
 1471 752 1471 752 1477 700 c 1,19,-1
 1477 688 l 2,20,21
 1477 589 1477 589 1435.5 492 c 128,-1,22
 1394 395 1394 395 1317 333.5 c 128,-1,23
 1240 272 1240 272 1137 272 c 0,24,25
 1043 272 1043 272 970 316.5 c 128,-1,26
 897 361 897 361 794 453.5 c 128,-1,27
 691 546 691 546 618 591.5 c 128,-1,28
 545 637 545 637 455 637 c 0,29,30
 375 637 375 637 310 593 c 128,-1,31
 245 549 245 549 208.5 476 c 128,-1,32
 172 403 172 403 172 324 c 1,33,34
 166 272 166 272 143 272 c 0,0,1
EndSplineSet
EndChar

StartChar: onequarter
Encoding: 188 188 126
Width: 1591
GlyphClass: 2
Flags: W
LayerCount: 2
Fore
SplineSet
143 115 m 0,0,1
 121 115 121 115 115 166 c 1,2,-1
 115 178 l 2,3,4
 115 271 115 271 160.5 348 c 128,-1,5
 206 425 206 425 285 468.5 c 128,-1,6
 364 512 364 512 455 512 c 0,7,8
 565 512 565 512 681.5 441.5 c 128,-1,9
 798 371 798 371 913 300 c 128,-1,10
 1028 229 1028 229 1137 229 c 0,11,12
 1242 229 1242 229 1330.5 294 c 128,-1,13
 1419 359 1419 359 1419 461 c 1,14,15
 1425 512 1425 512 1448 512 c 256,16,17
 1471 512 1471 512 1477 461 c 1,18,-1
 1477 449 l 2,19,20
 1477 356 1477 356 1431 279 c 128,-1,21
 1385 202 1385 202 1306.5 158.5 c 128,-1,22
 1228 115 1228 115 1137 115 c 0,23,24
 1051 115 1051 115 975.5 150.5 c 128,-1,25
 900 186 900 186 798.5 254.5 c 128,-1,26
 697 323 697 323 620 360 c 128,-1,27
 543 397 543 397 455 397 c 0,28,29
 390 397 390 397 323 368 c 128,-1,30
 256 339 256 339 214 286.5 c 128,-1,31
 172 234 172 234 172 166 c 1,32,33
 166 115 166 115 143 115 c 0,0,1
143 592 m 0,34,35
 121 592 121 592 115 643 c 1,36,-1
 115 655 l 2,37,38
 115 748 115 748 160.5 825 c 128,-1,39
 206 902 206 902 285 945.5 c 128,-1,40
 364 989 364 989 455 989 c 0,41,42
 565 989 565 989 681.5 918.5 c 128,-1,43
 798 848 798 848 913 777.5 c 128,-1,44
 1028 707 1028 707 1137 707 c 0,45,46
 1242 707 1242 707 1330.5 772 c 128,-1,47
 1419 837 1419 837 1419 938 c 1,48,49
 1425 989 1425 989 1448 989 c 256,50,51
 1471 989 1471 989 1477 938 c 1,52,-1
 1477 926 l 2,53,54
 1477 833 1477 833 1431 756 c 128,-1,55
 1385 679 1385 679 1306.5 635.5 c 128,-1,56
 1228 592 1228 592 1137 592 c 0,57,58
 1051 592 1051 592 975.5 627.5 c 128,-1,59
 900 663 900 663 798.5 731.5 c 128,-1,60
 697 800 697 800 620 837 c 128,-1,61
 543 874 543 874 455 874 c 0,62,63
 390 874 390 874 323 845 c 128,-1,64
 256 816 256 816 214 763.5 c 128,-1,65
 172 711 172 711 172 643 c 1,66,67
 166 592 166 592 143 592 c 0,34,35
EndSplineSet
EndChar

StartChar: onehalf
Encoding: 189 189 127
Width: 1591
GlyphClass: 2
Flags: W
LayerCount: 2
Fore
SplineSet
170 512 m 256,0,1
 170 677 170 677 256 813.5 c 128,-1,2
 342 950 342 950 486 1028 c 128,-1,3
 630 1106 630 1106 793 1106 c 2,4,-1
 1384 1106 l 2,5,6
 1400 1106 1400 1106 1410.5 1093 c 128,-1,7
 1421 1080 1421 1080 1421 1065 c 0,8,9
 1421 1048 1421 1048 1410.5 1036 c 128,-1,10
 1400 1024 1400 1024 1384 1024 c 2,11,-1
 799 1024 l 2,12,13
 692 1024 692 1024 593.5 986 c 128,-1,14
 495 948 495 948 417 878 c 128,-1,15
 339 808 339 808 295.5 715 c 128,-1,16
 252 622 252 622 252 512 c 256,17,18
 252 402 252 402 295.5 309.5 c 128,-1,19
 339 217 339 217 417.5 146 c 128,-1,20
 496 75 496 75 594 37.5 c 128,-1,21
 692 0 692 0 799 0 c 2,22,-1
 1384 0 l 2,23,24
 1400 0 1400 0 1410.5 -12 c 128,-1,25
 1421 -24 1421 -24 1421 -41 c 0,26,27
 1421 -56 1421 -56 1410.5 -69 c 128,-1,28
 1400 -82 1400 -82 1384 -82 c 2,29,-1
 793 -82 l 2,30,31
 630 -82 630 -82 486 -4 c 128,-1,32
 342 74 342 74 256 210.5 c 128,-1,33
 170 347 170 347 170 512 c 256,0,1
EndSplineSet
EndChar

StartChar: threequarters
Encoding: 190 190 128
Width: 1591
GlyphClass: 2
Flags: W
LayerCount: 2
Fore
SplineSet
209 -82 m 2,0,1
 192 -82 192 -82 181 -69 c 128,-1,2
 170 -56 170 -56 170 -41 c 0,3,4
 170 -24 170 -24 181 -12 c 128,-1,5
 192 0 192 0 209 0 c 2,6,-1
 793 0 l 2,7,8
 897 0 897 0 996.5 37.5 c 128,-1,9
 1096 75 1096 75 1174.5 145.5 c 128,-1,10
 1253 216 1253 216 1296 309.5 c 128,-1,11
 1339 403 1339 403 1339 512 c 0,12,13
 1339 623 1339 623 1295 717 c 128,-1,14
 1251 811 1251 811 1174 880.5 c 128,-1,15
 1097 950 1097 950 999.5 987 c 128,-1,16
 902 1024 902 1024 793 1024 c 2,17,-1
 209 1024 l 2,18,19
 192 1024 192 1024 181 1036 c 128,-1,20
 170 1048 170 1048 170 1065 c 0,21,22
 170 1080 170 1080 181 1093 c 128,-1,23
 192 1106 192 1106 209 1106 c 2,24,-1
 799 1106 l 2,25,26
 922 1106 922 1106 1033.5 1062 c 128,-1,27
 1145 1018 1145 1018 1233.5 936.5 c 128,-1,28
 1322 855 1322 855 1371.5 746 c 128,-1,29
 1421 637 1421 637 1421 512 c 0,30,31
 1421 347 1421 347 1335 210.5 c 128,-1,32
 1249 74 1249 74 1106 -4 c 128,-1,33
 963 -82 963 -82 799 -82 c 2,34,-1
 209 -82 l 2,0,1
EndSplineSet
EndChar

StartChar: questiondown
Encoding: 191 191 129
Width: 2048
GlyphClass: 2
Flags: W
LayerCount: 2
Fore
SplineSet
135 477 m 2,0,1
 115 487 115 487 115 512 c 256,2,3
 115 537 115 537 135 547 c 2,4,-1
 1245 1155 l 1,5,6
 1263 1161 1263 1161 1266 1161 c 0,7,8
 1282 1161 1282 1161 1294.5 1148.5 c 128,-1,9
 1307 1136 1307 1136 1307 1120 c 0,10,11
 1307 1098 1307 1098 1288 1085 c 1,12,-1
 242 512 l 1,13,-1
 1288 -61 l 1,14,15
 1307 -74 1307 -74 1307 -96 c 0,16,17
 1307 -112 1307 -112 1294.5 -124.5 c 128,-1,18
 1282 -137 1282 -137 1266 -137 c 0,19,20
 1262 -137 1262 -137 1256.5 -135 c 128,-1,21
 1251 -133 1251 -133 1245 -131 c 1,22,-1
 135 477 l 2,0,1
760 477 m 1,23,24
 739 487 739 487 739 512 c 0,25,26
 739 536 739 536 760 547 c 2,27,-1
 1870 1155 l 1,28,29
 1888 1161 1888 1161 1890 1161 c 0,30,31
 1908 1161 1908 1161 1919.5 1149.5 c 128,-1,32
 1931 1138 1931 1138 1931 1120 c 0,33,34
 1931 1098 1931 1098 1913 1085 c 1,35,-1
 866 512 l 1,36,-1
 1913 -61 l 1,37,38
 1931 -74 1931 -74 1931 -96 c 0,39,40
 1931 -113 1931 -113 1919.5 -125 c 128,-1,41
 1908 -137 1908 -137 1890 -137 c 0,42,43
 1887 -137 1887 -137 1881.5 -135 c 128,-1,44
 1876 -133 1876 -133 1870 -131 c 1,45,-1
 760 477 l 1,23,24
EndSplineSet
EndChar

StartChar: Agrave
Encoding: 192 192 130
Width: 2048
GlyphClass: 2
Flags: W
LayerCount: 2
Fore
SplineSet
115 -96 m 0,0,1
 115 -73 115 -73 135 -61 c 2,2,-1
 1180 512 l 1,3,-1
 135 1085 l 2,4,5
 115 1097 115 1097 115 1120 c 0,6,7
 115 1136 115 1136 126.5 1148.5 c 128,-1,8
 138 1161 138 1161 156 1161 c 0,9,10
 161 1161 161 1161 167 1159 c 128,-1,11
 173 1157 173 1157 178 1155 c 2,12,-1
 1288 547 l 2,13,14
 1307 536 1307 536 1307 512 c 256,15,16
 1307 488 1307 488 1288 477 c 2,17,-1
 178 -131 l 1,18,19
 172 -132 172 -132 166.5 -134.5 c 128,-1,20
 161 -137 161 -137 156 -137 c 0,21,22
 138 -137 138 -137 126.5 -124.5 c 128,-1,23
 115 -112 115 -112 115 -96 c 0,0,1
739 -96 m 0,24,25
 739 -73 739 -73 760 -61 c 2,26,-1
 1804 512 l 1,27,-1
 760 1085 l 2,28,29
 739 1097 739 1097 739 1120 c 0,30,31
 739 1136 739 1136 751.5 1148.5 c 128,-1,32
 764 1161 764 1161 780 1161 c 0,33,34
 785 1161 785 1161 791 1159 c 128,-1,35
 797 1157 797 1157 803 1155 c 1,36,-1
 1913 547 l 1,37,38
 1931 536 1931 536 1931 512 c 256,39,40
 1931 488 1931 488 1913 477 c 1,41,-1
 803 -131 l 1,42,43
 795 -133 795 -133 790 -135 c 128,-1,44
 785 -137 785 -137 780 -137 c 0,45,46
 764 -137 764 -137 751.5 -124.5 c 128,-1,47
 739 -112 739 -112 739 -96 c 0,24,25
EndSplineSet
EndChar

StartChar: Aacute
Encoding: 193 193 131
Width: 1591
GlyphClass: 2
Flags: W
LayerCount: 2
Fore
SplineSet
209 469 m 0,0,1
 192 469 192 469 181 481 c 128,-1,2
 170 493 170 493 170 510 c 0,3,4
 170 525 170 525 181 538 c 128,-1,5
 192 551 192 551 209 551 c 0,6,7
 392 551 392 551 568.5 566 c 128,-1,8
 745 581 745 581 915 631 c 128,-1,9
 1085 681 1085 681 1203.5 787 c 128,-1,10
 1322 893 1322 893 1339 1067 c 0,11,12
 1340 1081 1340 1081 1351.5 1092.5 c 128,-1,13
 1363 1104 1363 1104 1380 1104 c 0,14,15
 1399 1104 1399 1104 1410 1091 c 128,-1,16
 1421 1078 1421 1078 1421 1061 c 1,17,18
 1396 817 1396 817 1213 688 c 128,-1,19
 1030 559 1030 559 758 510 c 1,20,21
 1026 463 1026 463 1211 333 c 128,-1,22
 1396 203 1396 203 1421 -37 c 1,23,24
 1421 -55 1421 -55 1410 -68.5 c 128,-1,25
 1399 -82 1399 -82 1380 -82 c 0,26,27
 1363 -82 1363 -82 1352 -71 c 128,-1,28
 1341 -60 1341 -60 1339 -43 c 0,29,30
 1322 128 1322 128 1202 235 c 128,-1,31
 1082 342 1082 342 912.5 391 c 128,-1,32
 743 440 743 440 573 454.5 c 128,-1,33
 403 469 403 469 209 469 c 0,0,1
EndSplineSet
EndChar

StartChar: Acircumflex
Encoding: 194 194 132
Width: 1591
GlyphClass: 2
Flags: W
LayerCount: 2
Fore
SplineSet
211 -82 m 0,0,1
 192 -82 192 -82 181 -68.5 c 128,-1,2
 170 -55 170 -55 170 -37 c 1,3,4
 187 127 187 127 283.5 240.5 c 128,-1,5
 380 354 380 354 521.5 417 c 128,-1,6
 663 480 663 480 834 510 c 1,7,8
 705 533 705 533 596 572 c 128,-1,9
 487 611 487 611 394.5 677 c 128,-1,10
 302 743 302 743 243.5 837 c 128,-1,11
 185 931 185 931 170 1061 c 1,12,13
 170 1078 170 1078 181 1091 c 128,-1,14
 192 1104 192 1104 211 1104 c 0,15,16
 228 1104 228 1104 239.5 1092.5 c 128,-1,17
 251 1081 251 1081 252 1067 c 0,18,19
 275 842 275 842 463 728 c 128,-1,20
 651 614 651 614 887 582.5 c 128,-1,21
 1123 551 1123 551 1384 551 c 0,22,23
 1400 551 1400 551 1410.5 538 c 128,-1,24
 1421 525 1421 525 1421 510 c 0,25,26
 1421 493 1421 493 1410.5 481 c 128,-1,27
 1400 469 1400 469 1384 469 c 0,28,29
 1124 469 1124 469 888 437.5 c 128,-1,30
 652 406 652 406 463.5 292 c 128,-1,31
 275 178 275 178 252 -43 c 0,32,33
 251 -59 251 -59 239.5 -70.5 c 128,-1,34
 228 -82 228 -82 211 -82 c 0,0,1
EndSplineSet
EndChar

StartChar: Atilde
Encoding: 195 195 133
Width: 2048
GlyphClass: 2
Flags: W
LayerCount: 2
Fore
SplineSet
551 -4 m 1,0,1
 536 80 536 80 499.5 158 c 128,-1,2
 463 236 463 236 408 301 c 128,-1,3
 353 366 353 366 283 415 c 128,-1,4
 213 464 213 464 131 492 c 1,5,6
 115 495 115 495 115 512 c 0,7,8
 115 527 115 527 131 535 c 1,9,10
 214 564 214 564 283.5 611.5 c 128,-1,11
 353 659 353 659 408 724 c 128,-1,12
 463 789 463 789 499.5 867 c 128,-1,13
 536 945 536 945 551 1028 c 1,14,15
 556 1047 556 1047 571 1047 c 2,16,-1
 612 1047 l 2,17,18
 633 1047 633 1047 633 1020 c 1,19,20
 610 884 610 884 532.5 761 c 128,-1,21
 455 638 455 638 338 553 c 1,22,-1
 1892 553 l 2,23,24
 1909 553 1909 553 1920 540 c 128,-1,25
 1931 527 1931 527 1931 512 c 256,26,27
 1931 497 1931 497 1920 484 c 128,-1,28
 1909 471 1909 471 1892 471 c 2,29,-1
 338 471 l 1,30,31
 453 389 453 389 531.5 264.5 c 128,-1,32
 610 140 610 140 633 4 c 1,33,34
 633 -23 633 -23 612 -23 c 2,35,-1
 571 -23 l 2,36,37
 556 -23 556 -23 551 -4 c 1,0,1
EndSplineSet
EndChar
